<ttFont>
    <TTGlyph name=".notdef" xMin="195" yMin="0" xMax="1034" yMax="1462">
      <contour>
        <pt x="195" y="1462" on="1"/>
        <pt x="1034" y="1462" on="1"/>
        <pt x="1034" y="0" on="1"/>
        <pt x="195" y="0" on="1"/>
      </contour>
      <contour>
        <pt x="293" y="90" on="1"/>
        <pt x="936" y="90" on="1"/>
        <pt x="936" y="1372" on="1"/>
        <pt x="293" y="1372" on="1"/>
      </contour>
    </TTGlyph>
    <TTGlyph name="A" xMin="0" yMin="0" xMax="813" yMax="1462">
      <contour>
        <pt x="713" y="0" on="1"/>
        <pt x="584" y="530" on="1"/>
        <pt x="229" y="530" on="1"/>
        <pt x="102" y="0" on="1"/>
        <pt x="0" y="0" on="1"/>
        <pt x="352" y="1462" on="1"/>
        <pt x="453" y="1462" on="1"/>
        <pt x="813" y="0" on="1"/>
      </contour>
      <contour>
        <pt x="561" y="629" on="1"/>
        <pt x="432" y="1174" on="1"/>
        <pt x="412" y="1266" on="0"/>
        <pt x="401" y="1348" on="1"/>
        <pt x="392" y="1261" on="0"/>
        <pt x="373" y="1174" on="1"/>
        <pt x="248" y="629" on="1"/>
      </contour>
    </TTGlyph>
    <TTGlyph name="AE" xMin="0" yMin="0" xMax="1055" yMax="1462">
      <contour>
        <pt x="1055" y="0" on="1"/>
        <pt x="524" y="0" on="1"/>
        <pt x="524" y="530" on="1"/>
        <pt x="256" y="530" on="1"/>
        <pt x="104" y="0" on="1"/>
        <pt x="0" y="0" on="1"/>
        <pt x="434" y="1462" on="1"/>
        <pt x="1055" y="1462" on="1"/>
        <pt x="1055" y="1366" on="1"/>
        <pt x="623" y="1366" on="1"/>
        <pt x="623" y="813" on="1"/>
        <pt x="1030" y="813" on="1"/>
        <pt x="1030" y="719" on="1"/>
        <pt x="623" y="719" on="1"/>
        <pt x="623" y="94" on="1"/>
        <pt x="1055" y="94" on="1"/>
      </contour>
      <contour>
        <pt x="283" y="629" on="1"/>
        <pt x="524" y="629" on="1"/>
        <pt x="524" y="1364" on="1"/>
        <pt x="496" y="1364" on="1"/>
      </contour>
    </TTGlyph>
    <TTGlyph name="AEacute" xMin="0" yMin="0" xMax="1055" yMax="1907">
      <component glyphName="AE" x="0" y="0" flags="0x204"/>
      <component glyphName="acute" x="125" y="338" flags="0x4"/>
    </TTGlyph>
    <TTGlyph name="Aacute" xMin="0" yMin="0" xMax="813" yMax="1907">
      <component glyphName="A" x="0" y="0" flags="0x204"/>
      <component glyphName="acute" x="-95" y="338" flags="0x4"/>
    </TTGlyph>
    <TTGlyph name="Abreve" xMin="0" yMin="0" xMax="813" yMax="1817">
      <component glyphName="A" x="0" y="0" flags="0x204"/>
      <component glyphName="breve" x="-177" y="338" flags="0x4"/>
    </TTGlyph>
    <TTGlyph name="Acircumflex" xMin="0" yMin="0" xMax="813" yMax="1907">
      <component glyphName="A" x="0" y="0" flags="0x204"/>
      <component glyphName="circumflex" x="-175" y="338" flags="0x4"/>
    </TTGlyph>
    <TTGlyph name="Adieresis" xMin="0" yMin="0" xMax="813" yMax="1808">
      <component glyphName="A" x="0" y="0" flags="0x204"/>
      <component glyphName="dieresis" x="-157" y="338" flags="0x4"/>
    </TTGlyph>
    <TTGlyph name="Agrave" xMin="0" yMin="0" xMax="813" yMax="1907">
      <component glyphName="A" x="0" y="0" flags="0x204"/>
      <component glyphName="grave" x="-288" y="338" flags="0x4"/>
    </TTGlyph>
    <TTGlyph name="Alpha" xMin="0" yMin="0" xMax="813" yMax="1462">
      <component glyphName="A" x="0" y="0" flags="0x204"/>
    </TTGlyph>
    <TTGlyph name="Alphatonos" xMin="0" yMin="0" xMax="813" yMax="1505">
      <component glyphName="A" x="0" y="0" flags="0x204"/>
      <component glyphName="tonos" x="-536" y="-105" flags="0x4"/>
    </TTGlyph>
    <TTGlyph name="Amacron" xMin="0" yMin="0" xMax="813" yMax="1671">
      <component glyphName="A" x="0" y="0" flags="0x204"/>
      <component glyphName="macron" x="-149" y="338" flags="0x4"/>
    </TTGlyph>
    <TTGlyph name="Aogonek" xMin="0" yMin="-446" xMax="813" yMax="1462">
      <component glyphName="A" x="0" y="0" flags="0x204"/>
      <component glyphName="ogonek" x="498" y="0" flags="0x4"/>
    </TTGlyph>
    <TTGlyph name="Aring" xMin="0" yMin="0" xMax="813" yMax="1771">
      <component glyphName="A" x="0" y="0" flags="0x204"/>
      <component glyphName="ring" x="-187" y="147" flags="0x4"/>
    </TTGlyph>
    <TTGlyph name="Aringacute" xMin="0" yMin="0" xMax="813" yMax="1960">
      <contour>
        <pt x="600" y="1438" on="1"/>
        <pt x="600" y="1363" on="0"/>
        <pt x="527" y="1271" on="0"/>
        <pt x="467" y="1255" on="1"/>
        <pt x="813" y="0" on="1"/>
        <pt x="709" y="0" on="1"/>
        <pt x="596" y="424" on="1"/>
        <pt x="213" y="424" on="1"/>
        <pt x="106" y="0" on="1"/>
        <pt x="0" y="0" on="1"/>
        <pt x="336" y="1255" on="1"/>
        <pt x="274" y="1271" on="0"/>
        <pt x="203" y="1361" on="0"/>
        <pt x="203" y="1434" on="1"/>
        <pt x="203" y="1519" on="0"/>
        <pt x="310" y="1620" on="0"/>
        <pt x="401" y="1620" on="1"/>
        <pt x="488" y="1620" on="0"/>
        <pt x="600" y="1521" on="0"/>
      </contour>
      <contour>
        <pt x="569" y="522" on="1"/>
        <pt x="432" y="1049" on="1"/>
        <pt x="408" y="1154" on="0"/>
        <pt x="401" y="1202" on="1"/>
        <pt x="396" y="1149" on="0"/>
        <pt x="382" y="1084" on="0"/>
        <pt x="240" y="522" on="1"/>
      </contour>
      <contour>
        <pt x="281" y="1434" on="1"/>
        <pt x="281" y="1381" on="0"/>
        <pt x="341" y="1317" on="0"/>
        <pt x="401" y="1317" on="1"/>
        <pt x="455" y="1317" on="0"/>
        <pt x="522" y="1381" on="0"/>
        <pt x="522" y="1434" on="1"/>
        <pt x="522" y="1485" on="0"/>
        <pt x="460" y="1550" on="0"/>
        <pt x="401" y="1550" on="1"/>
        <pt x="347" y="1550" on="0"/>
        <pt x="281" y="1485" on="0"/>
      </contour>
      <contour>
        <pt x="326" y="1683" on="1"/>
        <pt x="375" y="1744" on="1"/>
        <pt x="477" y="1868" on="0"/>
        <pt x="516" y="1960" on="1"/>
        <pt x="641" y="1960" on="1"/>
        <pt x="641" y="1944" on="1"/>
        <pt x="615" y="1895" on="0"/>
        <pt x="497" y="1767" on="0"/>
        <pt x="373" y="1663" on="1"/>
        <pt x="326" y="1663" on="1"/>
      </contour>
    </TTGlyph>
    <TTGlyph name="Atilde" xMin="0" yMin="0" xMax="813" yMax="1792">
      <component glyphName="A" x="0" y="0" flags="0x204"/>
      <component glyphName="tilde" x="-171" y="338" flags="0x4"/>
    </TTGlyph>
    <TTGlyph name="B" xMin="160" yMin="0" xMax="827" yMax="1462">
      <contour>
        <pt x="160" y="1462" on="1"/>
        <pt x="440" y="1462" on="1"/>
        <pt x="612" y="1462" on="0"/>
        <pt x="797" y="1286" on="0"/>
        <pt x="797" y="1114" on="1"/>
        <pt x="797" y="817" on="0"/>
        <pt x="580" y="774" on="1"/>
        <pt x="580" y="766" on="1"/>
        <pt x="705" y="740" on="0"/>
        <pt x="827" y="569" on="0"/>
        <pt x="827" y="416" on="1"/>
        <pt x="827" y="220" on="0"/>
        <pt x="653" y="0" on="0"/>
        <pt x="496" y="0" on="1"/>
        <pt x="160" y="0" on="1"/>
      </contour>
      <contour>
        <pt x="258" y="811" on="1"/>
        <pt x="442" y="811" on="1"/>
        <pt x="579" y="811" on="0"/>
        <pt x="696" y="962" on="0"/>
        <pt x="696" y="1116" on="1"/>
        <pt x="696" y="1240" on="0"/>
        <pt x="567" y="1372" on="0"/>
        <pt x="440" y="1372" on="1"/>
        <pt x="258" y="1372" on="1"/>
      </contour>
      <contour>
        <pt x="258" y="721" on="1"/>
        <pt x="258" y="90" on="1"/>
        <pt x="483" y="90" on="1"/>
        <pt x="725" y="90" on="0"/>
        <pt x="725" y="418" on="1"/>
        <pt x="725" y="564" on="0"/>
        <pt x="583" y="721" on="0"/>
        <pt x="455" y="721" on="1"/>
      </contour>
    </TTGlyph>
    <TTGlyph name="Beta" xMin="160" yMin="0" xMax="827" yMax="1462">
      <component glyphName="B" x="0" y="0" flags="0x204"/>
    </TTGlyph>
    <TTGlyph name="C" xMin="111" yMin="-20" xMax="809" yMax="1485">
      <contour>
        <pt x="573" y="1391" on="1"/>
        <pt x="408" y="1391" on="0"/>
        <pt x="213" y="1042" on="0"/>
        <pt x="213" y="733" on="1"/>
        <pt x="213" y="532" on="0"/>
        <pt x="303" y="234" on="0"/>
        <pt x="471" y="74" on="0"/>
        <pt x="582" y="74" on="1"/>
        <pt x="696" y="74" on="0"/>
        <pt x="778" y="115" on="1"/>
        <pt x="778" y="25" on="1"/>
        <pt x="700" y="-20" on="0"/>
        <pt x="573" y="-20" on="1"/>
        <pt x="434" y="-20" on="0"/>
        <pt x="225" y="160" on="0"/>
        <pt x="111" y="501" on="0"/>
        <pt x="111" y="735" on="1"/>
        <pt x="111" y="1085" on="0"/>
        <pt x="360" y="1485" on="0"/>
        <pt x="575" y="1485" on="1"/>
        <pt x="709" y="1485" on="0"/>
        <pt x="809" y="1423" on="1"/>
        <pt x="764" y="1337" on="1"/>
        <pt x="680" y="1391" on="0"/>
      </contour>
    </TTGlyph>
    <TTGlyph name="Cacute" xMin="111" yMin="-20" xMax="818" yMax="1907">
      <component glyphName="C" x="0" y="0" flags="0x204"/>
      <component glyphName="acute" x="68" y="338" flags="0x4"/>
    </TTGlyph>
    <TTGlyph name="Ccaron" xMin="111" yMin="-20" xMax="810" yMax="1907">
      <component glyphName="C" x="0" y="0" flags="0x204"/>
      <component glyphName="caron" x="-3" y="338" flags="0x4"/>
    </TTGlyph>
    <TTGlyph name="Ccedilla" xMin="111" yMin="-492" xMax="809" yMax="1485">
      <component glyphName="C" x="0" y="0" flags="0x204"/>
      <component glyphName="cedilla" x="313" y="0" flags="0x4"/>
    </TTGlyph>
    <TTGlyph name="Ccircumflex" xMin="111" yMin="-20" xMax="809" yMax="1907">
      <component glyphName="C" x="0" y="0" flags="0x204"/>
      <component glyphName="circumflex" x="-13" y="338" flags="0x4"/>
    </TTGlyph>
    <TTGlyph name="Cdot" xMin="111" yMin="-20" xMax="809" yMax="1829">
      <component glyphName="C" x="0" y="0" flags="0x204"/>
      <component glyphName="dotaccent" x="379" y="348" flags="0x4"/>
    </TTGlyph>
    <TTGlyph name="Chi" xMin="20" yMin="0" xMax="694" yMax="1462">
      <component glyphName="X" x="0" y="0" flags="0x204"/>
    </TTGlyph>
    <TTGlyph name="D" xMin="160" yMin="0" xMax="885" yMax="1462">
      <contour>
        <pt x="885" y="745" on="1"/>
        <pt x="885" y="0" on="0"/>
        <pt x="420" y="0" on="1"/>
        <pt x="160" y="0" on="1"/>
        <pt x="160" y="1462" on="1"/>
        <pt x="426" y="1462" on="1"/>
        <pt x="652" y="1462" on="0"/>
        <pt x="885" y="1097" on="0"/>
      </contour>
      <contour>
        <pt x="782" y="739" on="1"/>
        <pt x="782" y="1048" on="0"/>
        <pt x="600" y="1372" on="0"/>
        <pt x="422" y="1372" on="1"/>
        <pt x="258" y="1372" on="1"/>
        <pt x="258" y="90" on="1"/>
        <pt x="414" y="90" on="1"/>
        <pt x="604" y="90" on="0"/>
        <pt x="782" y="422" on="0"/>
      </contour>
    </TTGlyph>
    <TTGlyph name="Dcaron" xMin="160" yMin="0" xMax="885" yMax="1907">
      <component glyphName="D" x="0" y="0" flags="0x204"/>
      <component glyphName="caron" x="-136" y="338" flags="0x4"/>
    </TTGlyph>
    <TTGlyph name="Dcroat" xMin="61" yMin="0" xMax="885" yMax="1462">
      <component glyphName="Eth" x="0" y="0" flags="0x204"/>
    </TTGlyph>
    <TTGlyph name="Delta" xMin="23" yMin="0" xMax="782" yMax="1462">
      <contour>
        <pt x="23" y="96" on="1"/>
        <pt x="348" y="1462" on="1"/>
        <pt x="451" y="1462" on="1"/>
        <pt x="782" y="84" on="1"/>
        <pt x="782" y="0" on="1"/>
        <pt x="23" y="0" on="1"/>
      </contour>
      <contour>
        <pt x="397" y="1315" on="1"/>
        <pt x="384" y="1246" on="0"/>
        <pt x="361" y="1129" on="0"/>
        <pt x="131" y="94" on="1"/>
        <pt x="674" y="94" on="1"/>
        <pt x="479" y="936" on="1"/>
        <pt x="418" y="1209" on="0"/>
      </contour>
    </TTGlyph>
    <TTGlyph name="E" xMin="160" yMin="0" xMax="690" yMax="1462">
      <contour>
        <pt x="690" y="0" on="1"/>
        <pt x="160" y="0" on="1"/>
        <pt x="160" y="1462" on="1"/>
        <pt x="690" y="1462" on="1"/>
        <pt x="690" y="1368" on="1"/>
        <pt x="258" y="1368" on="1"/>
        <pt x="258" y="813" on="1"/>
        <pt x="666" y="813" on="1"/>
        <pt x="666" y="719" on="1"/>
        <pt x="258" y="719" on="1"/>
        <pt x="258" y="94" on="1"/>
        <pt x="690" y="94" on="1"/>
      </contour>
    </TTGlyph>
    <TTGlyph name="Eacute" xMin="160" yMin="0" xMax="690" yMax="1907">
      <component glyphName="E" x="0" y="0" flags="0x204"/>
      <component glyphName="acute" x="-110" y="338" flags="0x4"/>
    </TTGlyph>
    <TTGlyph name="Ebreve" xMin="160" yMin="0" xMax="690" yMax="1817">
      <component glyphName="E" x="0" y="0" flags="0x204"/>
      <component glyphName="breve" x="-149" y="338" flags="0x4"/>
    </TTGlyph>
    <TTGlyph name="Ecaron" xMin="160" yMin="0" xMax="690" yMax="1907">
      <component glyphName="E" x="0" y="0" flags="0x204"/>
      <component glyphName="caron" x="-140" y="338" flags="0x4"/>
    </TTGlyph>
    <TTGlyph name="Ecircumflex" xMin="160" yMin="0" xMax="690" yMax="1907">
      <component glyphName="E" x="0" y="0" flags="0x204"/>
      <component glyphName="circumflex" x="-161" y="338" flags="0x4"/>
    </TTGlyph>
    <TTGlyph name="Edieresis" xMin="160" yMin="0" xMax="690" yMax="1808">
      <component glyphName="E" x="0" y="0" flags="0x204"/>
      <component glyphName="dieresis" x="-146" y="338" flags="0x4"/>
    </TTGlyph>
    <TTGlyph name="Edotaccent" xMin="160" yMin="0" xMax="690" yMax="1790">
      <component glyphName="E" x="0" y="0" flags="0x204"/>
      <component glyphName="dotaccent" x="244" y="309" flags="0x4"/>
    </TTGlyph>
    <TTGlyph name="Egrave" xMin="160" yMin="0" xMax="690" yMax="1907">
      <component glyphName="E" x="0" y="0" flags="0x204"/>
      <component glyphName="grave" x="-235" y="338" flags="0x4"/>
    </TTGlyph>
    <TTGlyph name="Emacron" xMin="160" yMin="0" xMax="690" yMax="1671">
      <component glyphName="E" x="0" y="0" flags="0x204"/>
      <component glyphName="macron" x="-128" y="338" flags="0x4"/>
    </TTGlyph>
    <TTGlyph name="Eng" xMin="160" yMin="-369" xMax="930" yMax="1462">
      <contour>
        <pt x="930" y="-23" on="1"/>
        <pt x="930" y="-195" on="0"/>
        <pt x="818" y="-369" on="0"/>
        <pt x="709" y="-369" on="1"/>
        <pt x="642" y="-369" on="0"/>
        <pt x="592" y="-344" on="1"/>
        <pt x="592" y="-252" on="1"/>
        <pt x="641" y="-272" on="0"/>
        <pt x="707" y="-272" on="1"/>
        <pt x="770" y="-272" on="0"/>
        <pt x="834" y="-157" on="0"/>
        <pt x="834" y="-25" on="1"/>
        <pt x="834" y="0" on="1"/>
        <pt x="252" y="1311" on="1"/>
        <pt x="244" y="1311" on="1"/>
        <pt x="256" y="1175" on="0"/>
        <pt x="256" y="1049" on="1"/>
        <pt x="256" y="0" on="1"/>
        <pt x="160" y="0" on="1"/>
        <pt x="160" y="1462" on="1"/>
        <pt x="287" y="1462" on="1"/>
        <pt x="836" y="225" on="1"/>
        <pt x="842" y="225" on="1"/>
        <pt x="834" y="377" on="0"/>
        <pt x="834" y="492" on="1"/>
        <pt x="834" y="1462" on="1"/>
        <pt x="930" y="1462" on="1"/>
      </contour>
    </TTGlyph>
    <TTGlyph name="Eogonek" xMin="160" yMin="-446" xMax="690" yMax="1462">
      <component glyphName="E" x="0" y="0" flags="0x204"/>
      <component glyphName="ogonek" x="334" y="0" flags="0x4"/>
    </TTGlyph>
    <TTGlyph name="Epsilon" xMin="160" yMin="0" xMax="690" yMax="1462">
      <component glyphName="E" x="0" y="0" flags="0x204"/>
    </TTGlyph>
    <TTGlyph name="Epsilontonos" xMin="1" yMin="0" xMax="823" yMax="1505">
      <component glyphName="E" x="133" y="0" flags="0x4"/>
      <component glyphName="tonos" x="-536" y="-105" flags="0x4"/>
    </TTGlyph>
    <TTGlyph name="Eta" xMin="160" yMin="0" xMax="866" yMax="1462">
      <component glyphName="H" x="0" y="0" flags="0x204"/>
    </TTGlyph>
    <TTGlyph name="Etatonos" xMin="1" yMin="0" xMax="1003" yMax="1505">
      <component glyphName="H" x="137" y="0" flags="0x4"/>
      <component glyphName="tonos" x="-536" y="-105" flags="0x4"/>
    </TTGlyph>
    <TTGlyph name="Eth" xMin="61" yMin="0" xMax="885" yMax="1462">
      <contour>
        <pt x="885" y="745" on="1"/>
        <pt x="885" y="0" on="0"/>
        <pt x="420" y="0" on="1"/>
        <pt x="160" y="0" on="1"/>
        <pt x="160" y="700" on="1"/>
        <pt x="61" y="700" on="1"/>
        <pt x="61" y="791" on="1"/>
        <pt x="160" y="791" on="1"/>
        <pt x="160" y="1462" on="1"/>
        <pt x="426" y="1462" on="1"/>
        <pt x="652" y="1462" on="0"/>
        <pt x="885" y="1097" on="0"/>
      </contour>
      <contour>
        <pt x="782" y="739" on="1"/>
        <pt x="782" y="1048" on="0"/>
        <pt x="600" y="1372" on="0"/>
        <pt x="422" y="1372" on="1"/>
        <pt x="258" y="1372" on="1"/>
        <pt x="258" y="791" on="1"/>
        <pt x="483" y="791" on="1"/>
        <pt x="483" y="700" on="1"/>
        <pt x="258" y="700" on="1"/>
        <pt x="258" y="90" on="1"/>
        <pt x="414" y="90" on="1"/>
        <pt x="604" y="90" on="0"/>
        <pt x="782" y="422" on="0"/>
      </contour>
    </TTGlyph>
    <TTGlyph name="Euro" xMin="35" yMin="-20" xMax="772" yMax="1485">
      <contour>
        <pt x="553" y="1386" on="1"/>
        <pt x="316" y="1386" on="0"/>
        <pt x="279" y="899" on="1"/>
        <pt x="604" y="899" on="1"/>
        <pt x="604" y="817" on="1"/>
        <pt x="274" y="817" on="1"/>
        <pt x="272" y="741" on="1"/>
        <pt x="272" y="668" on="1"/>
        <pt x="274" y="616" on="1"/>
        <pt x="571" y="616" on="1"/>
        <pt x="571" y="535" on="1"/>
        <pt x="279" y="535" on="1"/>
        <pt x="294" y="301" on="0"/>
        <pt x="438" y="78" on="0"/>
        <pt x="569" y="78" on="1"/>
        <pt x="622" y="78" on="0"/>
        <pt x="708" y="99" on="0"/>
        <pt x="756" y="125" on="1"/>
        <pt x="756" y="25" on="1"/>
        <pt x="670" y="-20" on="0"/>
        <pt x="569" y="-20" on="1"/>
        <pt x="393" y="-20" on="0"/>
        <pt x="198" y="255" on="0"/>
        <pt x="176" y="535" on="1"/>
        <pt x="35" y="535" on="1"/>
        <pt x="35" y="616" on="1"/>
        <pt x="172" y="616" on="1"/>
        <pt x="170" y="717" on="1"/>
        <pt x="170" y="756" on="1"/>
        <pt x="172" y="817" on="1"/>
        <pt x="35" y="817" on="1"/>
        <pt x="35" y="899" on="1"/>
        <pt x="176" y="899" on="1"/>
        <pt x="193" y="1170" on="0"/>
        <pt x="395" y="1485" on="0"/>
        <pt x="549" y="1485" on="1"/>
        <pt x="672" y="1485" on="0"/>
        <pt x="772" y="1411" on="1"/>
        <pt x="721" y="1325" on="1"/>
        <pt x="634" y="1386" on="0"/>
      </contour>
    </TTGlyph>
    <TTGlyph name="F" xMin="160" yMin="0" xMax="692" yMax="1462">
      <contour>
        <pt x="258" y="0" on="1"/>
        <pt x="160" y="0" on="1"/>
        <pt x="160" y="1462" on="1"/>
        <pt x="692" y="1462" on="1"/>
        <pt x="692" y="1368" on="1"/>
        <pt x="258" y="1368" on="1"/>
        <pt x="258" y="748" on="1"/>
        <pt x="668" y="748" on="1"/>
        <pt x="668" y="653" on="1"/>
        <pt x="258" y="653" on="1"/>
      </contour>
    </TTGlyph>
    <TTGlyph name="G" xMin="111" yMin="-20" xMax="961" yMax="1483">
      <contour>
        <pt x="641" y="737" on="1"/>
        <pt x="961" y="737" on="1"/>
        <pt x="961" y="45" on="1"/>
        <pt x="794" y="-20" on="0"/>
        <pt x="614" y="-20" on="1"/>
        <pt x="375" y="-20" on="0"/>
        <pt x="111" y="380" on="0"/>
        <pt x="111" y="735" on="1"/>
        <pt x="111" y="1091" on="0"/>
        <pt x="384" y="1483" on="0"/>
        <pt x="631" y="1483" on="1"/>
        <pt x="797" y="1483" on="0"/>
        <pt x="944" y="1389" on="1"/>
        <pt x="897" y="1303" on="1"/>
        <pt x="759" y="1391" on="0"/>
        <pt x="631" y="1391" on="1"/>
        <pt x="426" y="1391" on="0"/>
        <pt x="215" y="1054" on="0"/>
        <pt x="215" y="733" on="1"/>
        <pt x="215" y="419" on="0"/>
        <pt x="428" y="74" on="0"/>
        <pt x="623" y="74" on="1"/>
        <pt x="763" y="74" on="0"/>
        <pt x="862" y="111" on="1"/>
        <pt x="862" y="643" on="1"/>
        <pt x="641" y="643" on="1"/>
      </contour>
    </TTGlyph>
    <TTGlyph name="Gamma" xMin="160" yMin="0" xMax="670" yMax="1462">
      <contour>
        <pt x="670" y="1462" on="1"/>
        <pt x="670" y="1368" on="1"/>
        <pt x="258" y="1368" on="1"/>
        <pt x="258" y="0" on="1"/>
        <pt x="160" y="0" on="1"/>
        <pt x="160" y="1462" on="1"/>
      </contour>
    </TTGlyph>
    <TTGlyph name="Gbreve" xMin="111" yMin="-20" xMax="961" yMax="1817">
      <component glyphName="G" x="0" y="0" flags="0x204"/>
      <component glyphName="breve" x="33" y="338" flags="0x4"/>
    </TTGlyph>
    <TTGlyph name="Gcircumflex" xMin="111" yMin="-20" xMax="961" yMax="1907">
      <component glyphName="G" x="0" y="0" flags="0x204"/>
      <component glyphName="circumflex" x="35" y="338" flags="0x4"/>
    </TTGlyph>
    <TTGlyph name="Gcommaaccent" xMin="111" yMin="-453" xMax="961" yMax="1483">
      <component glyphName="G" x="0" y="0" flags="0x204"/>
      <component glyphName="commaaccent" x="117" y="0" flags="0x4"/>
    </TTGlyph>
    <TTGlyph name="Gdot" xMin="111" yMin="-20" xMax="961" yMax="1819">
      <component glyphName="G" x="0" y="0" flags="0x204"/>
      <component glyphName="dotaccent" x="432" y="338" flags="0x4"/>
    </TTGlyph>
    <TTGlyph name="H" xMin="160" yMin="0" xMax="866" yMax="1462">
      <contour>
        <pt x="866" y="0" on="1"/>
        <pt x="768" y="0" on="1"/>
        <pt x="768" y="719" on="1"/>
        <pt x="258" y="719" on="1"/>
        <pt x="258" y="0" on="1"/>
        <pt x="160" y="0" on="1"/>
        <pt x="160" y="1462" on="1"/>
        <pt x="258" y="1462" on="1"/>
        <pt x="258" y="813" on="1"/>
        <pt x="768" y="813" on="1"/>
        <pt x="768" y="1462" on="1"/>
        <pt x="866" y="1462" on="1"/>
      </contour>
    </TTGlyph>
    <TTGlyph name="Hbar" xMin="0" yMin="0" xMax="1026" yMax="1462">
      <contour>
        <pt x="866" y="1184" on="1"/>
        <pt x="1026" y="1184" on="1"/>
        <pt x="1026" y="1094" on="1"/>
        <pt x="866" y="1094" on="1"/>
        <pt x="866" y="0" on="1"/>
        <pt x="768" y="0" on="1"/>
        <pt x="768" y="717" on="1"/>
        <pt x="258" y="717" on="1"/>
        <pt x="258" y="0" on="1"/>
        <pt x="160" y="0" on="1"/>
        <pt x="160" y="1094" on="1"/>
        <pt x="0" y="1094" on="1"/>
        <pt x="0" y="1184" on="1"/>
        <pt x="160" y="1184" on="1"/>
        <pt x="160" y="1462" on="1"/>
        <pt x="258" y="1462" on="1"/>
        <pt x="258" y="1184" on="1"/>
        <pt x="768" y="1184" on="1"/>
        <pt x="768" y="1462" on="1"/>
        <pt x="866" y="1462" on="1"/>
      </contour>
      <contour>
        <pt x="768" y="815" on="1"/>
        <pt x="768" y="1094" on="1"/>
        <pt x="258" y="1094" on="1"/>
        <pt x="258" y="815" on="1"/>
      </contour>
    </TTGlyph>
    <TTGlyph name="Hcircumflex" xMin="160" yMin="0" xMax="866" yMax="1907">
      <component glyphName="H" x="0" y="0" flags="0x204"/>
      <component glyphName="circumflex" x="-65" y="338" flags="0x4"/>
    </TTGlyph>
    <TTGlyph name="I" xMin="160" yMin="0" xMax="258" yMax="1462">
      <contour>
        <pt x="160" y="0" on="1"/>
        <pt x="160" y="1462" on="1"/>
        <pt x="258" y="1462" on="1"/>
        <pt x="258" y="0" on="1"/>
      </contour>
    </TTGlyph>
    <TTGlyph name="I.alt" xMin="66" yMin="0" xMax="406" yMax="1462">
      <contour>
        <pt x="406" y="0" on="1"/>
        <pt x="66" y="0" on="1"/>
        <pt x="66" y="76" on="1"/>
        <pt x="186" y="90" on="1"/>
        <pt x="186" y="1370" on="1"/>
        <pt x="66" y="1386" on="1"/>
        <pt x="66" y="1462" on="1"/>
        <pt x="406" y="1462" on="1"/>
        <pt x="406" y="1386" on="1"/>
        <pt x="285" y="1370" on="1"/>
        <pt x="285" y="90" on="1"/>
        <pt x="406" y="76" on="1"/>
      </contour>
    </TTGlyph>
    <TTGlyph name="IJ" xMin="160" yMin="-369" xMax="666" yMax="1462">
      <component glyphName="I" x="0" y="0" flags="0x4"/>
      <component glyphName="J" x="418" y="0" flags="0x4"/>
    </TTGlyph>
    <TTGlyph name="IJ.alt" xMin="66" yMin="-369" xMax="719" yMax="1462">
      <component glyphName="I.alt" x="0" y="0" flags="0x4"/>
      <component glyphName="J" x="471" y="0" flags="0x4"/>
    </TTGlyph>
    <TTGlyph name="Iacute" xMin="154" yMin="0" xMax="470" yMax="1907">
      <component glyphName="I" x="0" y="0" flags="0x204"/>
      <component glyphName="acute" x="-280" y="338" flags="0x4"/>
    </TTGlyph>
    <TTGlyph name="Iacute.alt" xMin="66" yMin="0" xMax="470" yMax="1907">
      <component glyphName="I.alt" x="0" y="0" flags="0x204"/>
      <component glyphName="acute" x="-280" y="338" flags="0x4"/>
    </TTGlyph>
    <TTGlyph name="Ibreve" xMin="-8" yMin="0" xMax="427" yMax="1817">
      <component glyphName="I" x="0" y="0" flags="0x204"/>
      <component glyphName="breve" x="-368" y="338" flags="0x4"/>
    </TTGlyph>
    <TTGlyph name="Ibreve.alt" xMin="19" yMin="0" xMax="454" yMax="1817">
      <component glyphName="I.alt" x="0" y="0" flags="0x204"/>
      <component glyphName="breve" x="-341" y="338" flags="0x4"/>
    </TTGlyph>
    <TTGlyph name="Icircumflex" xMin="-26" yMin="0" xMax="445" yMax="1907">
      <component glyphName="I" x="0" y="0" flags="0x204"/>
      <component glyphName="circumflex" x="-368" y="338" flags="0x4"/>
    </TTGlyph>
    <TTGlyph name="Icircumflex.alt" xMin="1" yMin="0" xMax="472" yMax="1907">
      <component glyphName="I.alt" x="0" y="0" flags="0x204"/>
      <component glyphName="circumflex" x="-341" y="338" flags="0x4"/>
    </TTGlyph>
    <TTGlyph name="Idieresis" xMin="-5" yMin="0" xMax="425" yMax="1808">
      <component glyphName="I" x="0" y="0" flags="0x204"/>
      <component glyphName="dieresis" x="-353" y="338" flags="0x4"/>
    </TTGlyph>
    <TTGlyph name="Idieresis.alt" xMin="21" yMin="0" xMax="451" yMax="1808">
      <component glyphName="I.alt" x="0" y="0" flags="0x204"/>
      <component glyphName="dieresis" x="-327" y="338" flags="0x4"/>
    </TTGlyph>
    <TTGlyph name="Idotaccent" xMin="147" yMin="0" xMax="272" yMax="1819">
      <component glyphName="I" x="0" y="0" flags="0x204"/>
      <component glyphName="dotaccent" x="16" y="338" flags="0x4"/>
    </TTGlyph>
    <TTGlyph name="Idotaccent.alt" xMin="66" yMin="0" xMax="406" yMax="1819">
      <component glyphName="I.alt" x="0" y="0" flags="0x204"/>
      <component glyphName="dotaccent" x="43" y="338" flags="0x4"/>
    </TTGlyph>
    <TTGlyph name="Igrave" xMin="-34" yMin="0" xMax="282" yMax="1907">
      <component glyphName="I" x="0" y="0" flags="0x204"/>
      <component glyphName="grave" x="-468" y="338" flags="0x4"/>
    </TTGlyph>
    <TTGlyph name="Igrave.alt" xMin="7" yMin="0" xMax="406" yMax="1907">
      <component glyphName="I.alt" x="0" y="0" flags="0x204"/>
      <component glyphName="grave" x="-427" y="338" flags="0x4"/>
    </TTGlyph>
    <TTGlyph name="Imacron" xMin="-15" yMin="0" xMax="437" yMax="1671">
      <component glyphName="I" x="0" y="0" flags="0x204"/>
      <component glyphName="macron" x="-345" y="338" flags="0x4"/>
    </TTGlyph>
    <TTGlyph name="Imacron.alt" xMin="12" yMin="0" xMax="464" yMax="1671">
      <component glyphName="I.alt" x="0" y="0" flags="0x204"/>
      <component glyphName="macron" x="-318" y="338" flags="0x4"/>
    </TTGlyph>
    <TTGlyph name="Iogonek" xMin="38" yMin="-446" xMax="281" yMax="1462">
      <component glyphName="I" x="0" y="0" flags="0x204"/>
      <component glyphName="ogonek" x="-30" y="0" flags="0x4"/>
    </TTGlyph>
    <TTGlyph name="Iogonek.alt" xMin="66" yMin="-446" xMax="406" yMax="1462">
      <component glyphName="I.alt" x="0" y="0" flags="0x204"/>
      <component glyphName="ogonek" x="8" y="0" flags="0x4"/>
    </TTGlyph>
    <TTGlyph name="Iota" xMin="160" yMin="0" xMax="258" yMax="1462">
      <component glyphName="I" x="0" y="0" flags="0x204"/>
    </TTGlyph>
    <TTGlyph name="Iota.alt" xMin="66" yMin="0" xMax="406" yMax="1462">
      <component glyphName="I.alt" x="0" y="0" flags="0x204"/>
    </TTGlyph>
    <TTGlyph name="Iotadieresis" xMin="-5" yMin="0" xMax="425" yMax="1808">
      <component glyphName="I" x="0" y="0" flags="0x204"/>
      <component glyphName="dieresis" x="-353" y="338" flags="0x4"/>
    </TTGlyph>
    <TTGlyph name="Iotadieresis.alt" xMin="11" yMin="0" xMax="441" yMax="1808">
      <component glyphName="I.alt" x="-9" y="0" flags="0x4"/>
      <component glyphName="dieresis" x="-337" y="338" flags="0x4"/>
    </TTGlyph>
    <TTGlyph name="Iotatonos" xMin="1" yMin="0" xMax="399" yMax="1505">
      <component glyphName="I" x="141" y="0" flags="0x4"/>
      <component glyphName="tonos" x="-536" y="-105" flags="0x4"/>
    </TTGlyph>
    <TTGlyph name="Iotatonos.alt" xMin="1" yMin="0" xMax="629" yMax="1505">
      <component glyphName="I.alt" x="223" y="0" flags="0x4"/>
      <component glyphName="tonos" x="-536" y="-105" flags="0x4"/>
    </TTGlyph>
    <TTGlyph name="Itilde" xMin="-71" yMin="0" xMax="490" yMax="1792">
      <component glyphName="I" x="0" y="0" flags="0x204"/>
      <component glyphName="tilde" x="-368" y="338" flags="0x4"/>
    </TTGlyph>
    <TTGlyph name="Itilde.alt" xMin="-40" yMin="0" xMax="521" yMax="1792">
      <component glyphName="I.alt" x="0" y="0" flags="0x204"/>
      <component glyphName="tilde" x="-337" y="338" flags="0x4"/>
    </TTGlyph>
    <TTGlyph name="J" xMin="-90" yMin="-369" xMax="248" yMax="1462">
      <contour>
        <pt x="27" y="-369" on="1"/>
        <pt x="-40" y="-369" on="0"/>
        <pt x="-90" y="-344" on="1"/>
        <pt x="-90" y="-252" on="1"/>
        <pt x="-41" y="-272" on="0"/>
        <pt x="25" y="-272" on="1"/>
        <pt x="88" y="-272" on="0"/>
        <pt x="150" y="-157" on="0"/>
        <pt x="150" y="-25" on="1"/>
        <pt x="150" y="1462" on="1"/>
        <pt x="248" y="1462" on="1"/>
        <pt x="248" y="-23" on="1"/>
        <pt x="248" y="-195" on="0"/>
        <pt x="136" y="-369" on="0"/>
      </contour>
    </TTGlyph>
    <TTGlyph name="Jcircumflex" xMin="-90" yMin="-369" xMax="433" yMax="1907">
      <component glyphName="J" x="0" y="0" flags="0x204"/>
      <component glyphName="circumflex" x="-380" y="338" flags="0x4"/>
    </TTGlyph>
    <TTGlyph name="K" xMin="160" yMin="0" xMax="825" yMax="1462">
      <contour>
        <pt x="825" y="0" on="1"/>
        <pt x="715" y="0" on="1"/>
        <pt x="371" y="729" on="1"/>
        <pt x="258" y="580" on="1"/>
        <pt x="258" y="0" on="1"/>
        <pt x="160" y="0" on="1"/>
        <pt x="160" y="1462" on="1"/>
        <pt x="258" y="1462" on="1"/>
        <pt x="258" y="688" on="1"/>
        <pt x="309" y="784" on="0"/>
        <pt x="690" y="1462" on="1"/>
        <pt x="797" y="1462" on="1"/>
        <pt x="430" y="819" on="1"/>
      </contour>
    </TTGlyph>
    <TTGlyph name="Kappa" xMin="160" yMin="0" xMax="825" yMax="1462">
      <component glyphName="K" x="0" y="0" flags="0x204"/>
    </TTGlyph>
    <TTGlyph name="Kcommaaccent" xMin="160" yMin="-453" xMax="825" yMax="1462">
      <component glyphName="K" x="0" y="0" flags="0x204"/>
      <component glyphName="commaaccent" x="-46" y="0" flags="0x4"/>
    </TTGlyph>
    <TTGlyph name="L" xMin="160" yMin="0" xMax="670" yMax="1462">
      <contour>
        <pt x="160" y="0" on="1"/>
        <pt x="160" y="1462" on="1"/>
        <pt x="258" y="1462" on="1"/>
        <pt x="258" y="94" on="1"/>
        <pt x="670" y="94" on="1"/>
        <pt x="670" y="0" on="1"/>
      </contour>
    </TTGlyph>
    <TTGlyph name="Lacute" xMin="160" yMin="0" xMax="670" yMax="1907">
      <component glyphName="L" x="0" y="0" flags="0x204"/>
      <component glyphName="acute" x="-249" y="338" flags="0x4"/>
    </TTGlyph>
    <TTGlyph name="Lambda" xMin="0" yMin="0" xMax="813" yMax="1462">
      <contour>
        <pt x="401" y="1348" on="1"/>
        <pt x="393" y="1264" on="0"/>
        <pt x="373" y="1174" on="1"/>
        <pt x="102" y="0" on="1"/>
        <pt x="0" y="0" on="1"/>
        <pt x="352" y="1462" on="1"/>
        <pt x="453" y="1462" on="1"/>
        <pt x="813" y="0" on="1"/>
        <pt x="713" y="0" on="1"/>
        <pt x="432" y="1174" on="1"/>
        <pt x="412" y="1266" on="0"/>
      </contour>
    </TTGlyph>
    <TTGlyph name="Lcaron" xMin="160" yMin="0" xMax="670" yMax="1463">
      <component glyphName="L" x="0" y="0" flags="0x204"/>
      <component glyphName="caroncommaaccent" x="0" y="-93" flags="0x4"/>
    </TTGlyph>
    <TTGlyph name="Lcommaaccent" xMin="160" yMin="-453" xMax="670" yMax="1462">
      <component glyphName="L" x="0" y="0" flags="0x204"/>
      <component glyphName="commaaccent" x="-112" y="0" flags="0x4"/>
    </TTGlyph>
    <TTGlyph name="Ldot" xMin="160" yMin="0" xMax="670" yMax="1462">
      <component glyphName="L" x="0" y="0" flags="0x204"/>
      <component glyphName="dotaccent" x="369" y="-679" flags="0x4"/>
    </TTGlyph>
    <TTGlyph name="Lslash" xMin="6" yMin="0" xMax="670" yMax="1462">
      <contour>
        <pt x="160" y="0" on="1"/>
        <pt x="160" y="502" on="1"/>
        <pt x="158" y="502" on="1"/>
        <pt x="53" y="438" on="1"/>
        <pt x="6" y="510" on="1"/>
        <pt x="160" y="602" on="1"/>
        <pt x="160" y="1462" on="1"/>
        <pt x="258" y="1462" on="1"/>
        <pt x="258" y="659" on="1"/>
        <pt x="518" y="815" on="1"/>
        <pt x="563" y="739" on="1"/>
        <pt x="258" y="559" on="1"/>
        <pt x="258" y="94" on="1"/>
        <pt x="670" y="94" on="1"/>
        <pt x="670" y="0" on="1"/>
      </contour>
    </TTGlyph>
    <TTGlyph name="M" xMin="160" yMin="0" xMax="1235" yMax="1462">
      <contour>
        <pt x="641" y="0" on="1"/>
        <pt x="252" y="1331" on="1"/>
        <pt x="244" y="1331" on="1"/>
        <pt x="254" y="1121" on="0"/>
        <pt x="254" y="1065" on="1"/>
        <pt x="254" y="0" on="1"/>
        <pt x="160" y="0" on="1"/>
        <pt x="160" y="1462" on="1"/>
        <pt x="305" y="1462" on="1"/>
        <pt x="633" y="344" on="1"/>
        <pt x="677" y="196" on="0"/>
        <pt x="690" y="92" on="1"/>
        <pt x="698" y="92" on="1"/>
        <pt x="708" y="166" on="0"/>
        <pt x="760" y="342" on="1"/>
        <pt x="1085" y="1462" on="1"/>
        <pt x="1235" y="1462" on="1"/>
        <pt x="1235" y="0" on="1"/>
        <pt x="1137" y="0" on="1"/>
        <pt x="1137" y="1057" on="1"/>
        <pt x="1137" y="1119" on="0"/>
        <pt x="1147" y="1329" on="1"/>
        <pt x="1139" y="1329" on="1"/>
        <pt x="752" y="0" on="1"/>
      </contour>
    </TTGlyph>
    <TTGlyph name="Mu" xMin="160" yMin="0" xMax="1235" yMax="1462">
      <component glyphName="M" x="0" y="0" flags="0x204"/>
    </TTGlyph>
    <TTGlyph name="N" xMin="160" yMin="0" xMax="930" yMax="1462">
      <contour>
        <pt x="930" y="0" on="1"/>
        <pt x="805" y="0" on="1"/>
        <pt x="252" y="1311" on="1"/>
        <pt x="244" y="1311" on="1"/>
        <pt x="256" y="1175" on="0"/>
        <pt x="256" y="1049" on="1"/>
        <pt x="256" y="0" on="1"/>
        <pt x="160" y="0" on="1"/>
        <pt x="160" y="1462" on="1"/>
        <pt x="287" y="1462" on="1"/>
        <pt x="836" y="166" on="1"/>
        <pt x="842" y="166" on="1"/>
        <pt x="834" y="330" on="0"/>
        <pt x="834" y="440" on="1"/>
        <pt x="834" y="1462" on="1"/>
        <pt x="930" y="1462" on="1"/>
      </contour>
    </TTGlyph>
    <TTGlyph name="Nacute" xMin="160" yMin="0" xMax="930" yMax="1907">
      <component glyphName="N" x="0" y="0" flags="0x204"/>
      <component glyphName="acute" x="45" y="338" flags="0x4"/>
    </TTGlyph>
    <TTGlyph name="Ncaron" xMin="160" yMin="0" xMax="930" yMax="1907">
      <component glyphName="N" x="0" y="0" flags="0x204"/>
      <component glyphName="caron" x="-58" y="338" flags="0x4"/>
    </TTGlyph>
    <TTGlyph name="Ncommaaccent" xMin="160" yMin="-453" xMax="930" yMax="1462">
      <component glyphName="N" x="0" y="0" flags="0x204"/>
      <component glyphName="commaaccent" x="10" y="0" flags="0x4"/>
    </TTGlyph>
    <TTGlyph name="Ntilde" xMin="160" yMin="0" xMax="930" yMax="1792">
      <component glyphName="N" x="0" y="0" flags="0x204"/>
      <component glyphName="tilde" x="-13" y="338" flags="0x4"/>
    </TTGlyph>
    <TTGlyph name="Nu" xMin="160" yMin="0" xMax="930" yMax="1462">
      <component glyphName="N" x="0" y="0" flags="0x204"/>
    </TTGlyph>
    <TTGlyph name="O" xMin="111" yMin="-20" xMax="954" yMax="1483">
      <contour>
        <pt x="954" y="733" on="1"/>
        <pt x="954" y="370" on="0"/>
        <pt x="737" y="-20" on="0"/>
        <pt x="532" y="-20" on="1"/>
        <pt x="325" y="-20" on="0"/>
        <pt x="111" y="373" on="0"/>
        <pt x="111" y="735" on="1"/>
        <pt x="111" y="1113" on="0"/>
        <pt x="323" y="1483" on="0"/>
        <pt x="535" y="1483" on="1"/>
        <pt x="739" y="1483" on="0"/>
        <pt x="954" y="1094" on="0"/>
      </contour>
      <contour>
        <pt x="213" y="733" on="1"/>
        <pt x="213" y="407" on="0"/>
        <pt x="376" y="74" on="0"/>
        <pt x="532" y="74" on="1"/>
        <pt x="689" y="74" on="0"/>
        <pt x="852" y="404" on="0"/>
        <pt x="852" y="733" on="1"/>
        <pt x="852" y="1058" on="0"/>
        <pt x="692" y="1389" on="0"/>
        <pt x="535" y="1389" on="1"/>
        <pt x="374" y="1389" on="0"/>
        <pt x="213" y="1054" on="0"/>
      </contour>
    </TTGlyph>
    <TTGlyph name="OE" xMin="111" yMin="-6" xMax="1135" yMax="1468">
      <contour>
        <pt x="1135" y="0" on="1"/>
        <pt x="711" y="0" on="1"/>
        <pt x="586" y="-6" on="1"/>
        <pt x="111" y="-6" on="0"/>
        <pt x="111" y="735" on="1"/>
        <pt x="111" y="1099" on="0"/>
        <pt x="358" y="1468" on="0"/>
        <pt x="594" y="1468" on="1"/>
        <pt x="709" y="1462" on="1"/>
        <pt x="1135" y="1462" on="1"/>
        <pt x="1135" y="1368" on="1"/>
        <pt x="702" y="1368" on="1"/>
        <pt x="702" y="813" on="1"/>
        <pt x="1110" y="813" on="1"/>
        <pt x="1110" y="719" on="1"/>
        <pt x="702" y="719" on="1"/>
        <pt x="702" y="94" on="1"/>
        <pt x="1135" y="94" on="1"/>
      </contour>
      <contour>
        <pt x="215" y="733" on="1"/>
        <pt x="215" y="393" on="0"/>
        <pt x="400" y="88" on="0"/>
        <pt x="604" y="88" on="1"/>
        <pt x="604" y="1374" on="1"/>
        <pt x="402" y="1374" on="0"/>
        <pt x="215" y="1074" on="0"/>
      </contour>
    </TTGlyph>
    <TTGlyph name="Oacute" xMin="111" yMin="-20" xMax="954" yMax="1907">
      <component glyphName="O" x="0" y="0" flags="0x204"/>
      <component glyphName="acute" x="25" y="338" flags="0x4"/>
    </TTGlyph>
    <TTGlyph name="Obreve" xMin="111" yMin="-20" xMax="954" yMax="1817">
      <component glyphName="O" x="0" y="0" flags="0x204"/>
      <component glyphName="breve" x="-38" y="338" flags="0x4"/>
    </TTGlyph>
    <TTGlyph name="Ocircumflex" xMin="111" yMin="-20" xMax="954" yMax="1907">
      <component glyphName="O" x="0" y="0" flags="0x204"/>
      <component glyphName="circumflex" x="-46" y="338" flags="0x4"/>
    </TTGlyph>
    <TTGlyph name="Odieresis" xMin="111" yMin="-20" xMax="954" yMax="1808">
      <component glyphName="O" x="0" y="0" flags="0x204"/>
      <component glyphName="dieresis" x="-22" y="338" flags="0x4"/>
    </TTGlyph>
    <TTGlyph name="Ograve" xMin="111" yMin="-20" xMax="954" yMax="1907">
      <component glyphName="O" x="0" y="0" flags="0x204"/>
      <component glyphName="grave" x="-151" y="338" flags="0x4"/>
    </TTGlyph>
    <TTGlyph name="Ohorn" xMin="111" yMin="-20" xMax="1102" yMax="1556">
      <contour>
        <pt x="954" y="733" on="1"/>
        <pt x="954" y="370" on="0"/>
        <pt x="737" y="-20" on="0"/>
        <pt x="532" y="-20" on="1"/>
        <pt x="325" y="-20" on="0"/>
        <pt x="111" y="373" on="0"/>
        <pt x="111" y="735" on="1"/>
        <pt x="111" y="1113" on="0"/>
        <pt x="323" y="1483" on="0"/>
        <pt x="535" y="1483" on="1"/>
        <pt x="748" y="1483" on="0"/>
        <pt x="858" y="1266" on="1"/>
        <pt x="932" y="1282" on="0"/>
        <pt x="997" y="1415" on="0"/>
        <pt x="999" y="1556" on="1"/>
        <pt x="1085" y="1556" on="1"/>
        <pt x="1102" y="1530" on="1"/>
        <pt x="1093" y="1384" on="0"/>
        <pt x="987" y="1218" on="0"/>
        <pt x="891" y="1188" on="1"/>
        <pt x="954" y="1009" on="0"/>
      </contour>
      <contour>
        <pt x="213" y="733" on="1"/>
        <pt x="213" y="407" on="0"/>
        <pt x="376" y="74" on="0"/>
        <pt x="532" y="74" on="1"/>
        <pt x="689" y="74" on="0"/>
        <pt x="852" y="404" on="0"/>
        <pt x="852" y="733" on="1"/>
        <pt x="852" y="1058" on="0"/>
        <pt x="692" y="1389" on="0"/>
        <pt x="535" y="1389" on="1"/>
        <pt x="374" y="1389" on="0"/>
        <pt x="213" y="1054" on="0"/>
      </contour>
    </TTGlyph>
    <TTGlyph name="Ohungarumlaut" xMin="111" yMin="-20" xMax="954" yMax="1907">
      <component glyphName="O" x="0" y="0" flags="0x204"/>
      <component glyphName="hungarumlaut" x="66" y="338" flags="0x4"/>
    </TTGlyph>
    <TTGlyph name="Omacron" xMin="111" yMin="-20" xMax="954" yMax="1671">
      <component glyphName="O" x="0" y="0" flags="0x204"/>
      <component glyphName="macron" x="-15" y="338" flags="0x4"/>
    </TTGlyph>
    <TTGlyph name="Omega" xMin="66" yMin="0" xMax="1016" yMax="1483">
      <component glyphName="uni03A9" x="0" y="0" flags="0x204"/>
    </TTGlyph>
    <TTGlyph name="Omegatonos" xMin="1" yMin="0" xMax="1118" yMax="1505">
      <component glyphName="uni03A9" x="102" y="0" flags="0x4"/>
      <component glyphName="tonos" x="-536" y="-105" flags="0x4"/>
    </TTGlyph>
    <TTGlyph name="Omicron" xMin="111" yMin="-20" xMax="954" yMax="1483">
      <component glyphName="O" x="0" y="0" flags="0x204"/>
    </TTGlyph>
    <TTGlyph name="Omicrontonos" xMin="1" yMin="-20" xMax="1056" yMax="1505">
      <component glyphName="O" x="102" y="0" flags="0x4"/>
      <component glyphName="tonos" x="-536" y="-105" flags="0x4"/>
    </TTGlyph>
    <TTGlyph name="Oslash" xMin="96" yMin="-94" xMax="983" yMax="1542">
      <contour>
        <pt x="954" y="733" on="1"/>
        <pt x="954" y="370" on="0"/>
        <pt x="737" y="-20" on="0"/>
        <pt x="532" y="-20" on="1"/>
        <pt x="374" y="-20" on="0"/>
        <pt x="272" y="94" on="1"/>
        <pt x="178" y="-94" on="1"/>
        <pt x="96" y="-57" on="1"/>
        <pt x="215" y="180" on="1"/>
        <pt x="111" y="374" on="0"/>
        <pt x="111" y="735" on="1"/>
        <pt x="111" y="1113" on="0"/>
        <pt x="323" y="1483" on="0"/>
        <pt x="535" y="1483" on="1"/>
        <pt x="699" y="1483" on="0"/>
        <pt x="805" y="1352" on="1"/>
        <pt x="901" y="1542" on="1"/>
        <pt x="983" y="1501" on="1"/>
        <pt x="860" y="1262" on="1"/>
        <pt x="954" y="1072" on="0"/>
      </contour>
      <contour>
        <pt x="213" y="733" on="1"/>
        <pt x="213" y="451" on="0"/>
        <pt x="272" y="293" on="1"/>
        <pt x="756" y="1251" on="1"/>
        <pt x="677" y="1389" on="0"/>
        <pt x="535" y="1389" on="1"/>
        <pt x="374" y="1389" on="0"/>
        <pt x="213" y="1054" on="0"/>
      </contour>
      <contour>
        <pt x="532" y="74" on="1"/>
        <pt x="689" y="74" on="0"/>
        <pt x="852" y="404" on="0"/>
        <pt x="852" y="733" on="1"/>
        <pt x="852" y="984" on="0"/>
        <pt x="803" y="1145" on="1"/>
        <pt x="322" y="190" on="1"/>
        <pt x="399" y="74" on="0"/>
      </contour>
    </TTGlyph>
    <TTGlyph name="Oslashacute" xMin="96" yMin="-94" xMax="983" yMax="1907">
      <component glyphName="Oslash" x="0" y="0" flags="0x204"/>
      <component glyphName="acute" x="-5" y="338" flags="0x4"/>
    </TTGlyph>
    <TTGlyph name="Otilde" xMin="111" yMin="-20" xMax="954" yMax="1792">
      <component glyphName="O" x="0" y="0" flags="0x204"/>
      <component glyphName="tilde" x="-36" y="338" flags="0x4"/>
    </TTGlyph>
    <TTGlyph name="P" xMin="160" yMin="0" xMax="772" yMax="1462">
      <contour>
        <pt x="772" y="1042" on="1"/>
        <pt x="772" y="816" on="0"/>
        <pt x="565" y="604" on="0"/>
        <pt x="362" y="604" on="1"/>
        <pt x="258" y="604" on="1"/>
        <pt x="258" y="0" on="1"/>
        <pt x="160" y="0" on="1"/>
        <pt x="160" y="1462" on="1"/>
        <pt x="360" y="1462" on="1"/>
        <pt x="574" y="1462" on="0"/>
        <pt x="772" y="1260" on="0"/>
      </contour>
      <contour>
        <pt x="258" y="694" on="1"/>
        <pt x="356" y="694" on="1"/>
        <pt x="528" y="694" on="0"/>
        <pt x="672" y="856" on="0"/>
        <pt x="672" y="1042" on="1"/>
        <pt x="672" y="1219" on="0"/>
        <pt x="523" y="1372" on="0"/>
        <pt x="367" y="1372" on="1"/>
        <pt x="258" y="1372" on="1"/>
      </contour>
    </TTGlyph>
    <TTGlyph name="Phi" xMin="106" yMin="-20" xMax="1098" yMax="1483">
      <contour>
        <pt x="553" y="1483" on="1"/>
        <pt x="651" y="1483" on="1"/>
        <pt x="651" y="1303" on="1"/>
        <pt x="861" y="1303" on="0"/>
        <pt x="1098" y="1015" on="0"/>
        <pt x="1098" y="766" on="1"/>
        <pt x="1098" y="507" on="0"/>
        <pt x="860" y="205" on="0"/>
        <pt x="651" y="205" on="1"/>
        <pt x="651" y="-20" on="1"/>
        <pt x="553" y="-20" on="1"/>
        <pt x="553" y="205" on="1"/>
        <pt x="415" y="205" on="0"/>
        <pt x="213" y="346" on="0"/>
        <pt x="106" y="602" on="0"/>
        <pt x="106" y="766" on="1"/>
        <pt x="106" y="919" on="0"/>
        <pt x="215" y="1165" on="0"/>
        <pt x="418" y="1303" on="0"/>
        <pt x="553" y="1303" on="1"/>
      </contour>
      <contour>
        <pt x="651" y="295" on="1"/>
        <pt x="819" y="295" on="0"/>
        <pt x="995" y="540" on="0"/>
        <pt x="995" y="766" on="1"/>
        <pt x="995" y="1212" on="0"/>
        <pt x="651" y="1212" on="1"/>
      </contour>
      <contour>
        <pt x="553" y="1212" on="1"/>
        <pt x="386" y="1212" on="0"/>
        <pt x="209" y="978" on="0"/>
        <pt x="209" y="766" on="1"/>
        <pt x="209" y="540" on="0"/>
        <pt x="385" y="295" on="0"/>
        <pt x="553" y="295" on="1"/>
      </contour>
    </TTGlyph>
    <TTGlyph name="Pi" xMin="160" yMin="0" xMax="866" yMax="1462">
      <contour>
        <pt x="866" y="0" on="1"/>
        <pt x="768" y="0" on="1"/>
        <pt x="768" y="1368" on="1"/>
        <pt x="258" y="1368" on="1"/>
        <pt x="258" y="0" on="1"/>
        <pt x="160" y="0" on="1"/>
        <pt x="160" y="1462" on="1"/>
        <pt x="866" y="1462" on="1"/>
      </contour>
    </TTGlyph>
    <TTGlyph name="Psi" xMin="143" yMin="0" xMax="1036" yMax="1462">
      <contour>
        <pt x="639" y="0" on="1"/>
        <pt x="541" y="0" on="1"/>
        <pt x="541" y="451" on="1"/>
        <pt x="331" y="451" on="0"/>
        <pt x="143" y="716" on="0"/>
        <pt x="143" y="1004" on="1"/>
        <pt x="143" y="1462" on="1"/>
        <pt x="242" y="1462" on="1"/>
        <pt x="242" y="1006" on="1"/>
        <pt x="242" y="839" on="0"/>
        <pt x="302" y="638" on="0"/>
        <pt x="426" y="545" on="0"/>
        <pt x="541" y="545" on="1"/>
        <pt x="541" y="1462" on="1"/>
        <pt x="639" y="1462" on="1"/>
        <pt x="639" y="545" on="1"/>
        <pt x="752" y="545" on="0"/>
        <pt x="878" y="636" on="0"/>
        <pt x="938" y="836" on="0"/>
        <pt x="938" y="1006" on="1"/>
        <pt x="938" y="1462" on="1"/>
        <pt x="1036" y="1462" on="1"/>
        <pt x="1036" y="1004" on="1"/>
        <pt x="1036" y="716" on="0"/>
        <pt x="848" y="451" on="0"/>
        <pt x="639" y="451" on="1"/>
      </contour>
    </TTGlyph>
    <TTGlyph name="Q" xMin="111" yMin="-348" xMax="954" yMax="1483">
      <contour>
        <pt x="893" y="-348" on="1"/>
        <pt x="768" y="-348" on="1"/>
        <pt x="582" y="-16" on="1"/>
        <pt x="532" y="-20" on="1"/>
        <pt x="325" y="-20" on="0"/>
        <pt x="111" y="373" on="0"/>
        <pt x="111" y="735" on="1"/>
        <pt x="111" y="1113" on="0"/>
        <pt x="323" y="1483" on="0"/>
        <pt x="535" y="1483" on="1"/>
        <pt x="739" y="1483" on="0"/>
        <pt x="954" y="1094" on="0"/>
        <pt x="954" y="733" on="1"/>
        <pt x="954" y="442" on="0"/>
        <pt x="813" y="72" on="0"/>
        <pt x="680" y="10" on="1"/>
      </contour>
      <contour>
        <pt x="213" y="733" on="1"/>
        <pt x="213" y="407" on="0"/>
        <pt x="376" y="74" on="0"/>
        <pt x="532" y="74" on="1"/>
        <pt x="689" y="74" on="0"/>
        <pt x="852" y="404" on="0"/>
        <pt x="852" y="733" on="1"/>
        <pt x="852" y="1058" on="0"/>
        <pt x="692" y="1389" on="0"/>
        <pt x="535" y="1389" on="1"/>
        <pt x="374" y="1389" on="0"/>
        <pt x="213" y="1054" on="0"/>
      </contour>
    </TTGlyph>
    <TTGlyph name="R" xMin="160" yMin="0" xMax="827" yMax="1462">
      <contour>
        <pt x="258" y="639" on="1"/>
        <pt x="258" y="0" on="1"/>
        <pt x="160" y="0" on="1"/>
        <pt x="160" y="1462" on="1"/>
        <pt x="360" y="1462" on="1"/>
        <pt x="574" y="1462" on="0"/>
        <pt x="772" y="1260" on="0"/>
        <pt x="772" y="1059" on="1"/>
        <pt x="772" y="907" on="0"/>
        <pt x="664" y="711" on="0"/>
        <pt x="537" y="662" on="1"/>
        <pt x="827" y="0" on="1"/>
        <pt x="717" y="0" on="1"/>
        <pt x="444" y="639" on="1"/>
      </contour>
      <contour>
        <pt x="258" y="729" on="1"/>
        <pt x="395" y="729" on="1"/>
        <pt x="528" y="729" on="0"/>
        <pt x="672" y="893" on="0"/>
        <pt x="672" y="1055" on="1"/>
        <pt x="672" y="1220" on="0"/>
        <pt x="525" y="1366" on="0"/>
        <pt x="367" y="1366" on="1"/>
        <pt x="258" y="1366" on="1"/>
      </contour>
    </TTGlyph>
    <TTGlyph name="Racute" xMin="160" yMin="0" xMax="827" yMax="1907">
      <component glyphName="R" x="0" y="0" flags="0x204"/>
      <component glyphName="acute" x="-79" y="338" flags="0x4"/>
    </TTGlyph>
    <TTGlyph name="Rcaron" xMin="160" yMin="0" xMax="827" yMax="1907">
      <component glyphName="R" x="0" y="0" flags="0x204"/>
      <component glyphName="caron" x="-140" y="338" flags="0x4"/>
    </TTGlyph>
    <TTGlyph name="Rcommaaccent" xMin="160" yMin="-453" xMax="827" yMax="1462">
      <component glyphName="R" x="0" y="0" flags="0x204"/>
      <component glyphName="commaaccent" x="-73" y="0" flags="0x4"/>
    </TTGlyph>
    <TTGlyph name="Rho" xMin="160" yMin="0" xMax="772" yMax="1462">
      <component glyphName="P" x="0" y="0" flags="0x204"/>
    </TTGlyph>
    <TTGlyph name="S" xMin="86" yMin="-20" xMax="721" yMax="1483">
      <contour>
        <pt x="721" y="383" on="1"/>
        <pt x="721" y="203" on="0"/>
        <pt x="521" y="-20" on="0"/>
        <pt x="367" y="-20" on="1"/>
        <pt x="192" y="-20" on="0"/>
        <pt x="86" y="31" on="1"/>
        <pt x="86" y="137" on="1"/>
        <pt x="138" y="108" on="0"/>
        <pt x="292" y="74" on="0"/>
        <pt x="367" y="74" on="1"/>
        <pt x="479" y="74" on="0"/>
        <pt x="623" y="244" on="0"/>
        <pt x="623" y="375" on="1"/>
        <pt x="623" y="496" on="0"/>
        <pt x="521" y="638" on="0"/>
        <pt x="377" y="709" on="1"/>
        <pt x="264" y="766" on="0"/>
        <pt x="152" y="873" on="0"/>
        <pt x="98" y="1015" on="0"/>
        <pt x="98" y="1114" on="1"/>
        <pt x="98" y="1222" on="0"/>
        <pt x="186" y="1390" on="0"/>
        <pt x="344" y="1483" on="0"/>
        <pt x="438" y="1483" on="1"/>
        <pt x="523" y="1483" on="0"/>
        <pt x="662" y="1445" on="0"/>
        <pt x="702" y="1423" on="1"/>
        <pt x="664" y="1329" on="1"/>
        <pt x="553" y="1386" on="0"/>
        <pt x="438" y="1386" on="1"/>
        <pt x="330" y="1386" on="0"/>
        <pt x="195" y="1239" on="0"/>
        <pt x="195" y="1118" on="1"/>
        <pt x="195" y="995" on="0"/>
        <pt x="293" y="859" on="0"/>
        <pt x="436" y="786" on="1"/>
        <pt x="584" y="714" on="0"/>
        <pt x="721" y="521" on="0"/>
      </contour>
    </TTGlyph>
    <TTGlyph name="Sacute" xMin="86" yMin="-20" xMax="721" yMax="1907">
      <component glyphName="S" x="0" y="0" flags="0x204"/>
      <component glyphName="acute" x="-54" y="338" flags="0x4"/>
    </TTGlyph>
    <TTGlyph name="Scaron" xMin="86" yMin="-20" xMax="721" yMax="1907">
      <component glyphName="S" x="0" y="0" flags="0x204"/>
      <component glyphName="caron" x="-138" y="338" flags="0x4"/>
    </TTGlyph>
    <TTGlyph name="Scedilla" xMin="86" yMin="-492" xMax="721" yMax="1483">
      <component glyphName="S" x="0" y="0" flags="0x204"/>
      <component glyphName="cedilla" x="117" y="0" flags="0x4"/>
    </TTGlyph>
    <TTGlyph name="Scircumflex" xMin="86" yMin="-20" xMax="721" yMax="1907">
      <component glyphName="S" x="0" y="0" flags="0x204"/>
      <component glyphName="circumflex" x="-151" y="338" flags="0x4"/>
    </TTGlyph>
    <TTGlyph name="Scommaaccent" xMin="86" yMin="-453" xMax="721" yMax="1483">
      <component glyphName="S" x="0" y="0" flags="0x204"/>
      <component glyphName="commaaccent" x="-140" y="0" flags="0x4"/>
    </TTGlyph>
    <TTGlyph name="Sigma" xMin="61" yMin="0" xMax="709" yMax="1462">
      <contour>
        <pt x="61" y="0" on="1"/>
        <pt x="61" y="84" on="1"/>
        <pt x="401" y="760" on="1"/>
        <pt x="74" y="1380" on="1"/>
        <pt x="74" y="1462" on="1"/>
        <pt x="678" y="1462" on="1"/>
        <pt x="678" y="1368" on="1"/>
        <pt x="186" y="1368" on="1"/>
        <pt x="512" y="760" on="1"/>
        <pt x="170" y="94" on="1"/>
        <pt x="709" y="94" on="1"/>
        <pt x="709" y="0" on="1"/>
      </contour>
    </TTGlyph>
    <TTGlyph name="T" xMin="14" yMin="0" xMax="694" yMax="1462">
      <contour>
        <pt x="403" y="0" on="1"/>
        <pt x="305" y="0" on="1"/>
        <pt x="305" y="1368" on="1"/>
        <pt x="14" y="1368" on="1"/>
        <pt x="14" y="1462" on="1"/>
        <pt x="694" y="1462" on="1"/>
        <pt x="694" y="1368" on="1"/>
        <pt x="403" y="1368" on="1"/>
      </contour>
    </TTGlyph>
    <TTGlyph name="Tau" xMin="14" yMin="0" xMax="694" yMax="1462">
      <component glyphName="T" x="0" y="0" flags="0x204"/>
    </TTGlyph>
    <TTGlyph name="Tbar" xMin="14" yMin="0" xMax="694" yMax="1462">
      <contour>
        <pt x="403" y="0" on="1"/>
        <pt x="305" y="0" on="1"/>
        <pt x="305" y="700" on="1"/>
        <pt x="80" y="700" on="1"/>
        <pt x="80" y="791" on="1"/>
        <pt x="305" y="791" on="1"/>
        <pt x="305" y="1366" on="1"/>
        <pt x="14" y="1366" on="1"/>
        <pt x="14" y="1462" on="1"/>
        <pt x="694" y="1462" on="1"/>
        <pt x="694" y="1366" on="1"/>
        <pt x="403" y="1366" on="1"/>
        <pt x="403" y="791" on="1"/>
        <pt x="629" y="791" on="1"/>
        <pt x="629" y="700" on="1"/>
        <pt x="403" y="700" on="1"/>
      </contour>
    </TTGlyph>
    <TTGlyph name="Tcaron" xMin="14" yMin="0" xMax="694" yMax="1907">
      <component glyphName="T" x="0" y="0" flags="0x204"/>
      <component glyphName="caron" x="-222" y="338" flags="0x4"/>
    </TTGlyph>
    <TTGlyph name="Tcedilla" xMin="14" yMin="-492" xMax="694" yMax="1462">
      <component glyphName="T" x="0" y="0" flags="0x204"/>
      <component glyphName="cedilla" x="125" y="0" flags="0x4"/>
    </TTGlyph>
    <TTGlyph name="Tcommaaccent" xMin="14" yMin="-453" xMax="694" yMax="1462">
      <component glyphName="T" x="0" y="0" flags="0x204"/>
      <component glyphName="commaaccent" x="-175" y="0" flags="0x4"/>
    </TTGlyph>
    <TTGlyph name="Theta" xMin="111" yMin="-20" xMax="954" yMax="1483">
      <contour>
        <pt x="954" y="733" on="1"/>
        <pt x="954" y="370" on="0"/>
        <pt x="737" y="-20" on="0"/>
        <pt x="532" y="-20" on="1"/>
        <pt x="325" y="-20" on="0"/>
        <pt x="111" y="373" on="0"/>
        <pt x="111" y="735" on="1"/>
        <pt x="111" y="1113" on="0"/>
        <pt x="323" y="1483" on="0"/>
        <pt x="535" y="1483" on="1"/>
        <pt x="739" y="1483" on="0"/>
        <pt x="954" y="1094" on="0"/>
      </contour>
      <contour>
        <pt x="213" y="733" on="1"/>
        <pt x="213" y="407" on="0"/>
        <pt x="376" y="74" on="0"/>
        <pt x="532" y="74" on="1"/>
        <pt x="689" y="74" on="0"/>
        <pt x="852" y="404" on="0"/>
        <pt x="852" y="733" on="1"/>
        <pt x="852" y="1058" on="0"/>
        <pt x="692" y="1389" on="0"/>
        <pt x="535" y="1389" on="1"/>
        <pt x="374" y="1389" on="0"/>
        <pt x="213" y="1054" on="0"/>
      </contour>
      <contour>
        <pt x="340" y="793" on="1"/>
        <pt x="725" y="793" on="1"/>
        <pt x="725" y="698" on="1"/>
        <pt x="340" y="698" on="1"/>
      </contour>
    </TTGlyph>
    <TTGlyph name="Thorn" xMin="160" yMin="0" xMax="772" yMax="1462">
      <contour>
        <pt x="772" y="784" on="1"/>
        <pt x="772" y="334" on="0"/>
        <pt x="365" y="334" on="1"/>
        <pt x="258" y="334" on="1"/>
        <pt x="258" y="0" on="1"/>
        <pt x="160" y="0" on="1"/>
        <pt x="160" y="1462" on="1"/>
        <pt x="258" y="1462" on="1"/>
        <pt x="258" y="1192" on="1"/>
        <pt x="360" y="1192" on="1"/>
        <pt x="574" y="1192" on="0"/>
        <pt x="772" y="994" on="0"/>
      </contour>
      <contour>
        <pt x="258" y="428" on="1"/>
        <pt x="356" y="428" on="1"/>
        <pt x="526" y="428" on="0"/>
        <pt x="672" y="583" on="0"/>
        <pt x="672" y="772" on="1"/>
        <pt x="672" y="945" on="0"/>
        <pt x="529" y="1096" on="0"/>
        <pt x="367" y="1096" on="1"/>
        <pt x="258" y="1096" on="1"/>
      </contour>
    </TTGlyph>
    <TTGlyph name="U" xMin="147" yMin="-20" xMax="864" yMax="1462">
      <contour>
        <pt x="864" y="1462" on="1"/>
        <pt x="864" y="475" on="1"/>
        <pt x="864" y="-20" on="0"/>
        <pt x="510" y="-20" on="1"/>
        <pt x="333" y="-20" on="0"/>
        <pt x="147" y="236" on="0"/>
        <pt x="147" y="475" on="1"/>
        <pt x="147" y="1462" on="1"/>
        <pt x="246" y="1462" on="1"/>
        <pt x="246" y="463" on="1"/>
        <pt x="246" y="273" on="0"/>
        <pt x="383" y="74" on="0"/>
        <pt x="510" y="74" on="1"/>
        <pt x="636" y="74" on="0"/>
        <pt x="766" y="273" on="0"/>
        <pt x="766" y="467" on="1"/>
        <pt x="766" y="1462" on="1"/>
      </contour>
    </TTGlyph>
    <TTGlyph name="Uacute" xMin="147" yMin="-20" xMax="864" yMax="1907">
      <component glyphName="U" x="0" y="0" flags="0x204"/>
      <component glyphName="acute" x="-11" y="338" flags="0x4"/>
    </TTGlyph>
    <TTGlyph name="Ubreve" xMin="147" yMin="-20" xMax="864" yMax="1817">
      <component glyphName="U" x="0" y="0" flags="0x204"/>
      <component glyphName="breve" x="-75" y="338" flags="0x4"/>
    </TTGlyph>
    <TTGlyph name="Ucircumflex" xMin="147" yMin="-20" xMax="864" yMax="1907">
      <component glyphName="U" x="0" y="0" flags="0x204"/>
      <component glyphName="circumflex" x="-71" y="338" flags="0x4"/>
    </TTGlyph>
    <TTGlyph name="Udieresis" xMin="147" yMin="-20" xMax="864" yMax="1808">
      <component glyphName="U" x="0" y="0" flags="0x204"/>
      <component glyphName="dieresis" x="-56" y="338" flags="0x4"/>
    </TTGlyph>
    <TTGlyph name="Ugrave" xMin="147" yMin="-20" xMax="864" yMax="1907">
      <component glyphName="U" x="0" y="0" flags="0x204"/>
      <component glyphName="grave" x="-157" y="338" flags="0x4"/>
    </TTGlyph>
    <TTGlyph name="Uhorn" xMin="147" yMin="-20" xMax="1126" yMax="1556">
      <contour>
        <pt x="864" y="475" on="1"/>
        <pt x="864" y="-20" on="0"/>
        <pt x="510" y="-20" on="1"/>
        <pt x="333" y="-20" on="0"/>
        <pt x="147" y="236" on="0"/>
        <pt x="147" y="475" on="1"/>
        <pt x="147" y="1462" on="1"/>
        <pt x="246" y="1462" on="1"/>
        <pt x="246" y="463" on="1"/>
        <pt x="246" y="273" on="0"/>
        <pt x="383" y="74" on="0"/>
        <pt x="510" y="74" on="1"/>
        <pt x="636" y="74" on="0"/>
        <pt x="766" y="273" on="0"/>
        <pt x="766" y="467" on="1"/>
        <pt x="766" y="1462" on="1"/>
        <pt x="864" y="1462" on="1"/>
        <pt x="864" y="1262" on="1"/>
        <pt x="952" y="1277" on="0"/>
        <pt x="1022" y="1409" on="0"/>
        <pt x="1024" y="1556" on="1"/>
        <pt x="1110" y="1556" on="1"/>
        <pt x="1126" y="1530" on="1"/>
        <pt x="1108" y="1211" on="0"/>
        <pt x="864" y="1176" on="1"/>
      </contour>
    </TTGlyph>
    <TTGlyph name="Uhungarumlaut" xMin="147" yMin="-20" xMax="864" yMax="1907">
      <component glyphName="U" x="0" y="0" flags="0x204"/>
      <component glyphName="hungarumlaut" x="0" y="338" flags="0x4"/>
    </TTGlyph>
    <TTGlyph name="Umacron" xMin="147" yMin="-20" xMax="864" yMax="1671">
      <component glyphName="U" x="0" y="0" flags="0x204"/>
      <component glyphName="macron" x="-34" y="338" flags="0x4"/>
    </TTGlyph>
    <TTGlyph name="Uogonek" xMin="147" yMin="-446" xMax="864" yMax="1462">
      <component glyphName="U" x="0" y="0" flags="0x204"/>
      <component glyphName="ogonek" x="326" y="0" flags="0x4"/>
    </TTGlyph>
    <TTGlyph name="Upsilon" xMin="0" yMin="0" xMax="686" yMax="1462">
      <component glyphName="Y" x="0" y="0" flags="0x204"/>
    </TTGlyph>
    <TTGlyph name="Upsilondieresis" xMin="0" yMin="0" xMax="686" yMax="1808">
      <component glyphName="Y" x="0" y="0" flags="0x204"/>
      <component glyphName="dieresis" x="-218" y="338" flags="0x4"/>
    </TTGlyph>
    <TTGlyph name="Upsilontonos" xMin="1" yMin="0" xMax="924" yMax="1505">
      <component glyphName="Y" x="238" y="0" flags="0x4"/>
      <component glyphName="tonos" x="-536" y="-105" flags="0x4"/>
    </TTGlyph>
    <TTGlyph name="Uring" xMin="147" yMin="-20" xMax="864" yMax="1962">
      <component glyphName="U" x="0" y="0" flags="0x204"/>
      <component glyphName="ring" x="-85" y="338" flags="0x4"/>
    </TTGlyph>
    <TTGlyph name="Utilde" xMin="147" yMin="-20" xMax="864" yMax="1792">
      <component glyphName="U" x="0" y="0" flags="0x204"/>
      <component glyphName="tilde" x="-62" y="338" flags="0x4"/>
    </TTGlyph>
    <TTGlyph name="V" xMin="0" yMin="0" xMax="799" yMax="1462">
      <contour>
        <pt x="698" y="1462" on="1"/>
        <pt x="799" y="1462" on="1"/>
        <pt x="453" y="0" on="1"/>
        <pt x="344" y="0" on="1"/>
        <pt x="0" y="1462" on="1"/>
        <pt x="102" y="1462" on="1"/>
        <pt x="340" y="434" on="1"/>
        <pt x="368" y="316" on="0"/>
        <pt x="386" y="205" on="0"/>
        <pt x="395" y="121" on="1"/>
        <pt x="403" y="179" on="0"/>
        <pt x="421" y="291" on="0"/>
        <pt x="438" y="368" on="0"/>
      </contour>
    </TTGlyph>
    <TTGlyph name="W" xMin="10" yMin="0" xMax="1384" yMax="1462">
      <contour>
        <pt x="1284" y="1462" on="1"/>
        <pt x="1384" y="1462" on="1"/>
        <pt x="1073" y="0" on="1"/>
        <pt x="954" y="0" on="1"/>
        <pt x="731" y="1094" on="1"/>
        <pt x="725" y="1121" on="0"/>
        <pt x="696" y="1333" on="1"/>
        <pt x="682" y="1238" on="1"/>
        <pt x="659" y="1096" on="1"/>
        <pt x="440" y="0" on="1"/>
        <pt x="324" y="0" on="1"/>
        <pt x="10" y="1462" on="1"/>
        <pt x="113" y="1462" on="1"/>
        <pt x="319" y="455" on="1"/>
        <pt x="367" y="209" on="0"/>
        <pt x="381" y="111" on="1"/>
        <pt x="403" y="271" on="0"/>
        <pt x="438" y="451" on="1"/>
        <pt x="643" y="1462" on="1"/>
        <pt x="754" y="1462" on="1"/>
        <pt x="958" y="455" on="1"/>
        <pt x="990" y="291" on="0"/>
        <pt x="1004" y="185" on="1"/>
        <pt x="1014" y="111" on="1"/>
        <pt x="1043" y="322" on="0"/>
        <pt x="1071" y="455" on="1"/>
      </contour>
    </TTGlyph>
    <TTGlyph name="Wacute" xMin="10" yMin="0" xMax="1384" yMax="1907">
      <component glyphName="W" x="0" y="0" flags="0x204"/>
      <component glyphName="acute" x="176" y="338" flags="0x4"/>
    </TTGlyph>
    <TTGlyph name="Wcircumflex" xMin="10" yMin="0" xMax="1384" yMax="1907">
      <component glyphName="W" x="0" y="0" flags="0x204"/>
      <component glyphName="circumflex" x="117" y="338" flags="0x4"/>
    </TTGlyph>
    <TTGlyph name="Wdieresis" xMin="10" yMin="0" xMax="1384" yMax="1808">
      <component glyphName="W" x="0" y="0" flags="0x204"/>
      <component glyphName="dieresis" x="133" y="338" flags="0x4"/>
    </TTGlyph>
    <TTGlyph name="Wgrave" xMin="10" yMin="0" xMax="1384" yMax="1907">
      <component glyphName="W" x="0" y="0" flags="0x204"/>
      <component glyphName="grave" x="43" y="338" flags="0x4"/>
    </TTGlyph>
    <TTGlyph name="X" xMin="20" yMin="0" xMax="694" yMax="1462">
      <contour>
        <pt x="694" y="0" on="1"/>
        <pt x="592" y="0" on="1"/>
        <pt x="373" y="672" on="1"/>
        <pt x="119" y="0" on="1"/>
        <pt x="20" y="0" on="1"/>
        <pt x="326" y="776" on="1"/>
        <pt x="63" y="1462" on="1"/>
        <pt x="166" y="1462" on="1"/>
        <pt x="383" y="854" on="1"/>
        <pt x="594" y="1462" on="1"/>
        <pt x="694" y="1462" on="1"/>
        <pt x="436" y="754" on="1"/>
      </contour>
    </TTGlyph>
    <TTGlyph name="Xi" xMin="98" yMin="0" xMax="659" yMax="1462">
      <contour>
        <pt x="119" y="1462" on="1"/>
        <pt x="639" y="1462" on="1"/>
        <pt x="639" y="1368" on="1"/>
        <pt x="119" y="1368" on="1"/>
      </contour>
      <contour>
        <pt x="659" y="94" on="1"/>
        <pt x="659" y="0" on="1"/>
        <pt x="98" y="0" on="1"/>
        <pt x="98" y="94" on="1"/>
      </contour>
      <contour>
        <pt x="156" y="813" on="1"/>
        <pt x="602" y="813" on="1"/>
        <pt x="602" y="719" on="1"/>
        <pt x="156" y="719" on="1"/>
      </contour>
    </TTGlyph>
    <TTGlyph name="Y" xMin="0" yMin="0" xMax="686" yMax="1462">
      <contour>
        <pt x="344" y="707" on="1"/>
        <pt x="582" y="1462" on="1"/>
        <pt x="686" y="1462" on="1"/>
        <pt x="391" y="571" on="1"/>
        <pt x="391" y="0" on="1"/>
        <pt x="293" y="0" on="1"/>
        <pt x="293" y="571" on="1"/>
        <pt x="0" y="1462" on="1"/>
        <pt x="104" y="1462" on="1"/>
      </contour>
    </TTGlyph>
    <TTGlyph name="Yacute" xMin="0" yMin="0" xMax="686" yMax="1907">
      <component glyphName="Y" x="0" y="0" flags="0x204"/>
      <component glyphName="acute" x="-163" y="338" flags="0x4"/>
    </TTGlyph>
    <TTGlyph name="Ycircumflex" xMin="0" yMin="0" xMax="686" yMax="1907">
      <component glyphName="Y" x="0" y="0" flags="0x204"/>
      <component glyphName="circumflex" x="-232" y="338" flags="0x4"/>
    </TTGlyph>
    <TTGlyph name="Ydieresis" xMin="0" yMin="0" xMax="686" yMax="1808">
      <component glyphName="Y" x="0" y="0" flags="0x204"/>
      <component glyphName="dieresis" x="-218" y="338" flags="0x4"/>
    </TTGlyph>
    <TTGlyph name="Ygrave" xMin="0" yMin="0" xMax="686" yMax="1907">
      <component glyphName="Y" x="0" y="0" flags="0x204"/>
      <component glyphName="grave" x="-292" y="338" flags="0x4"/>
    </TTGlyph>
    <TTGlyph name="Z" xMin="57" yMin="0" xMax="602" yMax="1462">
      <contour>
        <pt x="602" y="0" on="1"/>
        <pt x="57" y="0" on="1"/>
        <pt x="57" y="88" on="1"/>
        <pt x="481" y="1366" on="1"/>
        <pt x="63" y="1366" on="1"/>
        <pt x="63" y="1462" on="1"/>
        <pt x="590" y="1462" on="1"/>
        <pt x="590" y="1372" on="1"/>
        <pt x="160" y="94" on="1"/>
        <pt x="602" y="94" on="1"/>
      </contour>
    </TTGlyph>
    <TTGlyph name="Zacute" xMin="57" yMin="0" xMax="602" yMax="1907">
      <component glyphName="Z" x="0" y="0" flags="0x204"/>
      <component glyphName="acute" x="-196" y="338" flags="0x4"/>
    </TTGlyph>
    <TTGlyph name="Zcaron" xMin="57" yMin="0" xMax="602" yMax="1907">
      <component glyphName="Z" x="0" y="0" flags="0x204"/>
      <component glyphName="caron" x="-251" y="338" flags="0x4"/>
    </TTGlyph>
    <TTGlyph name="Zdotaccent" xMin="57" yMin="0" xMax="602" yMax="1819">
      <component glyphName="Z" x="0" y="0" flags="0x204"/>
      <component glyphName="dotaccent" x="113" y="338" flags="0x4"/>
    </TTGlyph>
    <TTGlyph name="Zeta" xMin="57" yMin="0" xMax="602" yMax="1462">
      <component glyphName="Z" x="0" y="0" flags="0x204"/>
    </TTGlyph>
    <TTGlyph name="a" xMin="78" yMin="-20" xMax="643" yMax="1106">
      <contour>
        <pt x="565" y="0" on="1"/>
        <pt x="553" y="152" on="1"/>
        <pt x="549" y="152" on="1"/>
        <pt x="471" y="-20" on="0"/>
        <pt x="313" y="-20" on="1"/>
        <pt x="207" y="-20" on="0"/>
        <pt x="78" y="149" on="0"/>
        <pt x="78" y="291" on="1"/>
        <pt x="78" y="446" on="0"/>
        <pt x="264" y="627" on="0"/>
        <pt x="432" y="635" on="1"/>
        <pt x="549" y="641" on="1"/>
        <pt x="549" y="731" on="1"/>
        <pt x="549" y="883" on="0"/>
        <pt x="473" y="1022" on="0"/>
        <pt x="385" y="1022" on="1"/>
        <pt x="292" y="1022" on="0"/>
        <pt x="195" y="961" on="1"/>
        <pt x="154" y="1036" on="1"/>
        <pt x="267" y="1106" on="0"/>
        <pt x="391" y="1106" on="1"/>
        <pt x="525" y="1106" on="0"/>
        <pt x="643" y="937" on="0"/>
        <pt x="643" y="739" on="1"/>
        <pt x="643" y="0" on="1"/>
      </contour>
      <contour>
        <pt x="334" y="61" on="1"/>
        <pt x="436" y="61" on="0"/>
        <pt x="549" y="262" on="0"/>
        <pt x="549" y="446" on="1"/>
        <pt x="549" y="559" on="1"/>
        <pt x="436" y="553" on="1"/>
        <pt x="305" y="546" on="0"/>
        <pt x="178" y="415" on="0"/>
        <pt x="178" y="289" on="1"/>
        <pt x="178" y="171" on="0"/>
        <pt x="262" y="61" on="0"/>
      </contour>
    </TTGlyph>
    <TTGlyph name="aacute" xMin="78" yMin="-20" xMax="643" yMax="1569">
      <component glyphName="a" x="0" y="0" flags="0x204"/>
      <component glyphName="acute" x="-144" y="0" flags="0x4"/>
    </TTGlyph>
    <TTGlyph name="abreve" xMin="78" yMin="-20" xMax="643" yMax="1479">
      <component glyphName="a" x="0" y="0" flags="0x204"/>
      <component glyphName="breve" x="-185" y="0" flags="0x4"/>
    </TTGlyph>
    <TTGlyph name="acircumflex" xMin="78" yMin="-20" xMax="643" yMax="1571">
      <component glyphName="a" x="0" y="0" flags="0x204"/>
      <component glyphName="circumflex" x="-192" y="2" flags="0x4"/>
    </TTGlyph>
    <TTGlyph name="acute" xMin="434" yMin="1241" xMax="750" yMax="1569">
      <contour>
        <pt x="434" y="1241" on="1"/>
        <pt x="434" y="1262" on="1"/>
        <pt x="561" y="1428" on="0"/>
        <pt x="625" y="1569" on="1"/>
        <pt x="750" y="1569" on="1"/>
        <pt x="750" y="1552" on="1"/>
        <pt x="711" y="1482" on="0"/>
        <pt x="552" y="1300" on="0"/>
        <pt x="481" y="1241" on="1"/>
      </contour>
    </TTGlyph>
    <TTGlyph name="adieresis" xMin="78" yMin="-20" xMax="643" yMax="1470">
      <component glyphName="a" x="0" y="0" flags="0x204"/>
      <component glyphName="dieresis" x="-183" y="0" flags="0x4"/>
    </TTGlyph>
    <TTGlyph name="ae" xMin="78" yMin="-20" xMax="1163" yMax="1106">
      <contour>
        <pt x="334" y="61" on="1"/>
        <pt x="436" y="61" on="0"/>
        <pt x="549" y="262" on="0"/>
        <pt x="549" y="446" on="1"/>
        <pt x="549" y="559" on="1"/>
        <pt x="436" y="553" on="1"/>
        <pt x="304" y="546" on="0"/>
        <pt x="178" y="421" on="0"/>
        <pt x="178" y="289" on="1"/>
        <pt x="178" y="171" on="0"/>
        <pt x="262" y="61" on="0"/>
      </contour>
      <contour>
        <pt x="866" y="1018" on="1"/>
        <pt x="672" y="1018" on="0"/>
        <pt x="651" y="629" on="1"/>
        <pt x="1069" y="629" on="1"/>
        <pt x="1069" y="641" on="1"/>
        <pt x="1069" y="813" on="0"/>
        <pt x="959" y="1018" on="0"/>
      </contour>
      <contour>
        <pt x="385" y="1022" on="1"/>
        <pt x="292" y="1022" on="0"/>
        <pt x="195" y="961" on="1"/>
        <pt x="154" y="1036" on="1"/>
        <pt x="201" y="1065" on="0"/>
        <pt x="312" y="1106" on="0"/>
        <pt x="389" y="1106" on="1"/>
        <pt x="567" y="1106" on="0"/>
        <pt x="618" y="934" on="1"/>
        <pt x="702" y="1106" on="0"/>
        <pt x="868" y="1106" on="1"/>
        <pt x="1005" y="1106" on="0"/>
        <pt x="1163" y="851" on="0"/>
        <pt x="1163" y="631" on="1"/>
        <pt x="1163" y="543" on="1"/>
        <pt x="649" y="543" on="1"/>
        <pt x="658" y="66" on="0"/>
        <pt x="907" y="66" on="1"/>
        <pt x="957" y="66" on="0"/>
        <pt x="1076" y="101" on="0"/>
        <pt x="1128" y="133" on="1"/>
        <pt x="1128" y="45" on="1"/>
        <pt x="1028" y="-20" on="0"/>
        <pt x="905" y="-20" on="1"/>
        <pt x="800" y="-20" on="0"/>
        <pt x="639" y="106" on="0"/>
        <pt x="600" y="221" on="1"/>
        <pt x="554" y="92" on="0"/>
        <pt x="412" y="-20" on="0"/>
        <pt x="313" y="-20" on="1"/>
        <pt x="207" y="-20" on="0"/>
        <pt x="78" y="149" on="0"/>
        <pt x="78" y="291" on="1"/>
        <pt x="78" y="446" on="0"/>
        <pt x="264" y="627" on="0"/>
        <pt x="432" y="635" on="1"/>
        <pt x="549" y="641" on="1"/>
        <pt x="549" y="731" on="1"/>
        <pt x="549" y="877" on="0"/>
        <pt x="470" y="1022" on="0"/>
      </contour>
    </TTGlyph>
    <TTGlyph name="aeacute" xMin="78" yMin="-20" xMax="1163" yMax="1569">
      <component glyphName="ae" x="0" y="0" flags="0x204"/>
      <component glyphName="acute" x="109" y="0" flags="0x4"/>
    </TTGlyph>
    <TTGlyph name="afii00208" xMin="82" yMin="512" xMax="1966" yMax="594">
      <component glyphName="emdash" x="0" y="0" flags="0x204"/>
    </TTGlyph>
    <TTGlyph name="afii08941" xMin="80" yMin="0" xMax="741" yMax="1483">
      <contour>
        <pt x="506" y="1483" on="1"/>
        <pt x="640" y="1483" on="0"/>
        <pt x="741" y="1395" on="1"/>
        <pt x="686" y="1319" on="1"/>
        <pt x="605" y="1393" on="0"/>
        <pt x="504" y="1393" on="1"/>
        <pt x="414" y="1393" on="0"/>
        <pt x="336" y="1262" on="0"/>
        <pt x="336" y="1120" on="1"/>
        <pt x="336" y="842" on="1"/>
        <pt x="586" y="842" on="1"/>
        <pt x="586" y="756" on="1"/>
        <pt x="336" y="756" on="1"/>
        <pt x="336" y="563" on="1"/>
        <pt x="586" y="563" on="1"/>
        <pt x="586" y="477" on="1"/>
        <pt x="336" y="477" on="1"/>
        <pt x="336" y="395" on="1"/>
        <pt x="336" y="181" on="0"/>
        <pt x="215" y="94" on="1"/>
        <pt x="737" y="94" on="1"/>
        <pt x="737" y="0" on="1"/>
        <pt x="92" y="0" on="1"/>
        <pt x="92" y="82" on="1"/>
        <pt x="160" y="111" on="0"/>
        <pt x="238" y="274" on="0"/>
        <pt x="238" y="393" on="1"/>
        <pt x="238" y="477" on="1"/>
        <pt x="80" y="477" on="1"/>
        <pt x="80" y="563" on="1"/>
        <pt x="238" y="563" on="1"/>
        <pt x="238" y="756" on="1"/>
        <pt x="80" y="756" on="1"/>
        <pt x="80" y="842" on="1"/>
        <pt x="238" y="842" on="1"/>
        <pt x="238" y="1120" on="1"/>
        <pt x="238" y="1304" on="0"/>
        <pt x="367" y="1483" on="0"/>
      </contour>
    </TTGlyph>
    <TTGlyph name="afii10017" xMin="0" yMin="0" xMax="813" yMax="1462">
      <component glyphName="A" x="0" y="0" flags="0x204"/>
    </TTGlyph>
    <TTGlyph name="afii10018" xMin="160" yMin="0" xMax="797" yMax="1462">
      <contour>
        <pt x="258" y="1368" on="1"/>
        <pt x="258" y="813" on="1"/>
        <pt x="414" y="813" on="1"/>
        <pt x="610" y="813" on="0"/>
        <pt x="797" y="618" on="0"/>
        <pt x="797" y="410" on="1"/>
        <pt x="797" y="218" on="0"/>
        <pt x="594" y="0" on="0"/>
        <pt x="416" y="0" on="1"/>
        <pt x="160" y="0" on="1"/>
        <pt x="160" y="1462" on="1"/>
        <pt x="731" y="1462" on="1"/>
        <pt x="731" y="1368" on="1"/>
      </contour>
      <contour>
        <pt x="258" y="90" on="1"/>
        <pt x="420" y="90" on="1"/>
        <pt x="554" y="90" on="0"/>
        <pt x="696" y="255" on="0"/>
        <pt x="696" y="410" on="1"/>
        <pt x="696" y="571" on="0"/>
        <pt x="562" y="723" on="0"/>
        <pt x="418" y="723" on="1"/>
        <pt x="258" y="723" on="1"/>
      </contour>
    </TTGlyph>
    <TTGlyph name="afii10019" xMin="160" yMin="0" xMax="827" yMax="1462">
      <component glyphName="B" x="0" y="0" flags="0x204"/>
    </TTGlyph>
    <TTGlyph name="afii10020" xMin="160" yMin="0" xMax="670" yMax="1462">
      <component glyphName="Gamma" x="0" y="0" flags="0x204"/>
    </TTGlyph>
    <TTGlyph name="afii10021" xMin="10" yMin="-369" xMax="897" yMax="1462">
      <contour>
        <pt x="897" y="-369" on="1"/>
        <pt x="803" y="-369" on="1"/>
        <pt x="803" y="0" on="1"/>
        <pt x="104" y="0" on="1"/>
        <pt x="104" y="-369" on="1"/>
        <pt x="10" y="-369" on="1"/>
        <pt x="10" y="94" on="1"/>
        <pt x="98" y="94" on="1"/>
        <pt x="216" y="453" on="0"/>
        <pt x="315" y="1075" on="0"/>
        <pt x="315" y="1462" on="1"/>
        <pt x="772" y="1462" on="1"/>
        <pt x="772" y="94" on="1"/>
        <pt x="897" y="94" on="1"/>
      </contour>
      <contour>
        <pt x="674" y="94" on="1"/>
        <pt x="674" y="1368" on="1"/>
        <pt x="414" y="1368" on="1"/>
        <pt x="392" y="663" on="0"/>
        <pt x="199" y="94" on="1"/>
      </contour>
    </TTGlyph>
    <TTGlyph name="afii10022" xMin="160" yMin="0" xMax="690" yMax="1462">
      <component glyphName="E" x="0" y="0" flags="0x204"/>
    </TTGlyph>
    <TTGlyph name="afii10023" xMin="160" yMin="0" xMax="690" yMax="1808">
      <component glyphName="E" x="0" y="0" flags="0x204"/>
      <component glyphName="dieresis" x="-146" y="338" flags="0x4"/>
    </TTGlyph>
    <TTGlyph name="afii10024" xMin="0" yMin="0" xMax="1122" yMax="1462">
      <contour>
        <pt x="512" y="1462" on="1"/>
        <pt x="610" y="1462" on="1"/>
        <pt x="610" y="756" on="1"/>
        <pt x="1004" y="1462" on="1"/>
        <pt x="1110" y="1462" on="1"/>
        <pt x="711" y="756" on="1"/>
        <pt x="1122" y="0" on="1"/>
        <pt x="1012" y="0" on="1"/>
        <pt x="610" y="748" on="1"/>
        <pt x="610" y="0" on="1"/>
        <pt x="512" y="0" on="1"/>
        <pt x="512" y="748" on="1"/>
        <pt x="111" y="0" on="1"/>
        <pt x="0" y="0" on="1"/>
        <pt x="412" y="756" on="1"/>
        <pt x="12" y="1462" on="1"/>
        <pt x="119" y="1462" on="1"/>
        <pt x="512" y="756" on="1"/>
      </contour>
    </TTGlyph>
    <TTGlyph name="afii10025" xMin="57" yMin="-20" xMax="686" yMax="1483">
      <contour>
        <pt x="686" y="391" on="1"/>
        <pt x="686" y="196" on="0"/>
        <pt x="490" y="-20" on="0"/>
        <pt x="313" y="-20" on="1"/>
        <pt x="173" y="-20" on="0"/>
        <pt x="57" y="35" on="1"/>
        <pt x="57" y="143" on="1"/>
        <pt x="108" y="111" on="0"/>
        <pt x="244" y="74" on="0"/>
        <pt x="313" y="74" on="1"/>
        <pt x="584" y="74" on="0"/>
        <pt x="584" y="389" on="1"/>
        <pt x="584" y="555" on="0"/>
        <pt x="428" y="711" on="0"/>
        <pt x="264" y="711" on="1"/>
        <pt x="164" y="711" on="1"/>
        <pt x="164" y="805" on="1"/>
        <pt x="270" y="805" on="1"/>
        <pt x="411" y="805" on="0"/>
        <pt x="565" y="969" on="0"/>
        <pt x="565" y="1128" on="1"/>
        <pt x="565" y="1260" on="0"/>
        <pt x="448" y="1389" on="0"/>
        <pt x="342" y="1389" on="1"/>
        <pt x="283" y="1389" on="0"/>
        <pt x="184" y="1337" on="0"/>
        <pt x="150" y="1296" on="1"/>
        <pt x="84" y="1364" on="1"/>
        <pt x="194" y="1483" on="0"/>
        <pt x="350" y="1483" on="1"/>
        <pt x="499" y="1483" on="0"/>
        <pt x="666" y="1294" on="0"/>
        <pt x="666" y="1128" on="1"/>
        <pt x="666" y="985" on="0"/>
        <pt x="531" y="792" on="0"/>
        <pt x="416" y="762" on="1"/>
        <pt x="416" y="754" on="1"/>
        <pt x="549" y="737" on="0"/>
        <pt x="686" y="549" on="0"/>
      </contour>
    </TTGlyph>
    <TTGlyph name="afii10026" xMin="160" yMin="0" xMax="930" yMax="1462">
      <contour>
        <pt x="160" y="1462" on="1"/>
        <pt x="256" y="1462" on="1"/>
        <pt x="256" y="440" on="1"/>
        <pt x="256" y="406" on="0"/>
        <pt x="255" y="339" on="0"/>
        <pt x="246" y="166" on="1"/>
        <pt x="254" y="166" on="1"/>
        <pt x="803" y="1462" on="1"/>
        <pt x="930" y="1462" on="1"/>
        <pt x="930" y="0" on="1"/>
        <pt x="834" y="0" on="1"/>
        <pt x="834" y="1049" on="1"/>
        <pt x="834" y="1175" on="0"/>
        <pt x="846" y="1311" on="1"/>
        <pt x="838" y="1311" on="1"/>
        <pt x="285" y="0" on="1"/>
        <pt x="160" y="0" on="1"/>
      </contour>
    </TTGlyph>
    <TTGlyph name="afii10027" xMin="160" yMin="0" xMax="930" yMax="1860">
      <component glyphName="afii10026" x="0" y="0" flags="0x204"/>
      <component glyphName="cyrillicbreve" x="-46" y="338" flags="0x4"/>
    </TTGlyph>
    <TTGlyph name="afii10028" xMin="160" yMin="0" xMax="811" yMax="1462">
      <contour>
        <pt x="258" y="756" on="1"/>
        <pt x="672" y="1462" on="1"/>
        <pt x="778" y="1462" on="1"/>
        <pt x="360" y="756" on="1"/>
        <pt x="811" y="0" on="1"/>
        <pt x="698" y="0" on="1"/>
        <pt x="258" y="748" on="1"/>
        <pt x="258" y="0" on="1"/>
        <pt x="160" y="0" on="1"/>
        <pt x="160" y="1462" on="1"/>
        <pt x="258" y="1462" on="1"/>
      </contour>
    </TTGlyph>
    <TTGlyph name="afii10029" xMin="-20" yMin="-14" xMax="770" yMax="1462">
      <contour>
        <pt x="770" y="0" on="1"/>
        <pt x="672" y="0" on="1"/>
        <pt x="672" y="1368" on="1"/>
        <pt x="385" y="1368" on="1"/>
        <pt x="346" y="892" on="1"/>
        <pt x="303" y="372" on="0"/>
        <pt x="247" y="102" on="0"/>
        <pt x="150" y="-14" on="0"/>
        <pt x="55" y="-14" on="1"/>
        <pt x="9" y="-14" on="0"/>
        <pt x="-20" y="4" on="1"/>
        <pt x="-20" y="96" on="1"/>
        <pt x="3" y="80" on="0"/>
        <pt x="49" y="80" on="1"/>
        <pt x="82" y="80" on="0"/>
        <pt x="127" y="106" on="0"/>
        <pt x="164" y="181" on="0"/>
        <pt x="193" y="321" on="0"/>
        <pt x="220" y="549" on="0"/>
        <pt x="299" y="1462" on="1"/>
        <pt x="770" y="1462" on="1"/>
      </contour>
    </TTGlyph>
    <TTGlyph name="afii10030" xMin="160" yMin="0" xMax="1235" yMax="1462">
      <component glyphName="M" x="0" y="0" flags="0x204"/>
    </TTGlyph>
    <TTGlyph name="afii10031" xMin="160" yMin="0" xMax="866" yMax="1462">
      <component glyphName="H" x="0" y="0" flags="0x204"/>
    </TTGlyph>
    <TTGlyph name="afii10032" xMin="111" yMin="-20" xMax="954" yMax="1483">
      <component glyphName="O" x="0" y="0" flags="0x204"/>
    </TTGlyph>
    <TTGlyph name="afii10033" xMin="160" yMin="0" xMax="866" yMax="1462">
      <component glyphName="Pi" x="0" y="0" flags="0x204"/>
    </TTGlyph>
    <TTGlyph name="afii10034" xMin="160" yMin="0" xMax="772" yMax="1462">
      <component glyphName="P" x="0" y="0" flags="0x204"/>
    </TTGlyph>
    <TTGlyph name="afii10035" xMin="111" yMin="-20" xMax="809" yMax="1485">
      <component glyphName="C" x="0" y="0" flags="0x204"/>
    </TTGlyph>
    <TTGlyph name="afii10036" xMin="14" yMin="0" xMax="694" yMax="1462">
      <component glyphName="T" x="0" y="0" flags="0x204"/>
    </TTGlyph>
    <TTGlyph name="afii10037" xMin="0" yMin="-20" xMax="686" yMax="1462">
      <contour>
        <pt x="313" y="428" on="1"/>
        <pt x="0" y="1462" on="1"/>
        <pt x="102" y="1462" on="1"/>
        <pt x="324" y="713" on="1"/>
        <pt x="335" y="674" on="0"/>
        <pt x="358" y="569" on="1"/>
        <pt x="367" y="569" on="1"/>
        <pt x="379" y="654" on="0"/>
        <pt x="395" y="713" on="1"/>
        <pt x="584" y="1462" on="1"/>
        <pt x="686" y="1462" on="1"/>
        <pt x="360" y="242" on="1"/>
        <pt x="323" y="103" on="0"/>
        <pt x="213" y="-20" on="0"/>
        <pt x="125" y="-20" on="1"/>
        <pt x="77" y="-20" on="0"/>
        <pt x="37" y="0" on="1"/>
        <pt x="37" y="92" on="1"/>
        <pt x="81" y="74" on="0"/>
        <pt x="123" y="74" on="1"/>
        <pt x="173" y="74" on="0"/>
        <pt x="241" y="163" on="0"/>
        <pt x="270" y="266" on="1"/>
      </contour>
    </TTGlyph>
    <TTGlyph name="afii10038" xMin="106" yMin="-20" xMax="1098" yMax="1483">
      <component glyphName="Phi" x="0" y="0" flags="0x204"/>
    </TTGlyph>
    <TTGlyph name="afii10039" xMin="20" yMin="0" xMax="694" yMax="1462">
      <component glyphName="X" x="0" y="0" flags="0x204"/>
    </TTGlyph>
    <TTGlyph name="afii10040" xMin="160" yMin="-369" xMax="977" yMax="1462">
      <contour>
        <pt x="866" y="94" on="1"/>
        <pt x="977" y="94" on="1"/>
        <pt x="977" y="-369" on="1"/>
        <pt x="883" y="-369" on="1"/>
        <pt x="883" y="0" on="1"/>
        <pt x="160" y="0" on="1"/>
        <pt x="160" y="1462" on="1"/>
        <pt x="258" y="1462" on="1"/>
        <pt x="258" y="94" on="1"/>
        <pt x="768" y="94" on="1"/>
        <pt x="768" y="1462" on="1"/>
        <pt x="866" y="1462" on="1"/>
      </contour>
    </TTGlyph>
    <TTGlyph name="afii10041" xMin="135" yMin="0" xMax="842" yMax="1462">
      <contour>
        <pt x="842" y="0" on="1"/>
        <pt x="743" y="0" on="1"/>
        <pt x="743" y="627" on="1"/>
        <pt x="575" y="532" on="0"/>
        <pt x="424" y="532" on="1"/>
        <pt x="135" y="532" on="0"/>
        <pt x="135" y="899" on="1"/>
        <pt x="135" y="1462" on="1"/>
        <pt x="233" y="1462" on="1"/>
        <pt x="233" y="895" on="1"/>
        <pt x="233" y="760" on="0"/>
        <pt x="330" y="627" on="0"/>
        <pt x="432" y="627" on="1"/>
        <pt x="509" y="627" on="0"/>
        <pt x="644" y="660" on="0"/>
        <pt x="743" y="713" on="1"/>
        <pt x="743" y="1462" on="1"/>
        <pt x="842" y="1462" on="1"/>
      </contour>
    </TTGlyph>
    <TTGlyph name="afii10042" xMin="160" yMin="0" xMax="1247" yMax="1462">
      <contour>
        <pt x="1247" y="0" on="1"/>
        <pt x="160" y="0" on="1"/>
        <pt x="160" y="1462" on="1"/>
        <pt x="258" y="1462" on="1"/>
        <pt x="258" y="94" on="1"/>
        <pt x="653" y="94" on="1"/>
        <pt x="653" y="1462" on="1"/>
        <pt x="752" y="1462" on="1"/>
        <pt x="752" y="94" on="1"/>
        <pt x="1149" y="94" on="1"/>
        <pt x="1149" y="1462" on="1"/>
        <pt x="1247" y="1462" on="1"/>
      </contour>
    </TTGlyph>
    <TTGlyph name="afii10043" xMin="160" yMin="-369" xMax="1358" yMax="1462">
      <contour>
        <pt x="752" y="94" on="1"/>
        <pt x="1149" y="94" on="1"/>
        <pt x="1149" y="1462" on="1"/>
        <pt x="1247" y="1462" on="1"/>
        <pt x="1247" y="94" on="1"/>
        <pt x="1358" y="94" on="1"/>
        <pt x="1358" y="-369" on="1"/>
        <pt x="1264" y="-369" on="1"/>
        <pt x="1264" y="0" on="1"/>
        <pt x="160" y="0" on="1"/>
        <pt x="160" y="1462" on="1"/>
        <pt x="258" y="1462" on="1"/>
        <pt x="258" y="94" on="1"/>
        <pt x="653" y="94" on="1"/>
        <pt x="653" y="1462" on="1"/>
        <pt x="752" y="1462" on="1"/>
      </contour>
    </TTGlyph>
    <TTGlyph name="afii10044" xMin="25" yMin="0" xMax="952" yMax="1462">
      <contour>
        <pt x="25" y="1366" on="1"/>
        <pt x="25" y="1462" on="1"/>
        <pt x="414" y="1462" on="1"/>
        <pt x="414" y="813" on="1"/>
        <pt x="569" y="813" on="1"/>
        <pt x="763" y="813" on="0"/>
        <pt x="952" y="621" on="0"/>
        <pt x="952" y="410" on="1"/>
        <pt x="952" y="219" on="0"/>
        <pt x="751" y="0" on="0"/>
        <pt x="571" y="0" on="1"/>
        <pt x="315" y="0" on="1"/>
        <pt x="315" y="1366" on="1"/>
      </contour>
      <contour>
        <pt x="414" y="90" on="1"/>
        <pt x="575" y="90" on="1"/>
        <pt x="710" y="90" on="0"/>
        <pt x="852" y="255" on="0"/>
        <pt x="852" y="410" on="1"/>
        <pt x="852" y="571" on="0"/>
        <pt x="716" y="723" on="0"/>
        <pt x="573" y="723" on="1"/>
        <pt x="414" y="723" on="1"/>
      </contour>
    </TTGlyph>
    <TTGlyph name="afii10045" xMin="160" yMin="0" xMax="1124" yMax="1462">
      <contour>
        <pt x="797" y="410" on="1"/>
        <pt x="797" y="218" on="0"/>
        <pt x="594" y="0" on="0"/>
        <pt x="416" y="0" on="1"/>
        <pt x="160" y="0" on="1"/>
        <pt x="160" y="1462" on="1"/>
        <pt x="258" y="1462" on="1"/>
        <pt x="258" y="813" on="1"/>
        <pt x="414" y="813" on="1"/>
        <pt x="610" y="813" on="0"/>
        <pt x="797" y="618" on="0"/>
      </contour>
      <contour>
        <pt x="258" y="90" on="1"/>
        <pt x="420" y="90" on="1"/>
        <pt x="554" y="90" on="0"/>
        <pt x="696" y="255" on="0"/>
        <pt x="696" y="410" on="1"/>
        <pt x="696" y="571" on="0"/>
        <pt x="562" y="723" on="0"/>
        <pt x="418" y="723" on="1"/>
        <pt x="258" y="723" on="1"/>
      </contour>
      <contour>
        <pt x="1124" y="0" on="1"/>
        <pt x="1026" y="0" on="1"/>
        <pt x="1026" y="1462" on="1"/>
        <pt x="1124" y="1462" on="1"/>
      </contour>
    </TTGlyph>
    <TTGlyph name="afii10046" xMin="160" yMin="0" xMax="797" yMax="1462">
      <contour>
        <pt x="797" y="410" on="1"/>
        <pt x="797" y="218" on="0"/>
        <pt x="594" y="0" on="0"/>
        <pt x="416" y="0" on="1"/>
        <pt x="160" y="0" on="1"/>
        <pt x="160" y="1462" on="1"/>
        <pt x="258" y="1462" on="1"/>
        <pt x="258" y="813" on="1"/>
        <pt x="414" y="813" on="1"/>
        <pt x="610" y="813" on="0"/>
        <pt x="797" y="618" on="0"/>
      </contour>
      <contour>
        <pt x="258" y="90" on="1"/>
        <pt x="420" y="90" on="1"/>
        <pt x="554" y="90" on="0"/>
        <pt x="696" y="255" on="0"/>
        <pt x="696" y="410" on="1"/>
        <pt x="696" y="571" on="0"/>
        <pt x="562" y="723" on="0"/>
        <pt x="418" y="723" on="1"/>
        <pt x="258" y="723" on="1"/>
      </contour>
    </TTGlyph>
    <TTGlyph name="afii10047" xMin="51" yMin="-20" xMax="750" yMax="1485">
      <contour>
        <pt x="283" y="1485" on="1"/>
        <pt x="424" y="1485" on="0"/>
        <pt x="637" y="1303" on="0"/>
        <pt x="750" y="960" on="0"/>
        <pt x="750" y="729" on="1"/>
        <pt x="750" y="383" on="0"/>
        <pt x="501" y="-20" on="0"/>
        <pt x="285" y="-20" on="1"/>
        <pt x="225" y="-20" on="0"/>
        <pt x="113" y="2" on="0"/>
        <pt x="82" y="20" on="1"/>
        <pt x="82" y="115" on="1"/>
        <pt x="166" y="74" on="0"/>
        <pt x="287" y="74" on="1"/>
        <pt x="451" y="74" on="0"/>
        <pt x="643" y="415" on="0"/>
        <pt x="647" y="719" on="1"/>
        <pt x="186" y="719" on="1"/>
        <pt x="186" y="813" on="1"/>
        <pt x="645" y="813" on="1"/>
        <pt x="631" y="1085" on="0"/>
        <pt x="438" y="1391" on="0"/>
        <pt x="283" y="1391" on="1"/>
        <pt x="180" y="1391" on="0"/>
        <pt x="96" y="1337" on="1"/>
        <pt x="51" y="1421" on="1"/>
        <pt x="154" y="1485" on="0"/>
      </contour>
    </TTGlyph>
    <TTGlyph name="afii10048" xMin="160" yMin="-20" xMax="1274" yMax="1483">
      <contour>
        <pt x="1274" y="733" on="1"/>
        <pt x="1274" y="372" on="0"/>
        <pt x="1075" y="-20" on="0"/>
        <pt x="887" y="-20" on="1"/>
        <pt x="702" y="-20" on="0"/>
        <pt x="502" y="358" on="0"/>
        <pt x="500" y="719" on="1"/>
        <pt x="258" y="719" on="1"/>
        <pt x="258" y="0" on="1"/>
        <pt x="160" y="0" on="1"/>
        <pt x="160" y="1462" on="1"/>
        <pt x="258" y="1462" on="1"/>
        <pt x="258" y="813" on="1"/>
        <pt x="500" y="813" on="1"/>
        <pt x="517" y="1483" on="0"/>
        <pt x="889" y="1483" on="1"/>
        <pt x="1075" y="1483" on="0"/>
        <pt x="1274" y="1097" on="0"/>
      </contour>
      <contour>
        <pt x="602" y="733" on="1"/>
        <pt x="602" y="407" on="0"/>
        <pt x="748" y="74" on="0"/>
        <pt x="887" y="74" on="1"/>
        <pt x="1027" y="74" on="0"/>
        <pt x="1171" y="409" on="0"/>
        <pt x="1171" y="733" on="1"/>
        <pt x="1171" y="1060" on="0"/>
        <pt x="1028" y="1389" on="0"/>
        <pt x="889" y="1389" on="1"/>
        <pt x="747" y="1389" on="0"/>
        <pt x="602" y="1056" on="0"/>
      </contour>
    </TTGlyph>
    <TTGlyph name="afii10049" xMin="43" yMin="0" xMax="717" yMax="1462">
      <contour>
        <pt x="426" y="639" on="1"/>
        <pt x="154" y="0" on="1"/>
        <pt x="43" y="0" on="1"/>
        <pt x="334" y="653" on="1"/>
        <pt x="224" y="682" on="0"/>
        <pt x="100" y="889" on="0"/>
        <pt x="100" y="1042" on="1"/>
        <pt x="100" y="1462" on="0"/>
        <pt x="479" y="1462" on="1"/>
        <pt x="717" y="1462" on="1"/>
        <pt x="717" y="0" on="1"/>
        <pt x="618" y="0" on="1"/>
        <pt x="618" y="637" on="1"/>
      </contour>
      <contour>
        <pt x="618" y="1372" on="1"/>
        <pt x="494" y="1372" on="1"/>
        <pt x="338" y="1372" on="0"/>
        <pt x="203" y="1218" on="0"/>
        <pt x="203" y="1047" on="1"/>
        <pt x="203" y="881" on="0"/>
        <pt x="329" y="725" on="0"/>
        <pt x="467" y="725" on="1"/>
        <pt x="618" y="725" on="1"/>
      </contour>
    </TTGlyph>
    <TTGlyph name="afii10050" xMin="160" yMin="0" xMax="637" yMax="1763">
      <contour>
        <pt x="258" y="1368" on="1"/>
        <pt x="258" y="0" on="1"/>
        <pt x="160" y="0" on="1"/>
        <pt x="160" y="1462" on="1"/>
        <pt x="543" y="1462" on="1"/>
        <pt x="543" y="1763" on="1"/>
        <pt x="637" y="1763" on="1"/>
        <pt x="637" y="1368" on="1"/>
      </contour>
    </TTGlyph>
    <TTGlyph name="afii10051" xMin="14" yMin="-20" xMax="815" yMax="1462">
      <contour>
        <pt x="815" y="299" on="1"/>
        <pt x="815" y="146" on="0"/>
        <pt x="693" y="-20" on="0"/>
        <pt x="582" y="-20" on="1"/>
        <pt x="527" y="-20" on="0"/>
        <pt x="485" y="0" on="1"/>
        <pt x="485" y="94" on="1"/>
        <pt x="534" y="74" on="0"/>
        <pt x="580" y="74" on="1"/>
        <pt x="649" y="74" on="0"/>
        <pt x="717" y="185" on="0"/>
        <pt x="717" y="303" on="1"/>
        <pt x="717" y="543" on="1"/>
        <pt x="717" y="668" on="0"/>
        <pt x="609" y="782" on="0"/>
        <pt x="487" y="782" on="1"/>
        <pt x="352" y="782" on="1"/>
        <pt x="352" y="0" on="1"/>
        <pt x="254" y="0" on="1"/>
        <pt x="254" y="1368" on="1"/>
        <pt x="14" y="1368" on="1"/>
        <pt x="14" y="1462" on="1"/>
        <pt x="631" y="1462" on="1"/>
        <pt x="631" y="1368" on="1"/>
        <pt x="352" y="1368" on="1"/>
        <pt x="352" y="877" on="1"/>
        <pt x="483" y="877" on="1"/>
        <pt x="652" y="877" on="0"/>
        <pt x="815" y="716" on="0"/>
        <pt x="815" y="543" on="1"/>
      </contour>
    </TTGlyph>
    <TTGlyph name="afii10052" xMin="160" yMin="0" xMax="670" yMax="1907">
      <component glyphName="Gamma" x="0" y="0" flags="0x204"/>
      <component glyphName="acute" x="-110" y="338" flags="0x4"/>
    </TTGlyph>
    <TTGlyph name="afii10053" xMin="111" yMin="-20" xMax="811" yMax="1485">
      <contour>
        <pt x="559" y="1391" on="1"/>
        <pt x="409" y="1391" on="0"/>
        <pt x="227" y="1084" on="0"/>
        <pt x="215" y="813" on="1"/>
        <pt x="672" y="813" on="1"/>
        <pt x="672" y="719" on="1"/>
        <pt x="213" y="719" on="1"/>
        <pt x="215" y="418" on="0"/>
        <pt x="405" y="74" on="0"/>
        <pt x="565" y="74" on="1"/>
        <pt x="641" y="74" on="0"/>
        <pt x="735" y="105" on="0"/>
        <pt x="772" y="127" on="1"/>
        <pt x="772" y="37" on="1"/>
        <pt x="687" y="-20" on="0"/>
        <pt x="557" y="-20" on="1"/>
        <pt x="423" y="-20" on="0"/>
        <pt x="220" y="161" on="0"/>
        <pt x="111" y="505" on="0"/>
        <pt x="111" y="735" on="1"/>
        <pt x="111" y="1084" on="0"/>
        <pt x="351" y="1485" on="0"/>
        <pt x="561" y="1485" on="1"/>
        <pt x="704" y="1485" on="0"/>
        <pt x="811" y="1411" on="1"/>
        <pt x="764" y="1327" on="1"/>
        <pt x="669" y="1391" on="0"/>
      </contour>
    </TTGlyph>
    <TTGlyph name="afii10054" xMin="86" yMin="-20" xMax="721" yMax="1483">
      <component glyphName="S" x="0" y="0" flags="0x204"/>
    </TTGlyph>
    <TTGlyph name="afii10055" xMin="160" yMin="0" xMax="258" yMax="1462">
      <component glyphName="I" x="0" y="0" flags="0x204"/>
    </TTGlyph>
    <TTGlyph name="afii10055.alt" xMin="66" yMin="0" xMax="406" yMax="1462">
      <component glyphName="I.alt" x="0" y="0" flags="0x204"/>
    </TTGlyph>
    <TTGlyph name="afii10056" xMin="-5" yMin="0" xMax="425" yMax="1808">
      <component glyphName="I" x="0" y="0" flags="0x204"/>
      <component glyphName="dieresis" x="-353" y="338" flags="0x4"/>
    </TTGlyph>
    <TTGlyph name="afii10056.alt" xMin="21" yMin="0" xMax="451" yMax="1808">
      <component glyphName="I.alt" x="0" y="0" flags="0x204"/>
      <component glyphName="dieresis" x="-327" y="338" flags="0x4"/>
    </TTGlyph>
    <TTGlyph name="afii10057" xMin="-90" yMin="-369" xMax="248" yMax="1462">
      <component glyphName="J" x="0" y="0" flags="0x204"/>
    </TTGlyph>
    <TTGlyph name="afii10058" xMin="-20" yMin="-14" xMax="1206" yMax="1462">
      <contour>
        <pt x="1206" y="410" on="1"/>
        <pt x="1206" y="219" on="0"/>
        <pt x="1005" y="0" on="0"/>
        <pt x="825" y="0" on="1"/>
        <pt x="610" y="0" on="1"/>
        <pt x="610" y="1368" on="1"/>
        <pt x="385" y="1368" on="1"/>
        <pt x="346" y="892" on="1"/>
        <pt x="303" y="372" on="0"/>
        <pt x="247" y="102" on="0"/>
        <pt x="150" y="-14" on="0"/>
        <pt x="55" y="-14" on="1"/>
        <pt x="9" y="-14" on="0"/>
        <pt x="-20" y="4" on="1"/>
        <pt x="-20" y="96" on="1"/>
        <pt x="3" y="80" on="0"/>
        <pt x="49" y="80" on="1"/>
        <pt x="82" y="80" on="0"/>
        <pt x="127" y="106" on="0"/>
        <pt x="164" y="181" on="0"/>
        <pt x="193" y="321" on="0"/>
        <pt x="220" y="549" on="0"/>
        <pt x="299" y="1462" on="1"/>
        <pt x="709" y="1462" on="1"/>
        <pt x="709" y="813" on="1"/>
        <pt x="823" y="813" on="1"/>
        <pt x="1017" y="813" on="0"/>
        <pt x="1206" y="621" on="0"/>
      </contour>
      <contour>
        <pt x="709" y="90" on="1"/>
        <pt x="829" y="90" on="1"/>
        <pt x="964" y="90" on="0"/>
        <pt x="1106" y="255" on="0"/>
        <pt x="1106" y="410" on="1"/>
        <pt x="1106" y="571" on="0"/>
        <pt x="970" y="723" on="0"/>
        <pt x="827" y="723" on="1"/>
        <pt x="709" y="723" on="1"/>
      </contour>
    </TTGlyph>
    <TTGlyph name="afii10059" xMin="160" yMin="0" xMax="1268" yMax="1462">
      <contour>
        <pt x="770" y="813" on="1"/>
        <pt x="885" y="813" on="1"/>
        <pt x="1081" y="813" on="0"/>
        <pt x="1268" y="618" on="0"/>
        <pt x="1268" y="410" on="1"/>
        <pt x="1268" y="218" on="0"/>
        <pt x="1065" y="0" on="0"/>
        <pt x="887" y="0" on="1"/>
        <pt x="672" y="0" on="1"/>
        <pt x="672" y="723" on="1"/>
        <pt x="258" y="723" on="1"/>
        <pt x="258" y="0" on="1"/>
        <pt x="160" y="0" on="1"/>
        <pt x="160" y="1462" on="1"/>
        <pt x="258" y="1462" on="1"/>
        <pt x="258" y="813" on="1"/>
        <pt x="672" y="813" on="1"/>
        <pt x="672" y="1462" on="1"/>
        <pt x="770" y="1462" on="1"/>
      </contour>
      <contour>
        <pt x="770" y="90" on="1"/>
        <pt x="891" y="90" on="1"/>
        <pt x="1025" y="90" on="0"/>
        <pt x="1167" y="255" on="0"/>
        <pt x="1167" y="410" on="1"/>
        <pt x="1167" y="571" on="0"/>
        <pt x="1033" y="723" on="0"/>
        <pt x="889" y="723" on="1"/>
        <pt x="770" y="723" on="1"/>
      </contour>
    </TTGlyph>
    <TTGlyph name="afii10060" xMin="14" yMin="0" xMax="815" yMax="1462">
      <contour>
        <pt x="352" y="877" on="1"/>
        <pt x="487" y="877" on="1"/>
        <pt x="653" y="877" on="0"/>
        <pt x="815" y="716" on="0"/>
        <pt x="815" y="543" on="1"/>
        <pt x="815" y="0" on="1"/>
        <pt x="717" y="0" on="1"/>
        <pt x="717" y="543" on="1"/>
        <pt x="717" y="668" on="0"/>
        <pt x="609" y="782" on="0"/>
        <pt x="487" y="782" on="1"/>
        <pt x="352" y="782" on="1"/>
        <pt x="352" y="0" on="1"/>
        <pt x="254" y="0" on="1"/>
        <pt x="254" y="1368" on="1"/>
        <pt x="14" y="1368" on="1"/>
        <pt x="14" y="1462" on="1"/>
        <pt x="631" y="1462" on="1"/>
        <pt x="631" y="1368" on="1"/>
        <pt x="352" y="1368" on="1"/>
      </contour>
    </TTGlyph>
    <TTGlyph name="afii10061" xMin="160" yMin="0" xMax="811" yMax="1907">
      <component glyphName="afii10028" x="0" y="0" flags="0x204"/>
      <component glyphName="acute" x="-75" y="338" flags="0x4"/>
    </TTGlyph>
    <TTGlyph name="afii10062" xMin="0" yMin="-20" xMax="686" yMax="1860">
      <component glyphName="afii10037" x="0" y="0" flags="0x204"/>
      <component glyphName="cyrillicbreve" x="-241" y="338" flags="0x4"/>
    </TTGlyph>
    <TTGlyph name="afii10065" xMin="78" yMin="-20" xMax="643" yMax="1106">
      <component glyphName="a" x="0" y="0" flags="0x204"/>
    </TTGlyph>
    <TTGlyph name="afii10066" xMin="106" yMin="-20" xMax="770" yMax="1563">
      <contour>
        <pt x="205" y="690" on="1"/>
        <pt x="209" y="370" on="0"/>
        <pt x="314" y="66" on="0"/>
        <pt x="424" y="66" on="1"/>
        <pt x="672" y="66" on="0"/>
        <pt x="672" y="494" on="1"/>
        <pt x="672" y="915" on="0"/>
        <pt x="434" y="915" on="1"/>
        <pt x="361" y="915" on="0"/>
        <pt x="233" y="787" on="0"/>
      </contour>
      <contour>
        <pt x="106" y="711" on="1"/>
        <pt x="106" y="1017" on="0"/>
        <pt x="215" y="1366" on="0"/>
        <pt x="474" y="1537" on="0"/>
        <pt x="745" y="1563" on="1"/>
        <pt x="760" y="1477" on="1"/>
        <pt x="538" y="1460" on="0"/>
        <pt x="316" y="1338" on="0"/>
        <pt x="213" y="1084" on="0"/>
        <pt x="205" y="842" on="1"/>
        <pt x="213" y="842" on="1"/>
        <pt x="250" y="920" on="0"/>
        <pt x="377" y="1006" on="0"/>
        <pt x="451" y="1006" on="1"/>
        <pt x="601" y="1006" on="0"/>
        <pt x="770" y="741" on="0"/>
        <pt x="770" y="494" on="1"/>
        <pt x="770" y="247" on="0"/>
        <pt x="592" y="-20" on="0"/>
        <pt x="422" y="-20" on="1"/>
        <pt x="258" y="-20" on="0"/>
        <pt x="106" y="339" on="0"/>
      </contour>
    </TTGlyph>
    <TTGlyph name="afii10067" xMin="145" yMin="0" xMax="698" yMax="1085">
      <contour>
        <pt x="668" y="825" on="1"/>
        <pt x="668" y="726" on="0"/>
        <pt x="596" y="607" on="0"/>
        <pt x="518" y="582" on="1"/>
        <pt x="518" y="573" on="1"/>
        <pt x="606" y="558" on="0"/>
        <pt x="698" y="426" on="0"/>
        <pt x="698" y="326" on="1"/>
        <pt x="698" y="172" on="0"/>
        <pt x="540" y="0" on="0"/>
        <pt x="395" y="0" on="1"/>
        <pt x="145" y="0" on="1"/>
        <pt x="145" y="1085" on="1"/>
        <pt x="375" y="1085" on="1"/>
        <pt x="518" y="1085" on="0"/>
        <pt x="668" y="950" on="0"/>
      </contour>
      <contour>
        <pt x="600" y="328" on="1"/>
        <pt x="600" y="438" on="0"/>
        <pt x="499" y="532" on="0"/>
        <pt x="401" y="532" on="1"/>
        <pt x="240" y="532" on="1"/>
        <pt x="240" y="86" on="1"/>
        <pt x="397" y="86" on="1"/>
        <pt x="503" y="86" on="0"/>
        <pt x="600" y="201" on="0"/>
      </contour>
      <contour>
        <pt x="569" y="825" on="1"/>
        <pt x="569" y="999" on="0"/>
        <pt x="377" y="999" on="1"/>
        <pt x="240" y="999" on="1"/>
        <pt x="240" y="614" on="1"/>
        <pt x="397" y="614" on="1"/>
        <pt x="490" y="614" on="0"/>
        <pt x="569" y="714" on="0"/>
      </contour>
    </TTGlyph>
    <TTGlyph name="afii10068" xMin="145" yMin="0" xMax="575" yMax="1085">
      <contour>
        <pt x="575" y="1085" on="1"/>
        <pt x="575" y="995" on="1"/>
        <pt x="240" y="995" on="1"/>
        <pt x="240" y="0" on="1"/>
        <pt x="145" y="0" on="1"/>
        <pt x="145" y="1085" on="1"/>
      </contour>
    </TTGlyph>
    <TTGlyph name="afii10069" xMin="10" yMin="-369" xMax="743" yMax="1085">
      <contour>
        <pt x="539" y="90" on="1"/>
        <pt x="539" y="999" on="1"/>
        <pt x="352" y="999" on="1"/>
        <pt x="349" y="759" on="0"/>
        <pt x="254" y="234" on="0"/>
        <pt x="186" y="90" on="1"/>
      </contour>
      <contour>
        <pt x="743" y="-369" on="1"/>
        <pt x="649" y="-369" on="1"/>
        <pt x="649" y="0" on="1"/>
        <pt x="104" y="0" on="1"/>
        <pt x="104" y="-369" on="1"/>
        <pt x="10" y="-369" on="1"/>
        <pt x="10" y="90" on="1"/>
        <pt x="94" y="90" on="1"/>
        <pt x="178" y="285" on="0"/>
        <pt x="264" y="797" on="0"/>
        <pt x="264" y="1085" on="1"/>
        <pt x="633" y="1085" on="1"/>
        <pt x="633" y="90" on="1"/>
        <pt x="743" y="90" on="1"/>
      </contour>
    </TTGlyph>
    <TTGlyph name="afii10070" xMin="96" yMin="-20" xMax="707" yMax="1106">
      <component glyphName="e" x="0" y="0" flags="0x204"/>
    </TTGlyph>
    <TTGlyph name="afii10071" xMin="96" yMin="-20" xMax="707" yMax="1470">
      <component glyphName="e" x="0" y="0" flags="0x204"/>
      <component glyphName="dieresis" x="-153" y="0" flags="0x4"/>
    </TTGlyph>
    <TTGlyph name="afii10072" xMin="10" yMin="0" xMax="948" yMax="1085">
      <contour>
        <pt x="526" y="1085" on="1"/>
        <pt x="526" y="575" on="1"/>
        <pt x="815" y="1085" on="1"/>
        <pt x="922" y="1085" on="1"/>
        <pt x="621" y="575" on="1"/>
        <pt x="948" y="0" on="1"/>
        <pt x="838" y="0" on="1"/>
        <pt x="526" y="567" on="1"/>
        <pt x="526" y="0" on="1"/>
        <pt x="432" y="0" on="1"/>
        <pt x="432" y="567" on="1"/>
        <pt x="121" y="0" on="1"/>
        <pt x="10" y="0" on="1"/>
        <pt x="338" y="575" on="1"/>
        <pt x="37" y="1085" on="1"/>
        <pt x="143" y="1085" on="1"/>
        <pt x="432" y="575" on="1"/>
        <pt x="432" y="1085" on="1"/>
      </contour>
    </TTGlyph>
    <TTGlyph name="afii10073" xMin="51" yMin="-20" xMax="555" yMax="1106">
      <contour>
        <pt x="258" y="618" on="1"/>
        <pt x="304" y="618" on="0"/>
        <pt x="383" y="670" on="0"/>
        <pt x="428" y="767" on="0"/>
        <pt x="428" y="831" on="1"/>
        <pt x="428" y="927" on="0"/>
        <pt x="341" y="1022" on="0"/>
        <pt x="268" y="1022" on="1"/>
        <pt x="192" y="1022" on="0"/>
        <pt x="115" y="973" on="1"/>
        <pt x="70" y="1047" on="1"/>
        <pt x="164" y="1106" on="0"/>
        <pt x="279" y="1106" on="1"/>
        <pt x="396" y="1106" on="0"/>
        <pt x="526" y="964" on="0"/>
        <pt x="526" y="836" on="1"/>
        <pt x="526" y="747" on="0"/>
        <pt x="443" y="614" on="0"/>
        <pt x="379" y="588" on="1"/>
        <pt x="379" y="580" on="1"/>
        <pt x="464" y="552" on="0"/>
        <pt x="555" y="412" on="0"/>
        <pt x="555" y="305" on="1"/>
        <pt x="555" y="156" on="0"/>
        <pt x="396" y="-20" on="0"/>
        <pt x="268" y="-20" on="1"/>
        <pt x="128" y="-20" on="0"/>
        <pt x="51" y="51" on="1"/>
        <pt x="51" y="150" on="1"/>
        <pt x="93" y="117" on="0"/>
        <pt x="197" y="66" on="0"/>
        <pt x="268" y="66" on="1"/>
        <pt x="358" y="66" on="0"/>
        <pt x="457" y="188" on="0"/>
        <pt x="457" y="305" on="1"/>
        <pt x="457" y="408" on="0"/>
        <pt x="347" y="532" on="0"/>
        <pt x="252" y="532" on="1"/>
        <pt x="203" y="532" on="1"/>
        <pt x="203" y="618" on="1"/>
      </contour>
    </TTGlyph>
    <TTGlyph name="afii10074" xMin="145" yMin="0" xMax="737" yMax="1085">
      <contour>
        <pt x="240" y="1085" on="1"/>
        <pt x="240" y="352" on="1"/>
        <pt x="233" y="147" on="1"/>
        <pt x="618" y="1085" on="1"/>
        <pt x="737" y="1085" on="1"/>
        <pt x="737" y="0" on="1"/>
        <pt x="643" y="0" on="1"/>
        <pt x="643" y="702" on="1"/>
        <pt x="647" y="938" on="1"/>
        <pt x="262" y="0" on="1"/>
        <pt x="145" y="0" on="1"/>
        <pt x="145" y="1085" on="1"/>
      </contour>
    </TTGlyph>
    <TTGlyph name="afii10075" xMin="145" yMin="0" xMax="737" yMax="1522">
      <component glyphName="afii10074" x="0" y="0" flags="0x204"/>
      <component glyphName="cyrillicbreve" x="-144" y="0" flags="0x4"/>
    </TTGlyph>
    <TTGlyph name="afii10076" xMin="145" yMin="0" xMax="682" yMax="1085">
      <contour>
        <pt x="547" y="1085" on="1"/>
        <pt x="655" y="1085" on="1"/>
        <pt x="336" y="575" on="1"/>
        <pt x="682" y="0" on="1"/>
        <pt x="569" y="0" on="1"/>
        <pt x="240" y="567" on="1"/>
        <pt x="240" y="0" on="1"/>
        <pt x="145" y="0" on="1"/>
        <pt x="145" y="1085" on="1"/>
        <pt x="240" y="1085" on="1"/>
        <pt x="240" y="575" on="1"/>
      </contour>
    </TTGlyph>
    <TTGlyph name="afii10077" xMin="-10" yMin="-10" xMax="631" yMax="1085">
      <contour>
        <pt x="303" y="995" on="1"/>
        <pt x="292" y="718" on="0"/>
        <pt x="252" y="327" on="0"/>
        <pt x="196" y="96" on="0"/>
        <pt x="111" y="-10" on="0"/>
        <pt x="35" y="-10" on="1"/>
        <pt x="11" y="-10" on="0"/>
        <pt x="-10" y="-2" on="1"/>
        <pt x="-10" y="86" on="1"/>
        <pt x="2" y="80" on="0"/>
        <pt x="25" y="80" on="1"/>
        <pt x="84" y="80" on="0"/>
        <pt x="155" y="280" on="0"/>
        <pt x="201" y="708" on="0"/>
        <pt x="215" y="1085" on="1"/>
        <pt x="631" y="1085" on="1"/>
        <pt x="631" y="0" on="1"/>
        <pt x="537" y="0" on="1"/>
        <pt x="537" y="995" on="1"/>
      </contour>
    </TTGlyph>
    <TTGlyph name="afii10078" xMin="145" yMin="0" xMax="909" yMax="1085">
      <contour>
        <pt x="469" y="0" on="1"/>
        <pt x="233" y="938" on="1"/>
        <pt x="225" y="938" on="1"/>
        <pt x="236" y="707" on="0"/>
        <pt x="236" y="659" on="1"/>
        <pt x="236" y="0" on="1"/>
        <pt x="145" y="0" on="1"/>
        <pt x="145" y="1085" on="1"/>
        <pt x="283" y="1085" on="1"/>
        <pt x="463" y="377" on="1"/>
        <pt x="502" y="216" on="0"/>
        <pt x="520" y="106" on="1"/>
        <pt x="528" y="106" on="1"/>
        <pt x="529" y="121" on="0"/>
        <pt x="564" y="274" on="0"/>
        <pt x="772" y="1085" on="1"/>
        <pt x="909" y="1085" on="1"/>
        <pt x="909" y="0" on="1"/>
        <pt x="815" y="0" on="1"/>
        <pt x="815" y="653" on="1"/>
        <pt x="815" y="728" on="0"/>
        <pt x="825" y="938" on="1"/>
        <pt x="817" y="938" on="1"/>
        <pt x="580" y="0" on="1"/>
      </contour>
    </TTGlyph>
    <TTGlyph name="afii10079" xMin="145" yMin="0" xMax="737" yMax="1085">
      <contour>
        <pt x="240" y="1085" on="1"/>
        <pt x="240" y="610" on="1"/>
        <pt x="643" y="610" on="1"/>
        <pt x="643" y="1085" on="1"/>
        <pt x="737" y="1085" on="1"/>
        <pt x="737" y="0" on="1"/>
        <pt x="643" y="0" on="1"/>
        <pt x="643" y="524" on="1"/>
        <pt x="240" y="524" on="1"/>
        <pt x="240" y="0" on="1"/>
        <pt x="145" y="0" on="1"/>
        <pt x="145" y="1085" on="1"/>
      </contour>
    </TTGlyph>
    <TTGlyph name="afii10080" xMin="94" yMin="-20" xMax="756" yMax="1106">
      <component glyphName="o" x="0" y="0" flags="0x204"/>
    </TTGlyph>
    <TTGlyph name="afii10081" xMin="145" yMin="0" xMax="737" yMax="1085">
      <contour>
        <pt x="737" y="1085" on="1"/>
        <pt x="737" y="0" on="1"/>
        <pt x="643" y="0" on="1"/>
        <pt x="643" y="999" on="1"/>
        <pt x="240" y="999" on="1"/>
        <pt x="240" y="0" on="1"/>
        <pt x="145" y="0" on="1"/>
        <pt x="145" y="1085" on="1"/>
      </contour>
    </TTGlyph>
    <TTGlyph name="afii10082" xMin="145" yMin="-492" xMax="799" yMax="1106">
      <component glyphName="p" x="0" y="0" flags="0x204"/>
    </TTGlyph>
    <TTGlyph name="afii10083" xMin="96" yMin="-20" xMax="594" yMax="1106">
      <component glyphName="c" x="0" y="0" flags="0x204"/>
    </TTGlyph>
    <TTGlyph name="afii10084" xMin="16" yMin="0" xMax="496" yMax="1085">
      <contour>
        <pt x="496" y="1085" on="1"/>
        <pt x="496" y="999" on="1"/>
        <pt x="303" y="999" on="1"/>
        <pt x="303" y="0" on="1"/>
        <pt x="209" y="0" on="1"/>
        <pt x="209" y="999" on="1"/>
        <pt x="16" y="999" on="1"/>
        <pt x="16" y="1085" on="1"/>
      </contour>
    </TTGlyph>
    <TTGlyph name="afii10085" xMin="-2" yMin="-492" xMax="643" yMax="1085">
      <component glyphName="y" x="0" y="0" flags="0x204"/>
    </TTGlyph>
    <TTGlyph name="afii10086" xMin="96" yMin="-492" xMax="903" yMax="1556">
      <contour>
        <pt x="903" y="545" on="1"/>
        <pt x="903" y="295" on="0"/>
        <pt x="718" y="-1" on="0"/>
        <pt x="547" y="-20" on="1"/>
        <pt x="547" y="-492" on="1"/>
        <pt x="453" y="-492" on="1"/>
        <pt x="453" y="-20" on="1"/>
        <pt x="281" y="-5" on="0"/>
        <pt x="96" y="284" on="0"/>
        <pt x="96" y="545" on="1"/>
        <pt x="96" y="794" on="0"/>
        <pt x="280" y="1088" on="0"/>
        <pt x="453" y="1106" on="1"/>
        <pt x="453" y="1556" on="1"/>
        <pt x="547" y="1556" on="1"/>
        <pt x="547" y="1106" on="1"/>
        <pt x="719" y="1088" on="0"/>
        <pt x="903" y="794" on="0"/>
      </contour>
      <contour>
        <pt x="195" y="545" on="1"/>
        <pt x="195" y="332" on="0"/>
        <pt x="332" y="81" on="0"/>
        <pt x="453" y="66" on="1"/>
        <pt x="453" y="1020" on="1"/>
        <pt x="326" y="1003" on="0"/>
        <pt x="195" y="758" on="0"/>
      </contour>
      <contour>
        <pt x="805" y="545" on="1"/>
        <pt x="805" y="755" on="0"/>
        <pt x="670" y="1002" on="0"/>
        <pt x="547" y="1020" on="1"/>
        <pt x="547" y="66" on="1"/>
        <pt x="669" y="83" on="0"/>
        <pt x="805" y="336" on="0"/>
      </contour>
    </TTGlyph>
    <TTGlyph name="afii10087" xMin="35" yMin="0" xMax="641" yMax="1085">
      <component glyphName="x" x="0" y="0" flags="0x204"/>
    </TTGlyph>
    <TTGlyph name="afii10088" xMin="145" yMin="-369" xMax="848" yMax="1085">
      <contour>
        <pt x="737" y="90" on="1"/>
        <pt x="848" y="90" on="1"/>
        <pt x="848" y="-369" on="1"/>
        <pt x="754" y="-369" on="1"/>
        <pt x="754" y="0" on="1"/>
        <pt x="145" y="0" on="1"/>
        <pt x="145" y="1085" on="1"/>
        <pt x="240" y="1085" on="1"/>
        <pt x="240" y="90" on="1"/>
        <pt x="643" y="90" on="1"/>
        <pt x="643" y="1085" on="1"/>
        <pt x="737" y="1085" on="1"/>
      </contour>
    </TTGlyph>
    <TTGlyph name="afii10089" xMin="123" yMin="0" xMax="717" yMax="1085">
      <contour>
        <pt x="217" y="1085" on="1"/>
        <pt x="217" y="637" on="1"/>
        <pt x="217" y="545" on="0"/>
        <pt x="295" y="461" on="0"/>
        <pt x="360" y="461" on="1"/>
        <pt x="436" y="461" on="0"/>
        <pt x="572" y="540" on="0"/>
        <pt x="623" y="600" on="1"/>
        <pt x="623" y="1085" on="1"/>
        <pt x="717" y="1085" on="1"/>
        <pt x="717" y="0" on="1"/>
        <pt x="623" y="0" on="1"/>
        <pt x="623" y="498" on="1"/>
        <pt x="572" y="439" on="0"/>
        <pt x="427" y="373" on="0"/>
        <pt x="346" y="373" on="1"/>
        <pt x="123" y="373" on="0"/>
        <pt x="123" y="659" on="1"/>
        <pt x="123" y="1085" on="1"/>
      </contour>
    </TTGlyph>
    <TTGlyph name="afii10090" xMin="145" yMin="0" xMax="1034" yMax="1085">
      <contour>
        <pt x="145" y="0" on="1"/>
        <pt x="145" y="1085" on="1"/>
        <pt x="240" y="1085" on="1"/>
        <pt x="240" y="90" on="1"/>
        <pt x="543" y="90" on="1"/>
        <pt x="543" y="1085" on="1"/>
        <pt x="637" y="1085" on="1"/>
        <pt x="637" y="90" on="1"/>
        <pt x="940" y="90" on="1"/>
        <pt x="940" y="1085" on="1"/>
        <pt x="1034" y="1085" on="1"/>
        <pt x="1034" y="0" on="1"/>
      </contour>
    </TTGlyph>
    <TTGlyph name="afii10091" xMin="145" yMin="-369" xMax="1145" yMax="1085">
      <contour>
        <pt x="1145" y="90" on="1"/>
        <pt x="1145" y="-369" on="1"/>
        <pt x="1051" y="-369" on="1"/>
        <pt x="1051" y="0" on="1"/>
        <pt x="145" y="0" on="1"/>
        <pt x="145" y="1085" on="1"/>
        <pt x="240" y="1085" on="1"/>
        <pt x="240" y="90" on="1"/>
        <pt x="543" y="90" on="1"/>
        <pt x="543" y="1085" on="1"/>
        <pt x="637" y="1085" on="1"/>
        <pt x="637" y="90" on="1"/>
        <pt x="940" y="90" on="1"/>
        <pt x="940" y="1085" on="1"/>
        <pt x="1034" y="1085" on="1"/>
        <pt x="1034" y="90" on="1"/>
      </contour>
    </TTGlyph>
    <TTGlyph name="afii10092" xMin="16" yMin="0" xMax="811" yMax="1085">
      <contour>
        <pt x="344" y="610" on="1"/>
        <pt x="485" y="610" on="1"/>
        <pt x="643" y="610" on="0"/>
        <pt x="811" y="451" on="0"/>
        <pt x="811" y="305" on="1"/>
        <pt x="811" y="160" on="0"/>
        <pt x="639" y="0" on="0"/>
        <pt x="483" y="0" on="1"/>
        <pt x="250" y="0" on="1"/>
        <pt x="250" y="999" on="1"/>
        <pt x="16" y="999" on="1"/>
        <pt x="16" y="1085" on="1"/>
        <pt x="344" y="1085" on="1"/>
      </contour>
      <contour>
        <pt x="344" y="524" on="1"/>
        <pt x="344" y="86" on="1"/>
        <pt x="483" y="86" on="1"/>
        <pt x="713" y="86" on="0"/>
        <pt x="713" y="305" on="1"/>
        <pt x="713" y="524" on="0"/>
        <pt x="485" y="524" on="1"/>
      </contour>
    </TTGlyph>
    <TTGlyph name="afii10093" xMin="145" yMin="0" xMax="969" yMax="1085">
      <contour>
        <pt x="969" y="0" on="1"/>
        <pt x="874" y="0" on="1"/>
        <pt x="874" y="1085" on="1"/>
        <pt x="969" y="1085" on="1"/>
      </contour>
      <contour>
        <pt x="240" y="610" on="1"/>
        <pt x="381" y="610" on="1"/>
        <pt x="539" y="610" on="0"/>
        <pt x="707" y="451" on="0"/>
        <pt x="707" y="305" on="1"/>
        <pt x="707" y="160" on="0"/>
        <pt x="535" y="0" on="0"/>
        <pt x="379" y="0" on="1"/>
        <pt x="145" y="0" on="1"/>
        <pt x="145" y="1085" on="1"/>
        <pt x="240" y="1085" on="1"/>
      </contour>
      <contour>
        <pt x="240" y="524" on="1"/>
        <pt x="240" y="86" on="1"/>
        <pt x="379" y="86" on="1"/>
        <pt x="608" y="86" on="0"/>
        <pt x="608" y="305" on="1"/>
        <pt x="608" y="524" on="0"/>
        <pt x="381" y="524" on="1"/>
      </contour>
    </TTGlyph>
    <TTGlyph name="afii10094" xMin="145" yMin="0" xMax="707" yMax="1085">
      <contour>
        <pt x="240" y="610" on="1"/>
        <pt x="381" y="610" on="1"/>
        <pt x="539" y="610" on="0"/>
        <pt x="707" y="451" on="0"/>
        <pt x="707" y="305" on="1"/>
        <pt x="707" y="160" on="0"/>
        <pt x="535" y="0" on="0"/>
        <pt x="379" y="0" on="1"/>
        <pt x="145" y="0" on="1"/>
        <pt x="145" y="1085" on="1"/>
        <pt x="240" y="1085" on="1"/>
      </contour>
      <contour>
        <pt x="240" y="524" on="1"/>
        <pt x="240" y="86" on="1"/>
        <pt x="379" y="86" on="1"/>
        <pt x="608" y="86" on="0"/>
        <pt x="608" y="305" on="1"/>
        <pt x="608" y="524" on="0"/>
        <pt x="381" y="524" on="1"/>
      </contour>
    </TTGlyph>
    <TTGlyph name="afii10095" xMin="51" yMin="-20" xMax="586" yMax="1106">
      <contour>
        <pt x="225" y="-20" on="1"/>
        <pt x="179" y="-20" on="0"/>
        <pt x="83" y="1" on="0"/>
        <pt x="51" y="18" on="1"/>
        <pt x="51" y="109" on="1"/>
        <pt x="136" y="70" on="0"/>
        <pt x="219" y="70" on="1"/>
        <pt x="350" y="70" on="0"/>
        <pt x="482" y="287" on="0"/>
        <pt x="487" y="524" on="1"/>
        <pt x="193" y="524" on="1"/>
        <pt x="193" y="610" on="1"/>
        <pt x="485" y="610" on="1"/>
        <pt x="468" y="1016" on="0"/>
        <pt x="233" y="1016" on="1"/>
        <pt x="201" y="1016" on="0"/>
        <pt x="123" y="993" on="0"/>
        <pt x="104" y="981" on="1"/>
        <pt x="68" y="1067" on="1"/>
        <pt x="149" y="1106" on="0"/>
        <pt x="244" y="1106" on="1"/>
        <pt x="411" y="1106" on="0"/>
        <pt x="586" y="824" on="0"/>
        <pt x="586" y="549" on="1"/>
        <pt x="586" y="269" on="0"/>
        <pt x="405" y="-20" on="0"/>
      </contour>
    </TTGlyph>
    <TTGlyph name="afii10096" xMin="145" yMin="-20" xMax="1079" yMax="1106">
      <contour>
        <pt x="1079" y="545" on="1"/>
        <pt x="1079" y="274" on="0"/>
        <pt x="916" y="-20" on="0"/>
        <pt x="762" y="-20" on="1"/>
        <pt x="612" y="-20" on="0"/>
        <pt x="453" y="266" on="0"/>
        <pt x="451" y="524" on="1"/>
        <pt x="240" y="524" on="1"/>
        <pt x="240" y="0" on="1"/>
        <pt x="145" y="0" on="1"/>
        <pt x="145" y="1085" on="1"/>
        <pt x="240" y="1085" on="1"/>
        <pt x="240" y="610" on="1"/>
        <pt x="451" y="610" on="1"/>
        <pt x="466" y="1106" on="0"/>
        <pt x="766" y="1106" on="1"/>
        <pt x="915" y="1106" on="0"/>
        <pt x="1079" y="813" on="0"/>
      </contour>
      <contour>
        <pt x="549" y="545" on="1"/>
        <pt x="549" y="66" on="0"/>
        <pt x="764" y="66" on="1"/>
        <pt x="981" y="66" on="0"/>
        <pt x="981" y="545" on="1"/>
        <pt x="981" y="1016" on="0"/>
        <pt x="764" y="1016" on="1"/>
        <pt x="651" y="1016" on="0"/>
        <pt x="549" y="780" on="0"/>
      </contour>
    </TTGlyph>
    <TTGlyph name="afii10097" xMin="49" yMin="0" xMax="651" yMax="1085">
      <contour>
        <pt x="557" y="479" on="1"/>
        <pt x="432" y="479" on="1"/>
        <pt x="160" y="0" on="1"/>
        <pt x="49" y="0" on="1"/>
        <pt x="338" y="485" on="1"/>
        <pt x="216" y="507" on="0"/>
        <pt x="90" y="658" on="0"/>
        <pt x="90" y="782" on="1"/>
        <pt x="90" y="928" on="0"/>
        <pt x="270" y="1085" on="0"/>
        <pt x="430" y="1085" on="1"/>
        <pt x="651" y="1085" on="1"/>
        <pt x="651" y="0" on="1"/>
        <pt x="557" y="0" on="1"/>
      </contour>
      <contour>
        <pt x="557" y="565" on="1"/>
        <pt x="557" y="999" on="1"/>
        <pt x="430" y="999" on="1"/>
        <pt x="188" y="999" on="0"/>
        <pt x="188" y="782" on="1"/>
        <pt x="188" y="565" on="0"/>
        <pt x="428" y="565" on="1"/>
      </contour>
    </TTGlyph>
    <TTGlyph name="afii10098" xMin="145" yMin="0" xMax="543" yMax="1411">
      <contour>
        <pt x="453" y="1085" on="1"/>
        <pt x="453" y="1411" on="1"/>
        <pt x="543" y="1411" on="1"/>
        <pt x="543" y="995" on="1"/>
        <pt x="240" y="995" on="1"/>
        <pt x="240" y="0" on="1"/>
        <pt x="145" y="0" on="1"/>
        <pt x="145" y="1085" on="1"/>
      </contour>
    </TTGlyph>
    <TTGlyph name="afii10099" xMin="27" yMin="-492" xMax="729" yMax="1556">
      <contour>
        <pt x="635" y="748" on="1"/>
        <pt x="635" y="895" on="0"/>
        <pt x="558" y="1018" on="0"/>
        <pt x="471" y="1018" on="1"/>
        <pt x="356" y="1018" on="0"/>
        <pt x="240" y="814" on="0"/>
        <pt x="240" y="594" on="1"/>
        <pt x="240" y="0" on="1"/>
        <pt x="145" y="0" on="1"/>
        <pt x="145" y="1270" on="1"/>
        <pt x="27" y="1270" on="1"/>
        <pt x="27" y="1354" on="1"/>
        <pt x="145" y="1354" on="1"/>
        <pt x="145" y="1556" on="1"/>
        <pt x="240" y="1556" on="1"/>
        <pt x="240" y="1354" on="1"/>
        <pt x="502" y="1354" on="1"/>
        <pt x="502" y="1270" on="1"/>
        <pt x="240" y="1270" on="1"/>
        <pt x="240" y="1051" on="1"/>
        <pt x="240" y="982" on="0"/>
        <pt x="236" y="936" on="1"/>
        <pt x="244" y="936" on="1"/>
        <pt x="276" y="1017" on="0"/>
        <pt x="405" y="1106" on="0"/>
        <pt x="475" y="1106" on="1"/>
        <pt x="613" y="1106" on="0"/>
        <pt x="729" y="926" on="0"/>
        <pt x="729" y="748" on="1"/>
        <pt x="729" y="-201" on="1"/>
        <pt x="729" y="-492" on="0"/>
        <pt x="553" y="-492" on="1"/>
        <pt x="513" y="-492" on="0"/>
        <pt x="485" y="-475" on="1"/>
        <pt x="485" y="-385" on="1"/>
        <pt x="520" y="-401" on="0"/>
        <pt x="549" y="-401" on="1"/>
        <pt x="635" y="-401" on="0"/>
        <pt x="635" y="-215" on="1"/>
      </contour>
    </TTGlyph>
    <TTGlyph name="afii10100" xMin="145" yMin="0" xMax="591" yMax="1569">
      <component glyphName="afii10068" x="0" y="0" flags="0x204"/>
      <component glyphName="acute" x="-159" y="0" flags="0x4"/>
    </TTGlyph>
    <TTGlyph name="afii10101" xMin="96" yMin="-20" xMax="625" yMax="1106">
      <contour>
        <pt x="195" y="524" on="1"/>
        <pt x="199" y="70" on="0"/>
        <pt x="453" y="70" on="1"/>
        <pt x="535" y="70" on="0"/>
        <pt x="618" y="109" on="1"/>
        <pt x="618" y="18" on="1"/>
        <pt x="586" y="1" on="0"/>
        <pt x="486" y="-20" on="0"/>
        <pt x="444" y="-20" on="1"/>
        <pt x="271" y="-20" on="0"/>
        <pt x="96" y="262" on="0"/>
        <pt x="96" y="537" on="1"/>
        <pt x="96" y="815" on="0"/>
        <pt x="273" y="1106" on="0"/>
        <pt x="446" y="1106" on="1"/>
        <pt x="544" y="1106" on="0"/>
        <pt x="625" y="1067" on="1"/>
        <pt x="590" y="981" on="1"/>
        <pt x="568" y="994" on="0"/>
        <pt x="491" y="1016" on="0"/>
        <pt x="455" y="1016" on="1"/>
        <pt x="214" y="1016" on="0"/>
        <pt x="195" y="610" on="1"/>
        <pt x="489" y="610" on="1"/>
        <pt x="489" y="524" on="1"/>
      </contour>
    </TTGlyph>
    <TTGlyph name="afii10102" xMin="74" yMin="-20" xMax="573" yMax="1106">
      <component glyphName="s" x="0" y="0" flags="0x204"/>
    </TTGlyph>
    <TTGlyph name="afii10103" xMin="131" yMin="0" xMax="256" yMax="1481">
      <component glyphName="i" x="0" y="0" flags="0x204"/>
    </TTGlyph>
    <TTGlyph name="afii10104" xMin="-20" yMin="0" xMax="410" yMax="1470">
      <component glyphName="dotlessi" x="0" y="0" flags="0x204"/>
      <component glyphName="dieresis" x="-368" y="0" flags="0x4"/>
    </TTGlyph>
    <TTGlyph name="afii10105" xMin="-4" yMin="-492" xMax="256" yMax="1481">
      <component glyphName="j" x="0" y="0" flags="0x204"/>
    </TTGlyph>
    <TTGlyph name="afii10106" xMin="-10" yMin="-10" xMax="1065" yMax="1085">
      <contour>
        <pt x="598" y="610" on="1"/>
        <pt x="739" y="610" on="1"/>
        <pt x="897" y="610" on="0"/>
        <pt x="1065" y="451" on="0"/>
        <pt x="1065" y="305" on="1"/>
        <pt x="1065" y="160" on="0"/>
        <pt x="893" y="0" on="0"/>
        <pt x="737" y="0" on="1"/>
        <pt x="504" y="0" on="1"/>
        <pt x="504" y="995" on="1"/>
        <pt x="303" y="995" on="1"/>
        <pt x="292" y="718" on="0"/>
        <pt x="252" y="327" on="0"/>
        <pt x="196" y="96" on="0"/>
        <pt x="111" y="-10" on="0"/>
        <pt x="35" y="-10" on="1"/>
        <pt x="11" y="-10" on="0"/>
        <pt x="-10" y="-2" on="1"/>
        <pt x="-10" y="86" on="1"/>
        <pt x="2" y="80" on="0"/>
        <pt x="25" y="80" on="1"/>
        <pt x="84" y="80" on="0"/>
        <pt x="155" y="280" on="0"/>
        <pt x="201" y="708" on="0"/>
        <pt x="215" y="1085" on="1"/>
        <pt x="598" y="1085" on="1"/>
      </contour>
      <contour>
        <pt x="598" y="524" on="1"/>
        <pt x="598" y="86" on="1"/>
        <pt x="737" y="86" on="1"/>
        <pt x="967" y="86" on="0"/>
        <pt x="967" y="305" on="1"/>
        <pt x="967" y="524" on="0"/>
        <pt x="739" y="524" on="1"/>
      </contour>
    </TTGlyph>
    <TTGlyph name="afii10107" xMin="145" yMin="0" xMax="1180" yMax="1085">
      <contour>
        <pt x="713" y="610" on="1"/>
        <pt x="854" y="610" on="1"/>
        <pt x="1012" y="610" on="0"/>
        <pt x="1180" y="451" on="0"/>
        <pt x="1180" y="305" on="1"/>
        <pt x="1180" y="160" on="0"/>
        <pt x="1008" y="0" on="0"/>
        <pt x="852" y="0" on="1"/>
        <pt x="618" y="0" on="1"/>
        <pt x="618" y="524" on="1"/>
        <pt x="240" y="524" on="1"/>
        <pt x="240" y="0" on="1"/>
        <pt x="145" y="0" on="1"/>
        <pt x="145" y="1085" on="1"/>
        <pt x="240" y="1085" on="1"/>
        <pt x="240" y="610" on="1"/>
        <pt x="618" y="610" on="1"/>
        <pt x="618" y="1085" on="1"/>
        <pt x="713" y="1085" on="1"/>
      </contour>
      <contour>
        <pt x="713" y="524" on="1"/>
        <pt x="713" y="86" on="1"/>
        <pt x="852" y="86" on="1"/>
        <pt x="1081" y="86" on="0"/>
        <pt x="1081" y="305" on="1"/>
        <pt x="1081" y="524" on="0"/>
        <pt x="854" y="524" on="1"/>
      </contour>
    </TTGlyph>
    <TTGlyph name="afii10108" xMin="27" yMin="0" xMax="729" yMax="1556">
      <component glyphName="hbar" x="0" y="0" flags="0x204"/>
    </TTGlyph>
    <TTGlyph name="afii10109" xMin="145" yMin="0" xMax="682" yMax="1569">
      <component glyphName="afii10076" x="0" y="0" flags="0x204"/>
      <component glyphName="acute" x="-83" y="0" flags="0x4"/>
    </TTGlyph>
    <TTGlyph name="afii10110" xMin="-2" yMin="-492" xMax="643" yMax="1522">
      <component glyphName="y" x="0" y="0" flags="0x204"/>
      <component glyphName="cyrillicbreve" x="-261" y="0" flags="0x4"/>
    </TTGlyph>
    <TTGlyph name="afii10145" xMin="160" yMin="-369" xMax="866" yMax="1462">
      <contour>
        <pt x="160" y="1462" on="1"/>
        <pt x="258" y="1462" on="1"/>
        <pt x="258" y="94" on="1"/>
        <pt x="768" y="94" on="1"/>
        <pt x="768" y="1462" on="1"/>
        <pt x="866" y="1462" on="1"/>
        <pt x="866" y="0" on="1"/>
        <pt x="561" y="0" on="1"/>
        <pt x="561" y="-369" on="1"/>
        <pt x="467" y="-369" on="1"/>
        <pt x="467" y="0" on="1"/>
        <pt x="160" y="0" on="1"/>
      </contour>
    </TTGlyph>
    <TTGlyph name="afii10193" xMin="145" yMin="-369" xMax="737" yMax="1085">
      <contour>
        <pt x="145" y="0" on="1"/>
        <pt x="145" y="1085" on="1"/>
        <pt x="240" y="1085" on="1"/>
        <pt x="240" y="90" on="1"/>
        <pt x="643" y="90" on="1"/>
        <pt x="643" y="1085" on="1"/>
        <pt x="737" y="1085" on="1"/>
        <pt x="737" y="0" on="1"/>
        <pt x="487" y="0" on="1"/>
        <pt x="487" y="-369" on="1"/>
        <pt x="393" y="-369" on="1"/>
        <pt x="393" y="0" on="1"/>
      </contour>
    </TTGlyph>
    <TTGlyph name="afii61248" xMin="82" yMin="-8" xMax="1040" yMax="1473">
      <contour>
        <pt x="823" y="1462" on="1"/>
        <pt x="344" y="0" on="1"/>
        <pt x="260" y="0" on="1"/>
        <pt x="739" y="1462" on="1"/>
      </contour>
      <contour>
        <pt x="1040" y="334" on="1"/>
        <pt x="1040" y="167" on="0"/>
        <pt x="923" y="-8" on="0"/>
        <pt x="823" y="-8" on="1"/>
        <pt x="726" y="-8" on="0"/>
        <pt x="610" y="168" on="0"/>
        <pt x="610" y="334" on="1"/>
        <pt x="610" y="492" on="0"/>
        <pt x="725" y="676" on="0"/>
        <pt x="827" y="676" on="1"/>
        <pt x="924" y="676" on="0"/>
        <pt x="1040" y="502" on="0"/>
      </contour>
      <contour>
        <pt x="700" y="334" on="1"/>
        <pt x="700" y="211" on="0"/>
        <pt x="768" y="74" on="0"/>
        <pt x="827" y="74" on="1"/>
        <pt x="884" y="74" on="0"/>
        <pt x="950" y="212" on="0"/>
        <pt x="950" y="334" on="1"/>
        <pt x="950" y="456" on="0"/>
        <pt x="884" y="594" on="0"/>
        <pt x="827" y="594" on="1"/>
        <pt x="767" y="594" on="0"/>
        <pt x="700" y="457" on="0"/>
      </contour>
      <contour>
        <pt x="311" y="788" on="1"/>
        <pt x="202" y="788" on="0"/>
        <pt x="82" y="964" on="0"/>
        <pt x="82" y="1128" on="1"/>
        <pt x="82" y="1285" on="0"/>
        <pt x="208" y="1473" on="0"/>
        <pt x="317" y="1473" on="1"/>
        <pt x="380" y="1473" on="0"/>
        <pt x="459" y="1438" on="1"/>
        <pt x="428" y="1358" on="1"/>
        <pt x="373" y="1391" on="0"/>
        <pt x="315" y="1391" on="1"/>
        <pt x="250" y="1391" on="0"/>
        <pt x="172" y="1251" on="0"/>
        <pt x="172" y="1130" on="1"/>
        <pt x="172" y="870" on="0"/>
        <pt x="330" y="870" on="1"/>
        <pt x="387" y="870" on="0"/>
        <pt x="444" y="905" on="1"/>
        <pt x="444" y="825" on="1"/>
        <pt x="384" y="788" on="0"/>
      </contour>
    </TTGlyph>
    <TTGlyph name="afii61289" xMin="94" yMin="-18" xMax="717" yMax="1483">
      <contour>
        <pt x="465" y="68" on="1"/>
        <pt x="547" y="68" on="0"/>
        <pt x="625" y="183" on="0"/>
        <pt x="627" y="301" on="1"/>
        <pt x="717" y="301" on="1"/>
        <pt x="714" y="146" on="0"/>
        <pt x="584" y="-18" on="0"/>
        <pt x="465" y="-18" on="1"/>
        <pt x="344" y="-18" on="0"/>
        <pt x="231" y="146" on="0"/>
        <pt x="231" y="311" on="1"/>
        <pt x="231" y="596" on="1"/>
        <pt x="199" y="579" on="0"/>
        <pt x="94" y="545" on="1"/>
        <pt x="94" y="631" on="1"/>
        <pt x="165" y="651" on="0"/>
        <pt x="231" y="682" on="1"/>
        <pt x="231" y="1188" on="1"/>
        <pt x="231" y="1334" on="0"/>
        <pt x="333" y="1483" on="0"/>
        <pt x="428" y="1483" on="1"/>
        <pt x="527" y="1483" on="0"/>
        <pt x="635" y="1329" on="0"/>
        <pt x="635" y="1190" on="1"/>
        <pt x="635" y="1005" on="0"/>
        <pt x="479" y="719" on="0"/>
        <pt x="326" y="631" on="1"/>
        <pt x="326" y="330" on="1"/>
        <pt x="326" y="200" on="0"/>
        <pt x="392" y="68" on="0"/>
      </contour>
      <contour>
        <pt x="541" y="1188" on="1"/>
        <pt x="541" y="1293" on="0"/>
        <pt x="481" y="1397" on="0"/>
        <pt x="430" y="1397" on="1"/>
        <pt x="376" y="1397" on="0"/>
        <pt x="326" y="1303" on="0"/>
        <pt x="326" y="1188" on="1"/>
        <pt x="326" y="717" on="1"/>
        <pt x="541" y="865" on="0"/>
      </contour>
    </TTGlyph>
    <TTGlyph name="afii61352" xMin="160" yMin="0" xMax="1419" yMax="1462">
      <contour>
        <pt x="1419" y="612" on="1"/>
        <pt x="1419" y="451" on="0"/>
        <pt x="1292" y="274" on="0"/>
        <pt x="1180" y="274" on="1"/>
        <pt x="946" y="274" on="0"/>
        <pt x="946" y="612" on="1"/>
        <pt x="946" y="775" on="0"/>
        <pt x="1071" y="948" on="0"/>
        <pt x="1182" y="948" on="1"/>
        <pt x="1294" y="948" on="0"/>
        <pt x="1419" y="784" on="0"/>
      </contour>
      <contour>
        <pt x="1040" y="612" on="1"/>
        <pt x="1040" y="477" on="0"/>
        <pt x="1109" y="360" on="0"/>
        <pt x="1180" y="360" on="1"/>
        <pt x="1253" y="360" on="0"/>
        <pt x="1325" y="479" on="0"/>
        <pt x="1325" y="614" on="1"/>
        <pt x="1325" y="740" on="0"/>
        <pt x="1255" y="862" on="0"/>
        <pt x="1180" y="862" on="1"/>
        <pt x="1107" y="862" on="0"/>
        <pt x="1040" y="745" on="0"/>
      </contour>
      <contour>
        <pt x="1360" y="0" on="1"/>
        <pt x="995" y="0" on="1"/>
        <pt x="995" y="86" on="1"/>
        <pt x="1360" y="86" on="1"/>
      </contour>
      <contour>
        <pt x="827" y="0" on="1"/>
        <pt x="702" y="0" on="1"/>
        <pt x="252" y="1286" on="1"/>
        <pt x="244" y="1286" on="1"/>
        <pt x="256" y="1150" on="0"/>
        <pt x="256" y="1024" on="1"/>
        <pt x="256" y="0" on="1"/>
        <pt x="160" y="0" on="1"/>
        <pt x="160" y="1462" on="1"/>
        <pt x="287" y="1462" on="1"/>
        <pt x="733" y="190" on="1"/>
        <pt x="741" y="190" on="1"/>
        <pt x="731" y="323" on="0"/>
        <pt x="731" y="465" on="1"/>
        <pt x="731" y="1462" on="1"/>
        <pt x="827" y="1462" on="1"/>
      </contour>
    </TTGlyph>
    <TTGlyph name="agrave" xMin="78" yMin="-20" xMax="643" yMax="1569">
      <component glyphName="a" x="0" y="0" flags="0x204"/>
      <component glyphName="grave" x="-271" y="0" flags="0x4"/>
    </TTGlyph>
    <TTGlyph name="alpha" xMin="96" yMin="-20" xMax="891" yMax="1106">
      <contour>
        <pt x="750" y="213" on="1"/>
        <pt x="750" y="57" on="0"/>
        <pt x="827" y="57" on="1"/>
        <pt x="862" y="57" on="0"/>
        <pt x="891" y="70" on="1"/>
        <pt x="891" y="-4" on="1"/>
        <pt x="865" y="-20" on="0"/>
        <pt x="823" y="-20" on="1"/>
        <pt x="751" y="-20" on="0"/>
        <pt x="673" y="61" on="0"/>
        <pt x="664" y="156" on="1"/>
        <pt x="655" y="156" on="1"/>
        <pt x="616" y="71" on="0"/>
        <pt x="486" y="-20" on="0"/>
        <pt x="408" y="-20" on="1"/>
        <pt x="257" y="-20" on="0"/>
        <pt x="96" y="257" on="0"/>
        <pt x="96" y="541" on="1"/>
        <pt x="96" y="828" on="0"/>
        <pt x="264" y="1106" on="0"/>
        <pt x="412" y="1106" on="1"/>
        <pt x="577" y="1106" on="0"/>
        <pt x="664" y="926" on="1"/>
        <pt x="672" y="926" on="1"/>
        <pt x="675" y="962" on="0"/>
        <pt x="702" y="1054" on="0"/>
        <pt x="719" y="1085" on="1"/>
        <pt x="784" y="1085" on="1"/>
        <pt x="750" y="983" on="0"/>
        <pt x="750" y="737" on="1"/>
      </contour>
      <contour>
        <pt x="422" y="66" on="1"/>
        <pt x="536" y="66" on="0"/>
        <pt x="655" y="301" on="0"/>
        <pt x="655" y="514" on="1"/>
        <pt x="655" y="541" on="1"/>
        <pt x="655" y="787" on="0"/>
        <pt x="536" y="1016" on="0"/>
        <pt x="414" y="1016" on="1"/>
        <pt x="297" y="1016" on="0"/>
        <pt x="195" y="771" on="0"/>
        <pt x="195" y="539" on="1"/>
        <pt x="195" y="290" on="0"/>
        <pt x="304" y="66" on="0"/>
      </contour>
    </TTGlyph>
    <TTGlyph name="alphatonos" xMin="96" yMin="-20" xMax="891" yMax="1610">
      <component glyphName="alpha" x="0" y="0" flags="0x204"/>
      <component glyphName="tonos" x="-167" y="0" flags="0x4"/>
    </TTGlyph>
    <TTGlyph name="amacron" xMin="78" yMin="-20" xMax="643" yMax="1333">
      <component glyphName="a" x="0" y="0" flags="0x204"/>
      <component glyphName="macron" x="-155" y="0" flags="0x4"/>
    </TTGlyph>
    <TTGlyph name="ampersand" xMin="66" yMin="-20" xMax="836" yMax="1483">
      <contour>
        <pt x="727" y="0" on="1"/>
        <pt x="629" y="178" on="1"/>
        <pt x="556" y="68" on="0"/>
        <pt x="418" y="-20" on="0"/>
        <pt x="328" y="-20" on="1"/>
        <pt x="206" y="-20" on="0"/>
        <pt x="66" y="178" on="0"/>
        <pt x="66" y="356" on="1"/>
        <pt x="66" y="447" on="0"/>
        <pt x="110" y="590" on="0"/>
        <pt x="196" y="711" on="0"/>
        <pt x="285" y="788" on="1"/>
        <pt x="211" y="924" on="0"/>
        <pt x="166" y="1097" on="0"/>
        <pt x="166" y="1204" on="1"/>
        <pt x="166" y="1336" on="0"/>
        <pt x="270" y="1483" on="0"/>
        <pt x="360" y="1483" on="1"/>
        <pt x="451" y="1483" on="0"/>
        <pt x="555" y="1332" on="0"/>
        <pt x="555" y="1194" on="1"/>
        <pt x="555" y="1056" on="0"/>
        <pt x="479" y="862" on="0"/>
        <pt x="391" y="774" on="1"/>
        <pt x="627" y="352" on="1"/>
        <pt x="684" y="470" on="0"/>
        <pt x="684" y="645" on="1"/>
        <pt x="778" y="645" on="1"/>
        <pt x="778" y="551" on="0"/>
        <pt x="720" y="331" on="0"/>
        <pt x="680" y="260" on="1"/>
        <pt x="836" y="0" on="1"/>
      </contour>
      <contour>
        <pt x="162" y="354" on="1"/>
        <pt x="162" y="219" on="0"/>
        <pt x="257" y="74" on="0"/>
        <pt x="336" y="74" on="1"/>
        <pt x="408" y="74" on="0"/>
        <pt x="526" y="166" on="0"/>
        <pt x="580" y="262" on="1"/>
        <pt x="326" y="717" on="1"/>
        <pt x="231" y="629" on="0"/>
        <pt x="162" y="470" on="0"/>
      </contour>
      <contour>
        <pt x="461" y="1194" on="1"/>
        <pt x="461" y="1393" on="0"/>
        <pt x="356" y="1393" on="1"/>
        <pt x="310" y="1393" on="0"/>
        <pt x="260" y="1291" on="0"/>
        <pt x="260" y="1194" on="1"/>
        <pt x="260" y="1107" on="0"/>
        <pt x="309" y="915" on="0"/>
        <pt x="348" y="850" on="1"/>
        <pt x="413" y="916" on="0"/>
        <pt x="461" y="1088" on="0"/>
      </contour>
    </TTGlyph>
    <TTGlyph name="anoteleia" xMin="133" yMin="615" xMax="289" yMax="828">
      <component glyphName="period" x="0" y="631" flags="0x4"/>
    </TTGlyph>
    <TTGlyph name="aogonek" xMin="78" yMin="-446" xMax="661" yMax="1106">
      <component glyphName="a" x="0" y="0" flags="0x204"/>
      <component glyphName="ogonek" x="350" y="0" flags="0x4"/>
    </TTGlyph>
    <TTGlyph name="approxequal" xMin="59" yMin="398" xMax="760" yMax="1038">
      <component glyphName="asciitilde" x="0" y="211" flags="0x4"/>
      <component glyphName="asciitilde" x="0" y="-220" flags="0x4"/>
    </TTGlyph>
    <TTGlyph name="aring" xMin="78" yMin="-20" xMax="643" yMax="1624">
      <component glyphName="a" x="0" y="0" flags="0x204"/>
      <component glyphName="ring" x="-208" y="0" flags="0x4"/>
    </TTGlyph>
    <TTGlyph name="aringacute" xMin="78" yMin="-20" xMax="649" yMax="1954">
      <component glyphName="a" x="0" y="0" flags="0x204"/>
      <component glyphName="ring" x="-183" y="-40" flags="0x4"/>
      <component glyphName="acute" x="-101" y="385" flags="0x4"/>
    </TTGlyph>
    <TTGlyph name="asciicircum" xMin="37" yMin="758" xMax="782" yMax="1460">
      <contour>
        <pt x="37" y="758" on="1"/>
        <pt x="375" y="1460" on="1"/>
        <pt x="442" y="1460" on="1"/>
        <pt x="782" y="758" on="1"/>
        <pt x="680" y="758" on="1"/>
        <pt x="410" y="1348" on="1"/>
        <pt x="137" y="758" on="1"/>
      </contour>
    </TTGlyph>
    <TTGlyph name="asciitilde" xMin="59" yMin="618" xMax="760" yMax="827">
      <contour>
        <pt x="242" y="739" on="1"/>
        <pt x="201" y="739" on="0"/>
        <pt x="102" y="674" on="0"/>
        <pt x="59" y="618" on="1"/>
        <pt x="59" y="717" on="1"/>
        <pt x="134" y="823" on="0"/>
        <pt x="244" y="823" on="1"/>
        <pt x="283" y="823" on="0"/>
        <pt x="355" y="804" on="0"/>
        <pt x="428" y="764" on="1"/>
        <pt x="477" y="736" on="0"/>
        <pt x="545" y="711" on="0"/>
        <pt x="580" y="711" on="1"/>
        <pt x="629" y="711" on="0"/>
        <pt x="723" y="776" on="0"/>
        <pt x="760" y="827" on="1"/>
        <pt x="760" y="729" on="1"/>
        <pt x="687" y="625" on="0"/>
        <pt x="580" y="625" on="1"/>
        <pt x="531" y="625" on="0"/>
        <pt x="462" y="646" on="0"/>
        <pt x="393" y="684" on="1"/>
        <pt x="334" y="717" on="0"/>
        <pt x="274" y="739" on="0"/>
      </contour>
    </TTGlyph>
    <TTGlyph name="asterisk" xMin="94" yMin="975" xMax="651" yMax="1556">
      <contour>
        <pt x="434" y="1556" on="1"/>
        <pt x="406" y="1307" on="1"/>
        <pt x="637" y="1364" on="1"/>
        <pt x="651" y="1257" on="1"/>
        <pt x="424" y="1249" on="1"/>
        <pt x="580" y="1022" on="1"/>
        <pt x="483" y="977" on="1"/>
        <pt x="375" y="1214" on="1"/>
        <pt x="258" y="975" on="1"/>
        <pt x="166" y="1022" on="1"/>
        <pt x="315" y="1249" on="1"/>
        <pt x="94" y="1255" on="1"/>
        <pt x="111" y="1362" on="1"/>
        <pt x="340" y="1307" on="1"/>
        <pt x="313" y="1556" on="1"/>
      </contour>
    </TTGlyph>
    <TTGlyph name="at" xMin="111" yMin="-180" xMax="1130" yMax="1473">
      <contour>
        <pt x="1130" y="735" on="1"/>
        <pt x="1130" y="231" on="0"/>
        <pt x="905" y="231" on="1"/>
        <pt x="822" y="231" on="0"/>
        <pt x="750" y="339" on="0"/>
        <pt x="748" y="438" on="1"/>
        <pt x="739" y="438" on="1"/>
        <pt x="722" y="330" on="0"/>
        <pt x="648" y="231" on="0"/>
        <pt x="582" y="231" on="1"/>
        <pt x="494" y="231" on="0"/>
        <pt x="397" y="418" on="0"/>
        <pt x="397" y="588" on="1"/>
        <pt x="397" y="1061" on="0"/>
        <pt x="659" y="1061" on="1"/>
        <pt x="747" y="1061" on="0"/>
        <pt x="823" y="1032" on="1"/>
        <pt x="803" y="555" on="1"/>
        <pt x="803" y="494" on="1"/>
        <pt x="803" y="403" on="0"/>
        <pt x="856" y="326" on="0"/>
        <pt x="905" y="326" on="1"/>
        <pt x="973" y="326" on="0"/>
        <pt x="1032" y="530" on="0"/>
        <pt x="1032" y="741" on="1"/>
        <pt x="1032" y="931" on="0"/>
        <pt x="937" y="1223" on="0"/>
        <pt x="764" y="1384" on="0"/>
        <pt x="653" y="1384" on="1"/>
        <pt x="520" y="1384" on="0"/>
        <pt x="314" y="1186" on="0"/>
        <pt x="203" y="827" on="0"/>
        <pt x="203" y="596" on="1"/>
        <pt x="203" y="270" on="0"/>
        <pt x="408" y="-94" on="0"/>
        <pt x="590" y="-94" on="1"/>
        <pt x="659" y="-94" on="0"/>
        <pt x="778" y="-54" on="0"/>
        <pt x="815" y="-25" on="1"/>
        <pt x="815" y="-119" on="1"/>
        <pt x="765" y="-150" on="0"/>
        <pt x="657" y="-180" on="0"/>
        <pt x="584" y="-180" on="1"/>
        <pt x="354" y="-180" on="0"/>
        <pt x="111" y="209" on="0"/>
        <pt x="111" y="580" on="1"/>
        <pt x="111" y="854" on="0"/>
        <pt x="243" y="1258" on="0"/>
        <pt x="491" y="1473" on="0"/>
        <pt x="655" y="1473" on="1"/>
        <pt x="793" y="1473" on="0"/>
        <pt x="1012" y="1287" on="0"/>
        <pt x="1130" y="950" on="0"/>
      </contour>
      <contour>
        <pt x="496" y="584" on="1"/>
        <pt x="496" y="326" on="0"/>
        <pt x="600" y="326" on="1"/>
        <pt x="645" y="326" on="0"/>
        <pt x="696" y="492" on="0"/>
        <pt x="705" y="666" on="1"/>
        <pt x="721" y="971" on="1"/>
        <pt x="694" y="979" on="0"/>
        <pt x="649" y="979" on="1"/>
        <pt x="575" y="979" on="0"/>
        <pt x="496" y="779" on="0"/>
      </contour>
    </TTGlyph>
    <TTGlyph name="atilde" xMin="78" yMin="-20" xMax="677" yMax="1454">
      <component glyphName="a" x="0" y="0" flags="0x204"/>
      <component glyphName="tilde" x="-181" y="0" flags="0x4"/>
    </TTGlyph>
    <TTGlyph name="b" xMin="145" yMin="-20" xMax="799" yMax="1556">
      <contour>
        <pt x="481" y="1104" on="1"/>
        <pt x="799" y="1104" on="0"/>
        <pt x="799" y="545" on="1"/>
        <pt x="799" y="269" on="0"/>
        <pt x="641" y="-20" on="0"/>
        <pt x="492" y="-20" on="1"/>
        <pt x="414" y="-20" on="0"/>
        <pt x="286" y="66" on="0"/>
        <pt x="244" y="150" on="1"/>
        <pt x="236" y="150" on="1"/>
        <pt x="223" y="0" on="1"/>
        <pt x="145" y="0" on="1"/>
        <pt x="145" y="1556" on="1"/>
        <pt x="240" y="1556" on="1"/>
        <pt x="240" y="1073" on="1"/>
        <pt x="236" y="942" on="1"/>
        <pt x="244" y="942" on="1"/>
        <pt x="330" y="1104" on="0"/>
      </contour>
      <contour>
        <pt x="477" y="1016" on="1"/>
        <pt x="352" y="1016" on="0"/>
        <pt x="240" y="796" on="0"/>
        <pt x="240" y="545" on="1"/>
        <pt x="240" y="520" on="1"/>
        <pt x="240" y="66" on="0"/>
        <pt x="481" y="66" on="1"/>
        <pt x="591" y="66" on="0"/>
        <pt x="700" y="300" on="0"/>
        <pt x="700" y="545" on="1"/>
        <pt x="700" y="780" on="0"/>
        <pt x="594" y="1016" on="0"/>
      </contour>
    </TTGlyph>
    <TTGlyph name="backslash" xMin="51" yMin="0" xMax="674" yMax="1462">
      <contour>
        <pt x="147" y="1462" on="1"/>
        <pt x="674" y="0" on="1"/>
        <pt x="573" y="0" on="1"/>
        <pt x="51" y="1462" on="1"/>
      </contour>
    </TTGlyph>
    <TTGlyph name="bar" xMin="362" yMin="-492" xMax="457" yMax="1556">
      <contour>
        <pt x="457" y="-492" on="1"/>
        <pt x="362" y="-492" on="1"/>
        <pt x="362" y="1556" on="1"/>
        <pt x="457" y="1556" on="1"/>
      </contour>
    </TTGlyph>
    <TTGlyph name="beta" xMin="145" yMin="-492" xMax="795" yMax="1567">
      <contour>
        <pt x="451" y="1567" on="1"/>
        <pt x="586" y="1567" on="0"/>
        <pt x="739" y="1369" on="0"/>
        <pt x="739" y="1194" on="1"/>
        <pt x="739" y="1020" on="0"/>
        <pt x="640" y="845" on="0"/>
        <pt x="526" y="827" on="1"/>
        <pt x="526" y="819" on="1"/>
        <pt x="666" y="801" on="0"/>
        <pt x="795" y="596" on="0"/>
        <pt x="795" y="397" on="1"/>
        <pt x="795" y="194" on="0"/>
        <pt x="620" y="-20" on="0"/>
        <pt x="461" y="-20" on="1"/>
        <pt x="398" y="-20" on="0"/>
        <pt x="302" y="7" on="0"/>
        <pt x="240" y="51" on="1"/>
        <pt x="240" y="-492" on="1"/>
        <pt x="145" y="-492" on="1"/>
        <pt x="145" y="1169" on="1"/>
        <pt x="145" y="1360" on="0"/>
        <pt x="308" y="1567" on="0"/>
      </contour>
      <contour>
        <pt x="449" y="1477" on="1"/>
        <pt x="351" y="1477" on="0"/>
        <pt x="240" y="1319" on="0"/>
        <pt x="240" y="1174" on="1"/>
        <pt x="240" y="147" on="1"/>
        <pt x="286" y="109" on="0"/>
        <pt x="403" y="70" on="0"/>
        <pt x="457" y="70" on="1"/>
        <pt x="582" y="70" on="0"/>
        <pt x="696" y="239" on="0"/>
        <pt x="696" y="410" on="1"/>
        <pt x="696" y="597" on="0"/>
        <pt x="565" y="776" on="0"/>
        <pt x="428" y="776" on="1"/>
        <pt x="385" y="776" on="1"/>
        <pt x="385" y="866" on="1"/>
        <pt x="422" y="866" on="1"/>
        <pt x="541" y="866" on="0"/>
        <pt x="645" y="1018" on="0"/>
        <pt x="645" y="1186" on="1"/>
        <pt x="645" y="1331" on="0"/>
        <pt x="541" y="1477" on="0"/>
      </contour>
    </TTGlyph>
    <TTGlyph name="braceleft" xMin="109" yMin="-324" xMax="633" yMax="1462">
      <contour>
        <pt x="109" y="604" on="1"/>
        <pt x="186" y="604" on="0"/>
        <pt x="275" y="644" on="0"/>
        <pt x="315" y="729" on="0"/>
        <pt x="315" y="819" on="1"/>
        <pt x="315" y="1143" on="1"/>
        <pt x="315" y="1291" on="0"/>
        <pt x="483" y="1458" on="0"/>
        <pt x="633" y="1462" on="1"/>
        <pt x="633" y="1382" on="1"/>
        <pt x="521" y="1380" on="0"/>
        <pt x="414" y="1266" on="0"/>
        <pt x="414" y="1147" on="1"/>
        <pt x="414" y="831" on="1"/>
        <pt x="414" y="710" on="0"/>
        <pt x="323" y="593" on="0"/>
        <pt x="219" y="573" on="1"/>
        <pt x="219" y="565" on="1"/>
        <pt x="325" y="545" on="0"/>
        <pt x="414" y="428" on="0"/>
        <pt x="414" y="307" on="1"/>
        <pt x="414" y="-8" on="1"/>
        <pt x="414" y="-127" on="0"/>
        <pt x="521" y="-242" on="0"/>
        <pt x="633" y="-244" on="1"/>
        <pt x="633" y="-324" on="1"/>
        <pt x="481" y="-320" on="0"/>
        <pt x="315" y="-150" on="0"/>
        <pt x="315" y="-4" on="1"/>
        <pt x="315" y="319" on="1"/>
        <pt x="315" y="408" on="0"/>
        <pt x="276" y="494" on="0"/>
        <pt x="188" y="535" on="0"/>
        <pt x="109" y="535" on="1"/>
      </contour>
    </TTGlyph>
    <TTGlyph name="braceright" xMin="104" yMin="-324" xMax="629" yMax="1462">
      <contour>
        <pt x="629" y="535" on="1"/>
        <pt x="551" y="535" on="0"/>
        <pt x="462" y="494" on="0"/>
        <pt x="422" y="410" on="0"/>
        <pt x="422" y="319" on="1"/>
        <pt x="422" y="-4" on="1"/>
        <pt x="422" y="-151" on="0"/>
        <pt x="255" y="-320" on="0"/>
        <pt x="104" y="-324" on="1"/>
        <pt x="104" y="-244" on="1"/>
        <pt x="216" y="-242" on="0"/>
        <pt x="324" y="-127" on="0"/>
        <pt x="324" y="-8" on="1"/>
        <pt x="324" y="307" on="1"/>
        <pt x="324" y="428" on="0"/>
        <pt x="413" y="545" on="0"/>
        <pt x="518" y="565" on="1"/>
        <pt x="518" y="573" on="1"/>
        <pt x="415" y="593" on="0"/>
        <pt x="324" y="710" on="0"/>
        <pt x="324" y="831" on="1"/>
        <pt x="324" y="1147" on="1"/>
        <pt x="324" y="1266" on="0"/>
        <pt x="216" y="1380" on="0"/>
        <pt x="104" y="1382" on="1"/>
        <pt x="104" y="1462" on="1"/>
        <pt x="254" y="1458" on="0"/>
        <pt x="422" y="1290" on="0"/>
        <pt x="422" y="1143" on="1"/>
        <pt x="422" y="819" on="1"/>
        <pt x="422" y="729" on="0"/>
        <pt x="462" y="645" on="0"/>
        <pt x="551" y="604" on="0"/>
        <pt x="629" y="604" on="1"/>
      </contour>
    </TTGlyph>
    <TTGlyph name="bracketleft" xMin="174" yMin="-324" xMax="571" yMax="1462">
      <contour>
        <pt x="571" y="-324" on="1"/>
        <pt x="174" y="-324" on="1"/>
        <pt x="174" y="1462" on="1"/>
        <pt x="571" y="1462" on="1"/>
        <pt x="571" y="1372" on="1"/>
        <pt x="268" y="1372" on="1"/>
        <pt x="268" y="-233" on="1"/>
        <pt x="571" y="-233" on="1"/>
      </contour>
    </TTGlyph>
    <TTGlyph name="bracketright" xMin="74" yMin="-324" xMax="471" yMax="1462">
      <contour>
        <pt x="74" y="-233" on="1"/>
        <pt x="377" y="-233" on="1"/>
        <pt x="377" y="1372" on="1"/>
        <pt x="74" y="1372" on="1"/>
        <pt x="74" y="1462" on="1"/>
        <pt x="471" y="1462" on="1"/>
        <pt x="471" y="-324" on="1"/>
        <pt x="74" y="-324" on="1"/>
      </contour>
    </TTGlyph>
    <TTGlyph name="breve" xMin="360" yMin="1245" xMax="795" yMax="1479">
      <contour>
        <pt x="795" y="1479" on="1"/>
        <pt x="792" y="1370" on="0"/>
        <pt x="675" y="1245" on="0"/>
        <pt x="571" y="1245" on="1"/>
        <pt x="373" y="1245" on="0"/>
        <pt x="360" y="1479" on="1"/>
        <pt x="428" y="1479" on="1"/>
        <pt x="435" y="1405" on="0"/>
        <pt x="512" y="1329" on="0"/>
        <pt x="575" y="1329" on="1"/>
        <pt x="703" y="1329" on="0"/>
        <pt x="723" y="1479" on="1"/>
      </contour>
    </TTGlyph>
    <TTGlyph name="breveacutecomb" xMin="-848" yMin="1245" xMax="-373" yMax="1718">
      <contour>
        <pt x="-664" y="1491" on="1"/>
        <pt x="-664" y="1509" on="1"/>
        <pt x="-636" y="1543" on="0"/>
        <pt x="-559" y="1665" on="0"/>
        <pt x="-537" y="1718" on="1"/>
        <pt x="-414" y="1718" on="1"/>
        <pt x="-414" y="1702" on="1"/>
        <pt x="-500" y="1579" on="0"/>
        <pt x="-616" y="1491" on="1"/>
      </contour>
      <contour>
        <pt x="-373" y="1479" on="1"/>
        <pt x="-377" y="1367" on="0"/>
        <pt x="-507" y="1245" on="0"/>
        <pt x="-616" y="1245" on="1"/>
        <pt x="-733" y="1245" on="0"/>
        <pt x="-844" y="1371" on="0"/>
        <pt x="-848" y="1479" on="1"/>
        <pt x="-780" y="1479" on="1"/>
        <pt x="-771" y="1399" on="0"/>
        <pt x="-678" y="1329" on="0"/>
        <pt x="-612" y="1329" on="1"/>
        <pt x="-468" y="1329" on="0"/>
        <pt x="-444" y="1479" on="1"/>
      </contour>
    </TTGlyph>
    <TTGlyph name="brevegravecomb" xMin="-848" yMin="1245" xMax="-373" yMax="1718">
      <contour>
        <pt x="-608" y="1491" on="1"/>
        <pt x="-726" y="1581" on="0"/>
        <pt x="-811" y="1702" on="1"/>
        <pt x="-811" y="1718" on="1"/>
        <pt x="-688" y="1718" on="1"/>
        <pt x="-665" y="1642" on="0"/>
        <pt x="-561" y="1509" on="1"/>
        <pt x="-561" y="1491" on="1"/>
      </contour>
      <contour>
        <pt x="-373" y="1479" on="1"/>
        <pt x="-377" y="1367" on="0"/>
        <pt x="-507" y="1245" on="0"/>
        <pt x="-616" y="1245" on="1"/>
        <pt x="-733" y="1245" on="0"/>
        <pt x="-844" y="1371" on="0"/>
        <pt x="-848" y="1479" on="1"/>
        <pt x="-780" y="1479" on="1"/>
        <pt x="-771" y="1399" on="0"/>
        <pt x="-678" y="1329" on="0"/>
        <pt x="-612" y="1329" on="1"/>
        <pt x="-468" y="1329" on="0"/>
        <pt x="-444" y="1479" on="1"/>
      </contour>
    </TTGlyph>
    <TTGlyph name="brevehookcomb" xMin="-848" yMin="1245" xMax="-373" yMax="1794">
      <contour>
        <pt x="-373" y="1479" on="1"/>
        <pt x="-377" y="1367" on="0"/>
        <pt x="-507" y="1245" on="0"/>
        <pt x="-616" y="1245" on="1"/>
        <pt x="-733" y="1245" on="0"/>
        <pt x="-844" y="1371" on="0"/>
        <pt x="-848" y="1479" on="1"/>
        <pt x="-780" y="1479" on="1"/>
        <pt x="-771" y="1399" on="0"/>
        <pt x="-678" y="1329" on="0"/>
        <pt x="-612" y="1329" on="1"/>
        <pt x="-468" y="1329" on="0"/>
        <pt x="-444" y="1479" on="1"/>
      </contour>
      <contour>
        <pt x="-469" y="1659" on="1"/>
        <pt x="-469" y="1610" on="0"/>
        <pt x="-541" y="1542" on="0"/>
        <pt x="-594" y="1538" on="1"/>
        <pt x="-600" y="1483" on="1"/>
        <pt x="-657" y="1483" on="1"/>
        <pt x="-664" y="1587" on="1"/>
        <pt x="-607" y="1587" on="0"/>
        <pt x="-551" y="1617" on="0"/>
        <pt x="-551" y="1663" on="1"/>
        <pt x="-551" y="1724" on="0"/>
        <pt x="-641" y="1724" on="1"/>
        <pt x="-683" y="1724" on="0"/>
        <pt x="-705" y="1716" on="1"/>
        <pt x="-705" y="1784" on="1"/>
        <pt x="-678" y="1794" on="0"/>
        <pt x="-625" y="1794" on="1"/>
        <pt x="-558" y="1794" on="0"/>
        <pt x="-469" y="1723" on="0"/>
      </contour>
    </TTGlyph>
    <TTGlyph name="brevetildecomb" xMin="-887" yMin="1245" xMax="-326" yMax="1778">
      <contour>
        <pt x="-373" y="1479" on="1"/>
        <pt x="-377" y="1367" on="0"/>
        <pt x="-507" y="1245" on="0"/>
        <pt x="-616" y="1245" on="1"/>
        <pt x="-733" y="1245" on="0"/>
        <pt x="-844" y="1371" on="0"/>
        <pt x="-848" y="1479" on="1"/>
        <pt x="-780" y="1479" on="1"/>
        <pt x="-771" y="1399" on="0"/>
        <pt x="-678" y="1329" on="0"/>
        <pt x="-612" y="1329" on="1"/>
        <pt x="-468" y="1329" on="0"/>
        <pt x="-444" y="1479" on="1"/>
      </contour>
      <contour>
        <pt x="-485" y="1567" on="1"/>
        <pt x="-521" y="1567" on="0"/>
        <pt x="-589" y="1607" on="0"/>
        <pt x="-651" y="1654" on="0"/>
        <pt x="-706" y="1694" on="0"/>
        <pt x="-729" y="1694" on="1"/>
        <pt x="-761" y="1694" on="0"/>
        <pt x="-804" y="1622" on="0"/>
        <pt x="-813" y="1565" on="1"/>
        <pt x="-887" y="1565" on="1"/>
        <pt x="-859" y="1776" on="0"/>
        <pt x="-721" y="1776" on="1"/>
        <pt x="-686" y="1776" on="0"/>
        <pt x="-620" y="1736" on="0"/>
        <pt x="-559" y="1689" on="0"/>
        <pt x="-504" y="1649" on="0"/>
        <pt x="-479" y="1649" on="1"/>
        <pt x="-444" y="1649" on="0"/>
        <pt x="-409" y="1721" on="0"/>
        <pt x="-399" y="1778" on="1"/>
        <pt x="-326" y="1778" on="1"/>
        <pt x="-335" y="1677" on="0"/>
        <pt x="-419" y="1567" on="0"/>
      </contour>
    </TTGlyph>
    <TTGlyph name="brokenbar" xMin="362" yMin="-492" xMax="457" yMax="1556">
      <contour>
        <pt x="457" y="758" on="1"/>
        <pt x="362" y="758" on="1"/>
        <pt x="362" y="1556" on="1"/>
        <pt x="457" y="1556" on="1"/>
      </contour>
      <contour>
        <pt x="457" y="-492" on="1"/>
        <pt x="362" y="-492" on="1"/>
        <pt x="362" y="307" on="1"/>
        <pt x="457" y="307" on="1"/>
      </contour>
    </TTGlyph>
    <TTGlyph name="bullet" xMin="168" yMin="506" xMax="602" yMax="989">
      <contour>
        <pt x="168" y="748" on="1"/>
        <pt x="168" y="868" on="0"/>
        <pt x="281" y="989" on="0"/>
        <pt x="385" y="989" on="1"/>
        <pt x="489" y="989" on="0"/>
        <pt x="602" y="868" on="0"/>
        <pt x="602" y="748" on="1"/>
        <pt x="602" y="630" on="0"/>
        <pt x="489" y="506" on="0"/>
        <pt x="385" y="506" on="1"/>
        <pt x="282" y="506" on="0"/>
        <pt x="168" y="630" on="0"/>
      </contour>
    </TTGlyph>
    <TTGlyph name="c" xMin="96" yMin="-20" xMax="594" yMax="1106">
      <contour>
        <pt x="424" y="-20" on="1"/>
        <pt x="261" y="-20" on="0"/>
        <pt x="96" y="263" on="0"/>
        <pt x="96" y="537" on="1"/>
        <pt x="96" y="815" on="0"/>
        <pt x="263" y="1106" on="0"/>
        <pt x="426" y="1106" on="1"/>
        <pt x="527" y="1106" on="0"/>
        <pt x="594" y="1069" on="1"/>
        <pt x="557" y="985" on="1"/>
        <pt x="490" y="1016" on="0"/>
        <pt x="434" y="1016" on="1"/>
        <pt x="195" y="1016" on="0"/>
        <pt x="195" y="539" on="1"/>
        <pt x="195" y="66" on="0"/>
        <pt x="434" y="66" on="1"/>
        <pt x="505" y="66" on="0"/>
        <pt x="588" y="98" on="1"/>
        <pt x="588" y="18" on="1"/>
        <pt x="555" y="0" on="0"/>
        <pt x="459" y="-20" on="0"/>
      </contour>
    </TTGlyph>
    <TTGlyph name="cacute" xMin="96" yMin="-20" xMax="681" yMax="1569">
      <component glyphName="c" x="0" y="0" flags="0x204"/>
      <component glyphName="acute" x="-69" y="0" flags="0x4"/>
    </TTGlyph>
    <TTGlyph name="caron" xMin="342" yMin="1241" xMax="813" yMax="1569">
      <contour>
        <pt x="813" y="1569" on="1"/>
        <pt x="813" y="1550" on="1"/>
        <pt x="755" y="1475" on="0"/>
        <pt x="647" y="1295" on="0"/>
        <pt x="623" y="1241" on="1"/>
        <pt x="528" y="1241" on="1"/>
        <pt x="458" y="1389" on="0"/>
        <pt x="342" y="1550" on="1"/>
        <pt x="342" y="1569" on="1"/>
        <pt x="385" y="1569" on="1"/>
        <pt x="427" y="1529" on="0"/>
        <pt x="528" y="1412" on="0"/>
        <pt x="578" y="1356" on="1"/>
        <pt x="627" y="1411" on="1"/>
        <pt x="735" y="1540" on="0"/>
        <pt x="766" y="1569" on="1"/>
      </contour>
    </TTGlyph>
    <TTGlyph name="caroncommaaccent" xMin="422" yMin="1229" xMax="584" yMax="1556">
      <contour>
        <pt x="422" y="1249" on="1"/>
        <pt x="431" y="1287" on="0"/>
        <pt x="464" y="1484" on="0"/>
        <pt x="471" y="1556" on="1"/>
        <pt x="584" y="1556" on="1"/>
        <pt x="584" y="1536" on="1"/>
        <pt x="574" y="1480" on="0"/>
        <pt x="495" y="1284" on="0"/>
        <pt x="459" y="1229" on="1"/>
        <pt x="422" y="1229" on="1"/>
      </contour>
    </TTGlyph>
    <TTGlyph name="ccaron" xMin="96" yMin="-20" xMax="646" yMax="1569">
      <component glyphName="c" x="0" y="0" flags="0x204"/>
      <component glyphName="caron" x="-167" y="0" flags="0x4"/>
    </TTGlyph>
    <TTGlyph name="ccedilla" xMin="96" yMin="-492" xMax="594" yMax="1106">
      <component glyphName="c" x="0" y="0" flags="0x204"/>
      <component glyphName="cedilla" x="160" y="0" flags="0x4"/>
    </TTGlyph>
    <TTGlyph name="ccircumflex" xMin="96" yMin="-20" xMax="634" yMax="1569">
      <component glyphName="c" x="0" y="0" flags="0x204"/>
      <component glyphName="circumflex" x="-179" y="0" flags="0x4"/>
    </TTGlyph>
    <TTGlyph name="cdot" xMin="96" yMin="-20" xMax="594" yMax="1481">
      <component glyphName="c" x="0" y="0" flags="0x204"/>
      <component glyphName="dotaccent" x="231" y="0" flags="0x4"/>
    </TTGlyph>
    <TTGlyph name="cedilla" xMin="59" yMin="-492" xMax="379" yMax="0">
      <contour>
        <pt x="379" y="-291" on="1"/>
        <pt x="379" y="-391" on="0"/>
        <pt x="254" y="-492" on="0"/>
        <pt x="145" y="-492" on="1"/>
        <pt x="83" y="-492" on="0"/>
        <pt x="59" y="-481" on="1"/>
        <pt x="59" y="-403" on="1"/>
        <pt x="90" y="-414" on="0"/>
        <pt x="137" y="-414" on="1"/>
        <pt x="215" y="-414" on="0"/>
        <pt x="289" y="-347" on="0"/>
        <pt x="289" y="-293" on="1"/>
        <pt x="289" y="-233" on="0"/>
        <pt x="201" y="-172" on="0"/>
        <pt x="123" y="-160" on="1"/>
        <pt x="195" y="0" on="1"/>
        <pt x="270" y="0" on="1"/>
        <pt x="219" y="-115" on="1"/>
        <pt x="379" y="-154" on="0"/>
      </contour>
    </TTGlyph>
    <TTGlyph name="cent" xMin="168" yMin="-20" xMax="666" yMax="1483">
      <contour>
        <pt x="438" y="-20" on="1"/>
        <pt x="438" y="193" on="1"/>
        <pt x="303" y="216" on="0"/>
        <pt x="168" y="498" on="0"/>
        <pt x="168" y="745" on="1"/>
        <pt x="168" y="994" on="0"/>
        <pt x="302" y="1281" on="0"/>
        <pt x="438" y="1309" on="1"/>
        <pt x="438" y="1483" on="1"/>
        <pt x="520" y="1483" on="1"/>
        <pt x="520" y="1315" on="1"/>
        <pt x="608" y="1309" on="0"/>
        <pt x="666" y="1278" on="1"/>
        <pt x="629" y="1192" on="1"/>
        <pt x="559" y="1221" on="0"/>
        <pt x="506" y="1221" on="1"/>
        <pt x="380" y="1221" on="0"/>
        <pt x="268" y="977" on="0"/>
        <pt x="268" y="748" on="1"/>
        <pt x="268" y="279" on="0"/>
        <pt x="506" y="279" on="1"/>
        <pt x="576" y="279" on="0"/>
        <pt x="659" y="311" on="1"/>
        <pt x="659" y="227" on="1"/>
        <pt x="608" y="197" on="0"/>
        <pt x="520" y="188" on="1"/>
        <pt x="520" y="-20" on="1"/>
      </contour>
    </TTGlyph>
    <TTGlyph name="chi" xMin="10" yMin="-492" xMax="692" yMax="1098">
      <contour>
        <pt x="365" y="489" on="1"/>
        <pt x="565" y="1085" on="1"/>
        <pt x="664" y="1085" on="1"/>
        <pt x="399" y="340" on="1"/>
        <pt x="535" y="-238" on="1"/>
        <pt x="554" y="-325" on="0"/>
        <pt x="598" y="-406" on="0"/>
        <pt x="639" y="-406" on="1"/>
        <pt x="670" y="-406" on="0"/>
        <pt x="692" y="-395" on="1"/>
        <pt x="692" y="-479" on="1"/>
        <pt x="662" y="-492" on="0"/>
        <pt x="627" y="-492" on="1"/>
        <pt x="563" y="-492" on="0"/>
        <pt x="476" y="-387" on="0"/>
        <pt x="449" y="-266" on="1"/>
        <pt x="340" y="195" on="1"/>
        <pt x="111" y="-492" on="1"/>
        <pt x="10" y="-492" on="1"/>
        <pt x="305" y="344" on="1"/>
        <pt x="188" y="844" on="1"/>
        <pt x="165" y="945" on="0"/>
        <pt x="120" y="1012" on="0"/>
        <pt x="84" y="1012" on="1"/>
        <pt x="50" y="1012" on="0"/>
        <pt x="31" y="1001" on="1"/>
        <pt x="31" y="1085" on="1"/>
        <pt x="57" y="1098" on="0"/>
        <pt x="96" y="1098" on="1"/>
        <pt x="160" y="1098" on="0"/>
        <pt x="247" y="993" on="0"/>
        <pt x="274" y="872" on="1"/>
      </contour>
    </TTGlyph>
    <TTGlyph name="circumflex" xMin="342" yMin="1241" xMax="813" yMax="1569">
      <contour>
        <pt x="766" y="1241" on="1"/>
        <pt x="734" y="1272" on="0"/>
        <pt x="675" y="1342" on="1"/>
        <pt x="578" y="1454" on="1"/>
        <pt x="528" y="1398" on="0"/>
        <pt x="427" y="1281" on="0"/>
        <pt x="385" y="1241" on="1"/>
        <pt x="342" y="1241" on="1"/>
        <pt x="342" y="1260" on="1"/>
        <pt x="463" y="1428" on="0"/>
        <pt x="528" y="1569" on="1"/>
        <pt x="623" y="1569" on="1"/>
        <pt x="647" y="1514" on="0"/>
        <pt x="756" y="1335" on="0"/>
        <pt x="813" y="1260" on="1"/>
        <pt x="813" y="1241" on="1"/>
      </contour>
    </TTGlyph>
    <TTGlyph name="circumflexacutecomb" xMin="-838" yMin="1247" xMax="-174" yMax="1663">
      <contour>
        <pt x="-424" y="1434" on="1"/>
        <pt x="-424" y="1454" on="1"/>
        <pt x="-383" y="1506" on="0"/>
        <pt x="-314" y="1623" on="0"/>
        <pt x="-297" y="1663" on="1"/>
        <pt x="-174" y="1663" on="1"/>
        <pt x="-174" y="1647" on="1"/>
        <pt x="-262" y="1522" on="0"/>
        <pt x="-377" y="1434" on="1"/>
      </contour>
      <contour>
        <pt x="-375" y="1247" on="1"/>
        <pt x="-428" y="1247" on="1"/>
        <pt x="-498" y="1306" on="0"/>
        <pt x="-606" y="1430" on="1"/>
        <pt x="-727" y="1298" on="0"/>
        <pt x="-784" y="1247" on="1"/>
        <pt x="-838" y="1247" on="1"/>
        <pt x="-838" y="1268" on="1"/>
        <pt x="-733" y="1397" on="0"/>
        <pt x="-664" y="1516" on="1"/>
        <pt x="-549" y="1516" on="1"/>
        <pt x="-466" y="1377" on="0"/>
        <pt x="-375" y="1268" on="1"/>
      </contour>
    </TTGlyph>
    <TTGlyph name="circumflexgravecomb" xMin="-1038" yMin="1247" xMax="-375" yMax="1663">
      <contour>
        <pt x="-375" y="1247" on="1"/>
        <pt x="-428" y="1247" on="1"/>
        <pt x="-498" y="1306" on="0"/>
        <pt x="-606" y="1430" on="1"/>
        <pt x="-727" y="1298" on="0"/>
        <pt x="-784" y="1247" on="1"/>
        <pt x="-838" y="1247" on="1"/>
        <pt x="-838" y="1268" on="1"/>
        <pt x="-733" y="1397" on="0"/>
        <pt x="-664" y="1516" on="1"/>
        <pt x="-549" y="1516" on="1"/>
        <pt x="-466" y="1377" on="0"/>
        <pt x="-375" y="1268" on="1"/>
      </contour>
      <contour>
        <pt x="-836" y="1434" on="1"/>
        <pt x="-949" y="1520" on="0"/>
        <pt x="-1038" y="1647" on="1"/>
        <pt x="-1038" y="1663" on="1"/>
        <pt x="-915" y="1663" on="1"/>
        <pt x="-895" y="1613" on="0"/>
        <pt x="-819" y="1492" on="0"/>
        <pt x="-788" y="1454" on="1"/>
        <pt x="-788" y="1434" on="1"/>
      </contour>
    </TTGlyph>
    <TTGlyph name="circumflexhookcomb" xMin="-838" yMin="1247" xMax="-213" yMax="1763">
      <contour>
        <pt x="-213" y="1628" on="1"/>
        <pt x="-213" y="1579" on="0"/>
        <pt x="-285" y="1511" on="0"/>
        <pt x="-338" y="1507" on="1"/>
        <pt x="-344" y="1432" on="1"/>
        <pt x="-401" y="1432" on="1"/>
        <pt x="-408" y="1556" on="1"/>
        <pt x="-351" y="1556" on="0"/>
        <pt x="-295" y="1586" on="0"/>
        <pt x="-295" y="1632" on="1"/>
        <pt x="-295" y="1694" on="0"/>
        <pt x="-385" y="1694" on="1"/>
        <pt x="-427" y="1694" on="0"/>
        <pt x="-449" y="1686" on="1"/>
        <pt x="-449" y="1753" on="1"/>
        <pt x="-422" y="1763" on="0"/>
        <pt x="-369" y="1763" on="1"/>
        <pt x="-302" y="1763" on="0"/>
        <pt x="-213" y="1692" on="0"/>
      </contour>
      <contour>
        <pt x="-375" y="1247" on="1"/>
        <pt x="-428" y="1247" on="1"/>
        <pt x="-498" y="1306" on="0"/>
        <pt x="-606" y="1430" on="1"/>
        <pt x="-727" y="1298" on="0"/>
        <pt x="-784" y="1247" on="1"/>
        <pt x="-838" y="1247" on="1"/>
        <pt x="-838" y="1268" on="1"/>
        <pt x="-733" y="1397" on="0"/>
        <pt x="-664" y="1516" on="1"/>
        <pt x="-549" y="1516" on="1"/>
        <pt x="-466" y="1377" on="0"/>
        <pt x="-375" y="1268" on="1"/>
      </contour>
    </TTGlyph>
    <TTGlyph name="circumflextildecomb" xMin="-877" yMin="1247" xMax="-315" yMax="1778">
      <contour>
        <pt x="-375" y="1247" on="1"/>
        <pt x="-428" y="1247" on="1"/>
        <pt x="-498" y="1306" on="0"/>
        <pt x="-606" y="1430" on="1"/>
        <pt x="-727" y="1298" on="0"/>
        <pt x="-784" y="1247" on="1"/>
        <pt x="-838" y="1247" on="1"/>
        <pt x="-838" y="1268" on="1"/>
        <pt x="-733" y="1397" on="0"/>
        <pt x="-664" y="1516" on="1"/>
        <pt x="-549" y="1516" on="1"/>
        <pt x="-466" y="1377" on="0"/>
        <pt x="-375" y="1268" on="1"/>
      </contour>
      <contour>
        <pt x="-475" y="1567" on="1"/>
        <pt x="-510" y="1567" on="0"/>
        <pt x="-578" y="1607" on="0"/>
        <pt x="-640" y="1654" on="0"/>
        <pt x="-696" y="1694" on="0"/>
        <pt x="-719" y="1694" on="1"/>
        <pt x="-751" y="1694" on="0"/>
        <pt x="-794" y="1622" on="0"/>
        <pt x="-803" y="1565" on="1"/>
        <pt x="-877" y="1565" on="1"/>
        <pt x="-849" y="1776" on="0"/>
        <pt x="-711" y="1776" on="1"/>
        <pt x="-675" y="1776" on="0"/>
        <pt x="-609" y="1736" on="0"/>
        <pt x="-549" y="1689" on="0"/>
        <pt x="-494" y="1649" on="0"/>
        <pt x="-469" y="1649" on="1"/>
        <pt x="-434" y="1649" on="0"/>
        <pt x="-398" y="1721" on="0"/>
        <pt x="-389" y="1778" on="1"/>
        <pt x="-315" y="1778" on="1"/>
        <pt x="-323" y="1679" on="0"/>
        <pt x="-408" y="1567" on="0"/>
      </contour>
    </TTGlyph>
    <TTGlyph name="colon" xMin="133" yMin="-16" xMax="289" yMax="1087">
      <contour>
        <pt x="133" y="90" on="1"/>
        <pt x="133" y="197" on="0"/>
        <pt x="211" y="197" on="1"/>
        <pt x="243" y="197" on="0"/>
        <pt x="289" y="149" on="0"/>
        <pt x="289" y="90" on="1"/>
        <pt x="289" y="33" on="0"/>
        <pt x="243" y="-16" on="0"/>
        <pt x="211" y="-16" on="1"/>
        <pt x="133" y="-16" on="0"/>
      </contour>
      <contour>
        <pt x="133" y="981" on="1"/>
        <pt x="133" y="1087" on="0"/>
        <pt x="211" y="1087" on="1"/>
        <pt x="289" y="1087" on="0"/>
        <pt x="289" y="981" on="1"/>
        <pt x="289" y="924" on="0"/>
        <pt x="243" y="874" on="0"/>
        <pt x="211" y="874" on="1"/>
        <pt x="133" y="874" on="0"/>
      </contour>
    </TTGlyph>
    <TTGlyph name="comma" xMin="78" yMin="-264" xMax="307" yMax="205">
      <contour>
        <pt x="307" y="182" on="1"/>
        <pt x="241" y="-43" on="0"/>
        <pt x="141" y="-264" on="1"/>
        <pt x="78" y="-264" on="1"/>
        <pt x="153" y="-9" on="0"/>
        <pt x="178" y="205" on="1"/>
        <pt x="293" y="205" on="1"/>
      </contour>
    </TTGlyph>
    <TTGlyph name="commaaccent" xMin="397" yMin="-453" xMax="584" yMax="-125">
      <contour>
        <pt x="397" y="-432" on="1"/>
        <pt x="419" y="-372" on="0"/>
        <pt x="467" y="-192" on="0"/>
        <pt x="473" y="-125" on="1"/>
        <pt x="584" y="-125" on="1"/>
        <pt x="584" y="-145" on="1"/>
        <pt x="563" y="-223" on="0"/>
        <pt x="479" y="-397" on="0"/>
        <pt x="438" y="-453" on="1"/>
        <pt x="397" y="-453" on="1"/>
      </contour>
    </TTGlyph>
    <TTGlyph name="commaaccentrotate" xMin="416" yMin="1241" xMax="621" yMax="1569">
      <contour>
        <pt x="621" y="1548" on="1"/>
        <pt x="597" y="1512" on="0"/>
        <pt x="530" y="1313" on="0"/>
        <pt x="522" y="1241" on="1"/>
        <pt x="416" y="1241" on="1"/>
        <pt x="416" y="1262" on="1"/>
        <pt x="428" y="1326" on="0"/>
        <pt x="524" y="1521" on="0"/>
        <pt x="578" y="1569" on="1"/>
        <pt x="621" y="1569" on="1"/>
      </contour>
    </TTGlyph>
    <TTGlyph name="copyright" xMin="100" yMin="-20" xMax="1604" yMax="1483">
      <contour>
        <pt x="897" y="1092" on="1"/>
        <pt x="755" y="1092" on="0"/>
        <pt x="594" y="903" on="0"/>
        <pt x="594" y="733" on="1"/>
        <pt x="594" y="547" on="0"/>
        <pt x="743" y="369" on="0"/>
        <pt x="889" y="369" on="1"/>
        <pt x="973" y="369" on="0"/>
        <pt x="1087" y="412" on="1"/>
        <pt x="1087" y="324" on="1"/>
        <pt x="985" y="279" on="0"/>
        <pt x="879" y="279" on="1"/>
        <pt x="692" y="279" on="0"/>
        <pt x="489" y="509" on="0"/>
        <pt x="489" y="725" on="1"/>
        <pt x="489" y="933" on="0"/>
        <pt x="711" y="1182" on="0"/>
        <pt x="897" y="1182" on="1"/>
        <pt x="1016" y="1182" on="0"/>
        <pt x="1124" y="1130" on="1"/>
        <pt x="1087" y="1047" on="1"/>
        <pt x="989" y="1092" on="0"/>
      </contour>
      <contour>
        <pt x="100" y="731" on="1"/>
        <pt x="100" y="931" on="0"/>
        <pt x="300" y="1281" on="0"/>
        <pt x="650" y="1483" on="0"/>
        <pt x="852" y="1483" on="1"/>
        <pt x="1052" y="1483" on="0"/>
        <pt x="1402" y="1283" on="0"/>
        <pt x="1604" y="933" on="0"/>
        <pt x="1604" y="731" on="1"/>
        <pt x="1604" y="534" on="0"/>
        <pt x="1410" y="188" on="0"/>
        <pt x="1060" y="-20" on="0"/>
        <pt x="852" y="-20" on="1"/>
        <pt x="645" y="-20" on="0"/>
        <pt x="295" y="187" on="0"/>
        <pt x="100" y="533" on="0"/>
      </contour>
      <contour>
        <pt x="193" y="731" on="1"/>
        <pt x="193" y="553" on="0"/>
        <pt x="370" y="250" on="0"/>
        <pt x="674" y="72" on="0"/>
        <pt x="852" y="72" on="1"/>
        <pt x="1030" y="72" on="0"/>
        <pt x="1333" y="249" on="0"/>
        <pt x="1511" y="553" on="0"/>
        <pt x="1511" y="731" on="1"/>
        <pt x="1511" y="905" on="0"/>
        <pt x="1340" y="1207" on="0"/>
        <pt x="1033" y="1391" on="0"/>
        <pt x="852" y="1391" on="1"/>
        <pt x="676" y="1391" on="0"/>
        <pt x="371" y="1214" on="0"/>
        <pt x="193" y="906" on="0"/>
      </contour>
    </TTGlyph>
    <TTGlyph name="currency" xMin="125" yMin="281" xMax="1008" yMax="1163">
      <contour>
        <pt x="174" y="723" on="1"/>
        <pt x="174" y="859" on="0"/>
        <pt x="260" y="969" on="1"/>
        <pt x="125" y="1106" on="1"/>
        <pt x="182" y="1163" on="1"/>
        <pt x="317" y="1026" on="1"/>
        <pt x="426" y="1116" on="0"/>
        <pt x="567" y="1116" on="1"/>
        <pt x="706" y="1116" on="0"/>
        <pt x="813" y="1028" on="1"/>
        <pt x="948" y="1163" on="1"/>
        <pt x="1008" y="1106" on="1"/>
        <pt x="872" y="971" on="1"/>
        <pt x="961" y="863" on="0"/>
        <pt x="961" y="723" on="1"/>
        <pt x="961" y="583" on="0"/>
        <pt x="872" y="475" on="1"/>
        <pt x="1008" y="338" on="1"/>
        <pt x="950" y="281" on="1"/>
        <pt x="813" y="416" on="1"/>
        <pt x="706" y="330" on="0"/>
        <pt x="567" y="330" on="1"/>
        <pt x="424" y="330" on="0"/>
        <pt x="317" y="418" on="1"/>
        <pt x="184" y="283" on="1"/>
        <pt x="127" y="342" on="1"/>
        <pt x="260" y="475" on="1"/>
        <pt x="174" y="585" on="0"/>
      </contour>
      <contour>
        <pt x="252" y="723" on="1"/>
        <pt x="252" y="591" on="0"/>
        <pt x="434" y="408" on="0"/>
        <pt x="567" y="408" on="1"/>
        <pt x="700" y="408" on="0"/>
        <pt x="885" y="592" on="0"/>
        <pt x="885" y="723" on="1"/>
        <pt x="885" y="808" on="0"/>
        <pt x="801" y="954" on="0"/>
        <pt x="652" y="1040" on="0"/>
        <pt x="567" y="1040" on="1"/>
        <pt x="482" y="1040" on="0"/>
        <pt x="335" y="955" on="0"/>
        <pt x="252" y="809" on="0"/>
      </contour>
    </TTGlyph>
    <TTGlyph name="cyrillicbighookLC" xMin="49" yMin="-352" xMax="317" yMax="86">
      <contour>
        <pt x="211" y="86" on="1"/>
        <pt x="317" y="86" on="1"/>
        <pt x="317" y="-141" on="1"/>
        <pt x="317" y="-352" on="0"/>
        <pt x="147" y="-352" on="1"/>
        <pt x="92" y="-352" on="0"/>
        <pt x="49" y="-336" on="1"/>
        <pt x="49" y="-256" on="1"/>
        <pt x="94" y="-274" on="0"/>
        <pt x="133" y="-274" on="1"/>
        <pt x="231" y="-274" on="0"/>
        <pt x="231" y="-150" on="1"/>
        <pt x="231" y="0" on="1"/>
        <pt x="211" y="0" on="1"/>
      </contour>
    </TTGlyph>
    <TTGlyph name="cyrillicbighookUC" xMin="49" yMin="-352" xMax="324" yMax="94">
      <contour>
        <pt x="211" y="94" on="1"/>
        <pt x="324" y="94" on="1"/>
        <pt x="324" y="-141" on="1"/>
        <pt x="324" y="-245" on="0"/>
        <pt x="234" y="-352" on="0"/>
        <pt x="147" y="-352" on="1"/>
        <pt x="92" y="-352" on="0"/>
        <pt x="49" y="-336" on="1"/>
        <pt x="49" y="-256" on="1"/>
        <pt x="94" y="-274" on="0"/>
        <pt x="133" y="-274" on="1"/>
        <pt x="231" y="-274" on="0"/>
        <pt x="231" y="-150" on="1"/>
        <pt x="231" y="0" on="1"/>
        <pt x="211" y="0" on="1"/>
      </contour>
    </TTGlyph>
    <TTGlyph name="cyrillicbreve" xMin="330" yMin="1241" xMax="852" yMax="1522">
      <contour>
        <pt x="590" y="1241" on="1"/>
        <pt x="468" y="1241" on="0"/>
        <pt x="340" y="1374" on="0"/>
        <pt x="330" y="1522" on="1"/>
        <pt x="422" y="1522" on="1"/>
        <pt x="433" y="1409" on="0"/>
        <pt x="510" y="1315" on="0"/>
        <pt x="590" y="1315" on="1"/>
        <pt x="674" y="1315" on="0"/>
        <pt x="751" y="1415" on="0"/>
        <pt x="760" y="1522" on="1"/>
        <pt x="852" y="1522" on="1"/>
        <pt x="835" y="1241" on="0"/>
      </contour>
    </TTGlyph>
    <TTGlyph name="cyrillichookleft" xMin="82" yMin="-446" xMax="326" yMax="0">
      <contour>
        <pt x="236" y="-260" on="1"/>
        <pt x="236" y="-196" on="0"/>
        <pt x="175" y="-71" on="0"/>
        <pt x="104" y="0" on="1"/>
        <pt x="182" y="0" on="1"/>
        <pt x="245" y="-48" on="0"/>
        <pt x="326" y="-201" on="0"/>
        <pt x="326" y="-270" on="1"/>
        <pt x="326" y="-446" on="0"/>
        <pt x="158" y="-446" on="1"/>
        <pt x="112" y="-446" on="0"/>
        <pt x="82" y="-434" on="1"/>
        <pt x="82" y="-360" on="1"/>
        <pt x="100" y="-369" on="0"/>
        <pt x="139" y="-369" on="1"/>
        <pt x="236" y="-369" on="0"/>
      </contour>
    </TTGlyph>
    <TTGlyph name="d" xMin="94" yMin="-20" xMax="748" yMax="1556">
      <contour>
        <pt x="410" y="-20" on="1"/>
        <pt x="94" y="-20" on="0"/>
        <pt x="94" y="541" on="1"/>
        <pt x="94" y="817" on="0"/>
        <pt x="252" y="1106" on="0"/>
        <pt x="406" y="1106" on="1"/>
        <pt x="479" y="1106" on="0"/>
        <pt x="610" y="1022" on="0"/>
        <pt x="649" y="948" on="1"/>
        <pt x="657" y="948" on="1"/>
        <pt x="653" y="1069" on="1"/>
        <pt x="653" y="1556" on="1"/>
        <pt x="748" y="1556" on="1"/>
        <pt x="748" y="0" on="1"/>
        <pt x="670" y="0" on="1"/>
        <pt x="662" y="152" on="1"/>
        <pt x="653" y="152" on="1"/>
        <pt x="614" y="69" on="0"/>
        <pt x="490" y="-20" on="0"/>
      </contour>
      <contour>
        <pt x="416" y="63" on="1"/>
        <pt x="530" y="63" on="0"/>
        <pt x="653" y="274" on="0"/>
        <pt x="653" y="479" on="1"/>
        <pt x="653" y="541" on="1"/>
        <pt x="653" y="787" on="0"/>
        <pt x="534" y="1016" on="0"/>
        <pt x="412" y="1016" on="1"/>
        <pt x="295" y="1016" on="0"/>
        <pt x="193" y="771" on="0"/>
        <pt x="193" y="539" on="1"/>
        <pt x="193" y="305" on="0"/>
        <pt x="299" y="63" on="0"/>
      </contour>
    </TTGlyph>
    <TTGlyph name="dagger" xMin="123" yMin="0" xMax="760" yMax="1556">
      <contour>
        <pt x="760" y="1055" on="1"/>
        <pt x="465" y="1065" on="1"/>
        <pt x="489" y="0" on="1"/>
        <pt x="373" y="0" on="1"/>
        <pt x="397" y="1065" on="1"/>
        <pt x="123" y="1055" on="1"/>
        <pt x="123" y="1147" on="1"/>
        <pt x="397" y="1128" on="1"/>
        <pt x="373" y="1556" on="1"/>
        <pt x="489" y="1556" on="1"/>
        <pt x="465" y="1128" on="1"/>
        <pt x="760" y="1147" on="1"/>
      </contour>
    </TTGlyph>
    <TTGlyph name="daggerdbl" xMin="123" yMin="0" xMax="760" yMax="1556">
      <contour>
        <pt x="465" y="446" on="1"/>
        <pt x="760" y="457" on="1"/>
        <pt x="760" y="365" on="1"/>
        <pt x="465" y="381" on="1"/>
        <pt x="489" y="0" on="1"/>
        <pt x="373" y="0" on="1"/>
        <pt x="397" y="381" on="1"/>
        <pt x="123" y="365" on="1"/>
        <pt x="123" y="457" on="1"/>
        <pt x="397" y="446" on="1"/>
        <pt x="385" y="786" on="1"/>
        <pt x="397" y="1110" on="1"/>
        <pt x="123" y="1100" on="1"/>
        <pt x="123" y="1192" on="1"/>
        <pt x="397" y="1174" on="1"/>
        <pt x="373" y="1556" on="1"/>
        <pt x="489" y="1556" on="1"/>
        <pt x="465" y="1174" on="1"/>
        <pt x="760" y="1192" on="1"/>
        <pt x="760" y="1100" on="1"/>
        <pt x="465" y="1110" on="1"/>
        <pt x="475" y="786" on="1"/>
      </contour>
    </TTGlyph>
    <TTGlyph name="dasiaoxia" xMin="143" yMin="1128" xMax="557" yMax="1470">
      <contour>
        <pt x="143" y="1255" on="1"/>
        <pt x="143" y="1339" on="0"/>
        <pt x="246" y="1441" on="0"/>
        <pt x="348" y="1470" on="1"/>
        <pt x="348" y="1415" on="1"/>
        <pt x="221" y="1377" on="0"/>
        <pt x="221" y="1309" on="1"/>
        <pt x="221" y="1285" on="0"/>
        <pt x="250" y="1263" on="0"/>
        <pt x="286" y="1245" on="0"/>
        <pt x="315" y="1221" on="0"/>
        <pt x="315" y="1196" on="1"/>
        <pt x="315" y="1165" on="0"/>
        <pt x="276" y="1128" on="0"/>
        <pt x="244" y="1128" on="1"/>
        <pt x="197" y="1128" on="0"/>
        <pt x="143" y="1198" on="0"/>
      </contour>
      <contour>
        <pt x="371" y="1155" on="1"/>
        <pt x="397" y="1223" on="0"/>
        <pt x="439" y="1406" on="0"/>
        <pt x="446" y="1462" on="1"/>
        <pt x="557" y="1462" on="1"/>
        <pt x="557" y="1442" on="1"/>
        <pt x="548" y="1389" on="0"/>
        <pt x="459" y="1184" on="0"/>
        <pt x="426" y="1135" on="1"/>
        <pt x="371" y="1135" on="1"/>
      </contour>
    </TTGlyph>
    <TTGlyph name="dcaron" xMin="94" yMin="-20" xMax="985" yMax="1556">
      <component glyphName="d" x="0" y="0" flags="0x204"/>
      <component glyphName="caroncommaaccent" x="401" y="0" flags="0x4"/>
    </TTGlyph>
    <TTGlyph name="dcroat" xMin="94" yMin="-20" xMax="866" yMax="1556">
      <contour>
        <pt x="410" y="-20" on="1"/>
        <pt x="94" y="-20" on="0"/>
        <pt x="94" y="541" on="1"/>
        <pt x="94" y="817" on="0"/>
        <pt x="252" y="1106" on="0"/>
        <pt x="406" y="1106" on="1"/>
        <pt x="479" y="1106" on="0"/>
        <pt x="610" y="1020" on="0"/>
        <pt x="649" y="946" on="1"/>
        <pt x="657" y="946" on="1"/>
        <pt x="653" y="1069" on="1"/>
        <pt x="653" y="1278" on="1"/>
        <pt x="391" y="1278" on="1"/>
        <pt x="391" y="1360" on="1"/>
        <pt x="653" y="1360" on="1"/>
        <pt x="653" y="1556" on="1"/>
        <pt x="748" y="1556" on="1"/>
        <pt x="748" y="1360" on="1"/>
        <pt x="866" y="1360" on="1"/>
        <pt x="866" y="1278" on="1"/>
        <pt x="748" y="1278" on="1"/>
        <pt x="748" y="0" on="1"/>
        <pt x="670" y="0" on="1"/>
        <pt x="659" y="154" on="1"/>
        <pt x="651" y="154" on="1"/>
        <pt x="569" y="-20" on="0"/>
      </contour>
      <contour>
        <pt x="416" y="63" on="1"/>
        <pt x="529" y="63" on="0"/>
        <pt x="653" y="282" on="0"/>
        <pt x="653" y="508" on="1"/>
        <pt x="653" y="541" on="1"/>
        <pt x="653" y="787" on="0"/>
        <pt x="534" y="1016" on="0"/>
        <pt x="412" y="1016" on="1"/>
        <pt x="295" y="1016" on="0"/>
        <pt x="193" y="771" on="0"/>
        <pt x="193" y="539" on="1"/>
        <pt x="193" y="305" on="0"/>
        <pt x="299" y="63" on="0"/>
      </contour>
    </TTGlyph>
    <TTGlyph name="degree" xMin="139" yMin="885" xMax="737" yMax="1483">
      <contour>
        <pt x="139" y="1184" on="1"/>
        <pt x="139" y="1316" on="0"/>
        <pt x="312" y="1483" on="0"/>
        <pt x="438" y="1483" on="1"/>
        <pt x="564" y="1483" on="0"/>
        <pt x="737" y="1316" on="0"/>
        <pt x="737" y="1184" on="1"/>
        <pt x="737" y="1052" on="0"/>
        <pt x="564" y="885" on="0"/>
        <pt x="438" y="885" on="1"/>
        <pt x="308" y="885" on="0"/>
        <pt x="139" y="1051" on="0"/>
      </contour>
      <contour>
        <pt x="229" y="1184" on="1"/>
        <pt x="229" y="1093" on="0"/>
        <pt x="351" y="967" on="0"/>
        <pt x="438" y="967" on="1"/>
        <pt x="524" y="967" on="0"/>
        <pt x="647" y="1091" on="0"/>
        <pt x="647" y="1184" on="1"/>
        <pt x="647" y="1276" on="0"/>
        <pt x="527" y="1401" on="0"/>
        <pt x="438" y="1401" on="1"/>
        <pt x="348" y="1401" on="0"/>
        <pt x="229" y="1273" on="0"/>
      </contour>
    </TTGlyph>
    <TTGlyph name="delta" xMin="96" yMin="-20" xMax="772" yMax="1554">
      <contour>
        <pt x="422" y="944" on="1"/>
        <pt x="297" y="1074" on="0"/>
        <pt x="211" y="1230" on="0"/>
        <pt x="211" y="1311" on="1"/>
        <pt x="211" y="1421" on="0"/>
        <pt x="367" y="1554" on="0"/>
        <pt x="492" y="1554" on="1"/>
        <pt x="570" y="1554" on="0"/>
        <pt x="694" y="1514" on="0"/>
        <pt x="731" y="1491" on="1"/>
        <pt x="690" y="1407" on="1"/>
        <pt x="596" y="1464" on="0"/>
        <pt x="487" y="1464" on="1"/>
        <pt x="405" y="1464" on="0"/>
        <pt x="307" y="1378" on="0"/>
        <pt x="307" y="1309" on="1"/>
        <pt x="307" y="1263" on="0"/>
        <pt x="346" y="1173" on="0"/>
        <pt x="424" y="1073" on="0"/>
        <pt x="530" y="967" on="1"/>
        <pt x="667" y="830" on="0"/>
        <pt x="772" y="595" on="0"/>
        <pt x="772" y="451" on="1"/>
        <pt x="772" y="228" on="0"/>
        <pt x="588" y="-20" on="0"/>
        <pt x="430" y="-20" on="1"/>
        <pt x="276" y="-20" on="0"/>
        <pt x="96" y="229" on="0"/>
        <pt x="96" y="442" on="1"/>
        <pt x="96" y="615" on="0"/>
        <pt x="277" y="889" on="0"/>
      </contour>
      <contour>
        <pt x="674" y="453" on="1"/>
        <pt x="674" y="568" on="0"/>
        <pt x="582" y="777" on="0"/>
        <pt x="477" y="885" on="1"/>
        <pt x="343" y="833" on="0"/>
        <pt x="195" y="594" on="0"/>
        <pt x="195" y="438" on="1"/>
        <pt x="195" y="277" on="0"/>
        <pt x="326" y="66" on="0"/>
        <pt x="430" y="66" on="1"/>
        <pt x="548" y="66" on="0"/>
        <pt x="674" y="267" on="0"/>
      </contour>
    </TTGlyph>
    <TTGlyph name="dieresis" xMin="348" yMin="1305" xMax="778" yMax="1470">
      <contour>
        <pt x="348" y="1389" on="1"/>
        <pt x="348" y="1432" on="0"/>
        <pt x="387" y="1470" on="0"/>
        <pt x="412" y="1470" on="1"/>
        <pt x="435" y="1470" on="0"/>
        <pt x="473" y="1432" on="0"/>
        <pt x="473" y="1389" on="1"/>
        <pt x="473" y="1345" on="0"/>
        <pt x="435" y="1305" on="0"/>
        <pt x="412" y="1305" on="1"/>
        <pt x="387" y="1305" on="0"/>
        <pt x="348" y="1345" on="0"/>
      </contour>
      <contour>
        <pt x="653" y="1389" on="1"/>
        <pt x="653" y="1432" on="0"/>
        <pt x="692" y="1470" on="0"/>
        <pt x="715" y="1470" on="1"/>
        <pt x="740" y="1470" on="0"/>
        <pt x="778" y="1432" on="0"/>
        <pt x="778" y="1389" on="1"/>
        <pt x="778" y="1345" on="0"/>
        <pt x="740" y="1305" on="0"/>
        <pt x="715" y="1305" on="1"/>
        <pt x="692" y="1305" on="0"/>
        <pt x="653" y="1345" on="0"/>
      </contour>
    </TTGlyph>
    <TTGlyph name="dieresistonos" xMin="336" yMin="1202" xMax="791" yMax="1614">
      <contour>
        <pt x="516" y="1307" on="1"/>
        <pt x="538" y="1364" on="0"/>
        <pt x="588" y="1559" on="0"/>
        <pt x="592" y="1614" on="1"/>
        <pt x="696" y="1614" on="1"/>
        <pt x="696" y="1593" on="1"/>
        <pt x="686" y="1543" on="0"/>
        <pt x="597" y="1333" on="0"/>
        <pt x="565" y="1286" on="1"/>
        <pt x="516" y="1286" on="1"/>
      </contour>
      <contour>
        <pt x="336" y="1286" on="1"/>
        <pt x="336" y="1329" on="0"/>
        <pt x="375" y="1368" on="0"/>
        <pt x="399" y="1368" on="1"/>
        <pt x="422" y="1368" on="0"/>
        <pt x="461" y="1329" on="0"/>
        <pt x="461" y="1286" on="1"/>
        <pt x="461" y="1243" on="0"/>
        <pt x="422" y="1202" on="0"/>
        <pt x="399" y="1202" on="1"/>
        <pt x="375" y="1202" on="0"/>
        <pt x="336" y="1243" on="0"/>
      </contour>
      <contour>
        <pt x="666" y="1286" on="1"/>
        <pt x="666" y="1329" on="0"/>
        <pt x="704" y="1368" on="0"/>
        <pt x="727" y="1368" on="1"/>
        <pt x="752" y="1368" on="0"/>
        <pt x="791" y="1329" on="0"/>
        <pt x="791" y="1286" on="1"/>
        <pt x="791" y="1243" on="0"/>
        <pt x="752" y="1202" on="0"/>
        <pt x="727" y="1202" on="1"/>
        <pt x="704" y="1202" on="0"/>
        <pt x="666" y="1243" on="0"/>
      </contour>
    </TTGlyph>
    <TTGlyph name="divide" xMin="59" yMin="266" xMax="760" yMax="1178">
      <contour>
        <pt x="760" y="764" on="1"/>
        <pt x="760" y="682" on="1"/>
        <pt x="59" y="682" on="1"/>
        <pt x="59" y="764" on="1"/>
      </contour>
      <contour>
        <pt x="332" y="373" on="1"/>
        <pt x="332" y="479" on="0"/>
        <pt x="410" y="479" on="1"/>
        <pt x="487" y="479" on="0"/>
        <pt x="487" y="373" on="1"/>
        <pt x="487" y="316" on="0"/>
        <pt x="442" y="266" on="0"/>
        <pt x="410" y="266" on="1"/>
        <pt x="332" y="266" on="0"/>
      </contour>
      <contour>
        <pt x="332" y="1071" on="1"/>
        <pt x="332" y="1178" on="0"/>
        <pt x="410" y="1178" on="1"/>
        <pt x="487" y="1178" on="0"/>
        <pt x="487" y="1071" on="1"/>
        <pt x="487" y="1014" on="0"/>
        <pt x="442" y="965" on="0"/>
        <pt x="410" y="965" on="1"/>
        <pt x="332" y="965" on="0"/>
      </contour>
    </TTGlyph>
    <TTGlyph name="dollar" xMin="94" yMin="-119" xMax="727" yMax="1556">
      <contour>
        <pt x="367" y="123" on="1"/>
        <pt x="192" y="123" on="0"/>
        <pt x="94" y="176" on="1"/>
        <pt x="94" y="279" on="1"/>
        <pt x="146" y="249" on="0"/>
        <pt x="295" y="215" on="0"/>
        <pt x="367" y="215" on="1"/>
        <pt x="367" y="709" on="1"/>
        <pt x="219" y="771" on="0"/>
        <pt x="104" y="925" on="0"/>
        <pt x="104" y="1049" on="1"/>
        <pt x="104" y="1174" on="0"/>
        <pt x="251" y="1351" on="0"/>
        <pt x="367" y="1370" on="1"/>
        <pt x="367" y="1556" on="1"/>
        <pt x="449" y="1556" on="1"/>
        <pt x="449" y="1374" on="1"/>
        <pt x="589" y="1370" on="0"/>
        <pt x="707" y="1313" on="1"/>
        <pt x="670" y="1227" on="1"/>
        <pt x="553" y="1281" on="0"/>
        <pt x="449" y="1284" on="1"/>
        <pt x="449" y="776" on="1"/>
        <pt x="600" y="714" on="0"/>
        <pt x="727" y="560" on="0"/>
        <pt x="727" y="444" on="1"/>
        <pt x="727" y="321" on="0"/>
        <pt x="576" y="150" on="0"/>
        <pt x="449" y="129" on="1"/>
        <pt x="449" y="-119" on="1"/>
        <pt x="367" y="-119" on="1"/>
      </contour>
      <contour>
        <pt x="629" y="438" on="1"/>
        <pt x="629" y="523" on="0"/>
        <pt x="546" y="635" on="0"/>
        <pt x="449" y="676" on="1"/>
        <pt x="449" y="223" on="1"/>
        <pt x="531" y="242" on="0"/>
        <pt x="629" y="361" on="0"/>
      </contour>
      <contour>
        <pt x="201" y="1055" on="1"/>
        <pt x="201" y="960" on="0"/>
        <pt x="280" y="851" on="0"/>
        <pt x="367" y="809" on="1"/>
        <pt x="367" y="1278" on="1"/>
        <pt x="292" y="1261" on="0"/>
        <pt x="201" y="1138" on="0"/>
      </contour>
    </TTGlyph>
    <TTGlyph name="dotaccent" xMin="131" yMin="1292" xMax="256" yMax="1481">
      <contour>
        <pt x="131" y="1386" on="1"/>
        <pt x="131" y="1431" on="0"/>
        <pt x="168" y="1481" on="0"/>
        <pt x="197" y="1481" on="1"/>
        <pt x="224" y="1481" on="0"/>
        <pt x="256" y="1431" on="0"/>
        <pt x="256" y="1386" on="1"/>
        <pt x="256" y="1343" on="0"/>
        <pt x="224" y="1292" on="0"/>
        <pt x="197" y="1292" on="1"/>
        <pt x="168" y="1292" on="0"/>
        <pt x="131" y="1343" on="0"/>
      </contour>
    </TTGlyph>
    <TTGlyph name="dotbelow" xMin="-657" yMin="-319" xMax="-532" yMax="-131">
      <contour>
        <pt x="-657" y="-225" on="1"/>
        <pt x="-657" y="-180" on="0"/>
        <pt x="-621" y="-131" on="0"/>
        <pt x="-592" y="-131" on="1"/>
        <pt x="-564" y="-131" on="0"/>
        <pt x="-532" y="-180" on="0"/>
        <pt x="-532" y="-225" on="1"/>
        <pt x="-532" y="-269" on="0"/>
        <pt x="-564" y="-319" on="0"/>
        <pt x="-592" y="-319" on="1"/>
        <pt x="-621" y="-319" on="0"/>
        <pt x="-657" y="-269" on="0"/>
      </contour>
    </TTGlyph>
    <TTGlyph name="dotlessi" xMin="145" yMin="0" xMax="240" yMax="1085">
      <contour>
        <pt x="240" y="0" on="1"/>
        <pt x="145" y="0" on="1"/>
        <pt x="145" y="1085" on="1"/>
        <pt x="240" y="1085" on="1"/>
      </contour>
    </TTGlyph>
</ttFont>
